<?xml version="1.0" encoding="UTF-8"?>
<svg id="Layer_3" data-name="Layer 3" xmlns="http://www.w3.org/2000/svg" viewBox="0 0 164.19 164.19">
  <defs>
    <style>
      .cls-1 {
        fill: #ffba76;
      }

      .cls-2 {
        fill: #80a811;
      }

      .cls-3 {
        fill: #a56d47;
      }

      .cls-4 {
        fill: #593116;
      }
    </style>
  </defs>
  <circle class="cls-2" cx="82.09" cy="82.09" r="82.09"/>
  <path class="cls-1" d="M101.93,55.51c-11.77-3.65-24.36-3.26-37.54,0,1.99-10.17-10.93-22.18-26.15-13.45-11.11,6.38-7.67,20.27,3.36,23.95,0,0-25.49,30.33,2.34,50.02,12.01,8.5,56.28,12.47,69.38,5.59,33.5-17.6,11.28-49.34,11.28-49.34,14.03-3.03,11.9-17.06,1.42-25.74s-24.3-2.34-24.09,8.96Z"/>
  <path class="cls-4" d="M47.69,91.66c-1.33,0-2.43-1.05-2.5-2.39-.06-1.38,1-2.55,2.38-2.61l17.93-.82c1.37-.07,2.55,1,2.61,2.38.06,1.38-1,2.55-2.38,2.61l-17.93.82s-.08,0-.12,0Z"/>
  <path class="cls-4" d="M110.99,96.03c-.2,0-.41-.03-.61-.08l-17.41-4.37c-1.34-.34-2.15-1.69-1.82-3.03.34-1.34,1.69-2.15,3.03-1.82l17.41,4.37c1.34.34,2.15,1.69,1.82,3.03-.29,1.13-1.3,1.89-2.42,1.89Z"/>
  <path class="cls-4" d="M85.06,99.71c0,1.37-3.25,1.49-7.19,1.35s-6.84-.51-7.07-1.88,3.25-1.49,7.19-1.35,7.07.51,7.07,1.88Z"/>
  <path class="cls-4" d="M89.86,111.32c-3.84,0-7.82-.87-11.9-2.6-6.17,2.92-11.53,3.06-15.94.4-.71-.43-.94-1.35-.51-2.06.43-.71,1.35-.94,2.06-.51,3.67,2.21,8.15,1.94,13.68-.83.4-.2.87-.21,1.28-.03,5.19,2.31,10.17,3.1,14.8,2.34.82-.14,1.59.42,1.72,1.24.13.82-.42,1.59-1.24,1.72-1.3.21-2.62.32-3.96.32Z"/>
  <path class="cls-3" d="M49,61.48c-8.22-5.6,3.44-11.9,7.66-4.2l-7.66,4.2Z"/>
  <path class="cls-3" d="M109.98,59.89c4.11-9.06,17.46.37,7.19,5.88l-7.19-5.88Z"/>
</svg>