<?xml version="1.0" encoding="UTF-8"?>
<svg id="Layer_3" data-name="Layer 3" xmlns="http://www.w3.org/2000/svg" viewBox="0 0 164.19 164.19">
  <defs>
    <style>
      .cls-1 {
        fill: #f27c7c;
      }

      .cls-2 {
        fill: #1f1d21;
      }

      .cls-3 {
        fill: #fff;
      }

      .cls-4 {
        fill: #60434f;
      }
    </style>
  </defs>
  <circle class="cls-1" cx="82.09" cy="82.09" r="82.09"/>
  <path class="cls-3" d="M94.36,66.1c-10.14-.46-19.06,1.41-27.15,4.86C33.98,3.3,18.99,41.39,47.36,85.96c-12.7,35.02,4.22,48.89,25.82,50.18,14.85.88,25.82-.73,37.4-6.82,23.45-12.34,29.37-36.77,3.65-58.76,6.3-67.92-33.54-59.97-19.86-4.46Z"/>
  <g>
    <ellipse class="cls-3" cx="104.97" cy="96.9" rx="10.71" ry="12.2" transform="translate(-13.9 17.66) rotate(-9.02)"/>
    <path class="cls-4" d="M105.4,109.57c-5.51,0-10.49-4.59-11.5-10.91-1.1-6.92,2.97-13.33,9.08-14.3,6.1-.97,11.96,3.87,13.06,10.79h0c1.1,6.92-2.97,13.33-9.08,14.3-.52.08-1.05.12-1.56.12ZM104.55,85.24c-.47,0-.94.04-1.41.11-5.56.88-9.26,6.78-8.25,13.16,1.01,6.37,6.35,10.84,11.92,9.95,5.56-.88,9.26-6.78,8.25-13.16h0c-.93-5.83-5.48-10.06-10.51-10.06Z"/>
  </g>
  <ellipse class="cls-2" cx="107.26" cy="94.1" rx="7.59" ry="9.4" transform="translate(-13.43 17.99) rotate(-9.02)"/>
  <g>
    <ellipse class="cls-3" cx="70.96" cy="104.89" rx="10.71" ry="12.2" transform="translate(-15.57 12.43) rotate(-9.02)"/>
    <path class="cls-4" d="M71.37,117.55c-2.44,0-4.82-.89-6.85-2.58-2.45-2.04-4.09-5-4.62-8.33-.53-3.34.11-6.66,1.81-9.36,1.71-2.72,4.29-4.47,7.26-4.94,2.97-.47,5.96.4,8.44,2.45,2.45,2.04,4.09,5,4.62,8.33.53,3.34-.11,6.66-1.81,9.36-1.71,2.72-4.29,4.47-7.26,4.94-.53.08-1.06.12-1.58.12ZM70.54,93.22c-.47,0-.95.04-1.42.11-2.68.43-5.02,2.02-6.57,4.49-1.57,2.49-2.17,5.57-1.67,8.67.49,3.1,2.01,5.84,4.28,7.72,2.25,1.86,4.96,2.66,7.64,2.23,2.68-.43,5.01-2.02,6.57-4.49,1.57-2.49,2.17-5.57,1.67-8.67h0c-.49-3.1-2.01-5.84-4.28-7.72-1.85-1.54-4.02-2.34-6.22-2.34Z"/>
  </g>
  <ellipse class="cls-2" cx="73.24" cy="102.08" rx="7.59" ry="9.4" transform="translate(-15.1 12.75) rotate(-9.02)"/>
  <path class="cls-1" d="M60.21,74.92l-5.25,4.28s-9.67-16.08-6.16-16.92,11.41,12.64,11.41,12.64Z"/>
  <path class="cls-1" d="M102.17,67.5l5.09,1.4s1.12-14.29-2.55-16.11-2.55,14.71-2.55,14.71Z"/>
</svg>