<?xml version="1.0" encoding="UTF-8"?>
<svg id="Layer_3" data-name="Layer 3" xmlns="http://www.w3.org/2000/svg" xmlns:xlink="http://www.w3.org/1999/xlink" viewBox="0 0 164.19 164.19">
  <defs>
    <style>
      .cls-1 {
        fill: none;
      }

      .cls-2 {
        fill: #c68f6a;
      }

      .cls-3 {
        fill: #4c3627;
      }

      .cls-4 {
        clip-path: url(#clippath-1);
      }

      .cls-5 {
        fill: #b0e2d4;
      }

      .cls-6 {
        fill: #996948;
      }

      .cls-7 {
        fill: #ff8a3b;
      }

      .cls-8 {
        fill: #7a932a;
      }

      .cls-9 {
        clip-path: url(#clippath);
      }
    </style>
    <clipPath id="clippath">
      <circle class="cls-1" cx="82.09" cy="82.09" r="82.09"/>
    </clipPath>
    <clipPath id="clippath-1">
      <path class="cls-1" d="M130.09,62.91c12.37-28.36,44.06,15.76,8.52,16.72,4.32,23.53,7.16,45.2,6.88,62.94l-39.33,24.91-54.08-3.29c.82-16.63,3.85-32.54,10.82-47.19-8.84-6.76-16.2-14.13-22.59-21.89-.46-.56-.9-1.15-1.17-1.82-5.23-13.4-1.73-28.11,9.13-39.45,1.46-1.53,3.56-2.19,5.56-2.86,30.32-10.13,56.86-8.13,76.26,11.93Z"/>
    </clipPath>
  </defs>
  <circle class="cls-5" cx="82.09" cy="82.09" r="82.09"/>
  <g class="cls-9">
    <path class="cls-2" d="M130.09,62.91c12.37-28.36,44.06,15.76,8.52,16.72,4.32,23.53,7.16,45.2,6.88,62.94l-39.33,24.91-54.08-3.29c.82-16.63,3.85-32.54,10.82-47.19-8.84-6.76-16.2-14.13-22.59-21.89-.46-.56-.9-1.15-1.17-1.82-5.23-13.4-1.73-28.11,9.13-39.45,1.46-1.53,3.56-2.19,5.56-2.86,30.32-10.13,56.86-8.13,76.26,11.93Z"/>
    <path class="cls-3" d="M77.77,65.51h0c.45-.4,1.07-.54,1.64-.36,9.13,1.35,16.4,3.52,21.61,6.6,1.32.4,1.65,2.12.57,2.98l-2.35,1.88c-.5.4-1.18.49-1.76.23-6.62-2.83-13.05-5.66-19.26-8.49-1.14-.5-1.38-2.02-.45-2.85Z"/>
    <g class="cls-4">
      <path class="cls-6" d="M50.94,50.51c8.01,6.7,2.49,37.04-9.78,46.84l-8.79-2.04-2.61-40.24,8.26-10.06,12.92,5.5Z"/>
    </g>
  </g>
  <path class="cls-6" d="M135.09,70c-.06,0-.12,0-.18-.02-.54-.1-.9-.62-.8-1.17.62-3.31,2.55-6.1,5.3-7.66,2.22-1.26,4.67-1.55,6.72-.79.52.19.78.77.59,1.29-.19.52-.76.79-1.29.59-1.47-.55-3.35-.3-5.04.65-2.24,1.27-3.81,3.56-4.32,6.28-.09.48-.51.82-.98.82Z"/>
  <path class="cls-7" d="M71.48,37.33c0,6.04,6.11,10.94,13.64,10.94s13.64-2.49,13.64-10.94-6.11-10.94-13.64-10.94-13.64,4.9-13.64,10.94Z"/>
  <path class="cls-8" d="M94.84,18.91c-5.69.04-8.93,2.6-9.71,7.69-.11.72.56,1.32,1.27,1.14,4.88-1.21,8.01-3.69,9.41-7.45.25-.67-.27-1.38-.98-1.38Z"/>
</svg>