<?xml version="1.0" encoding="UTF-8"?>
<svg id="Layer_3" data-name="Layer 3" xmlns="http://www.w3.org/2000/svg" viewBox="0 0 164.19 164.19">
  <defs>
    <style>
      .cls-1 {
        fill: #ffcd5c;
      }

      .cls-2 {
        fill: #fff;
      }

      .cls-3 {
        fill: #8d86bf;
      }
    </style>
  </defs>
  <circle class="cls-1" cx="82.09" cy="82.09" r="82.09"/>
  <path class="cls-3" d="M97.94,55.64c-12.69-1.56-22.92-.01-36.47,3.52-2.86-3.62-20.27-14.85-25.98-12.13-4.21,2-2.1,19.09,0,26.05-8.57,16.77-5.71,41.4,9.64,48.18,14.22,6.28,48.4,6.71,67.45,0,25.34-8.92,25.34-42.59,12.13-56.03.21-7.29-.55-26.01-4.64-27.12-3.11-.85-16.14,8.85-22.13,17.53Z"/>
  <path class="cls-2" d="M91.43,90.38c0,5.12,6.19,7.16,13.82,7.16s13.82-1.87,13.82-7.16-6.19-7.16-13.82-7.16-13.82,2.03-13.82,7.16Z"/>
  <path class="cls-2" d="M43.96,91.2c0,5.12,6.19,7.16,13.82,7.16s13.82-1.87,13.82-7.16-6.19-7.16-13.82-7.16-13.82,2.03-13.82,7.16Z"/>
  <path d="M100.25,90.39c0,3.94,1.12,6.9,4.67,7.14s4.67-3.2,4.67-7.14-1.06-6.78-4.67-7.14-4.67,3.2-4.67,7.14Z"/>
  <path d="M52.81,91.21c0,3.94,1.08,6.9,4.51,7.14s4.51-3.2,4.51-7.14-1.02-6.78-4.51-7.14-4.51,3.2-4.51,7.14Z"/>
  <path d="M74.48,104.47c0,1.47,2.88,1.89,6.44,1.89s6.44-.37,6.44-1.89-2.88-1.89-6.44-1.89-6.44.42-6.44,1.89Z"/>
  <path d="M70.8,111.91c-1.36,0-2.77-.17-4.25-.51-.54-.12-.87-.66-.75-1.2.12-.54.66-.87,1.2-.75,5.38,1.23,9.69,0,13.19-3.77.2-.21.48-.34.77-.32.29,0,.56.14.74.37,3.75,4.6,8.22,5.11,14.07,1.59.47-.28,1.09-.13,1.37.34.28.47.13,1.09-.34,1.37-6.4,3.85-11.62,3.46-15.93-1.21-2.85,2.71-6.22,4.07-10.07,4.07Z"/>
</svg>