<?xml version="1.0" encoding="UTF-8"?>
<svg id="Layer_4" data-name="Layer 4" xmlns="http://www.w3.org/2000/svg" viewBox="0 0 318.82 306.49">
  <defs>
    <style>
      .cls-1 {
        fill: #838091;
      }

      .cls-2 {
        fill: #1f1d21;
      }

      .cls-3 {
        fill: #fff;
      }

      .cls-4 {
        fill: #ffebcf;
      }

      .cls-5 {
        fill: #a09587;
      }

      .cls-6 {
        fill: #423b49;
      }
    </style>
  </defs>
  <path class="cls-2" d="M174.5,126.64S96.35,17.9,81.88,41.51s28.24,69.1,28.24,69.1c0,0-51.33-39.39-45.49-14.32,5.84,25.08,40.9,44.56,40.9,44.56,0,0-18.9-5.95-10.77,4,9.88,12.09,46.48,16.75,46.48,16.75"/>
  <path class="cls-6" d="M197.31,40.54c-31.41-7.87-63.47,5.04-66.5,30.23-1.13,9.44-11.69,72.69-22.17,108.81l55.91,45.34s56.93-2.52,71.03-35.26c14.11-32.74-13.71-95.54-13.71-95.54l27.15-20.66c1.41-1.07.7-3.32-1.07-3.39l-34.53-1.31c1.81-12.33,11.14-25.19,22.53-38.2,1.11-1.26-.08-3.2-1.7-2.78-14.34,3.69-26.67,7.94-36.95,12.77Z"/>
  <circle class="cls-3" cx="172.76" cy="79.82" r="25.44"/>
  <circle class="cls-2" cx="174.5" cy="79.09" r="20.78"/>
  <path class="cls-6" d="M153.72,124.49S46.52,44.23,39.8,71.1s47.69,57.43,47.69,57.43c0,0-60.79-22.17-47.69,0s52.39,30.23,52.39,30.23c0,0-19.81,0-9.07,7.05,13.05,8.57,49.37,2.02,49.37,2.02"/>
  <path class="cls-1" d="M105.95,171.72c-9.03,0-18.18-1.08-23.65-4.67-1.13-.74-4.56-2.99-3.75-5.7.5-1.68,2.59-2.68,5.07-3.27-12.44-3.68-35.44-12.44-45.11-28.79-2.4-4.06-2.7-7.22-.89-9.4,3.11-3.75,12.37-3.6,28.3.44,3.58.91,7.1,1.92,10.23,2.87-15.76-10.61-42.86-32.21-37.8-52.47.74-2.95,2.53-4.94,5.32-5.93,22-7.83,107.33,55.78,110.95,58.5.66.5.8,1.44.3,2.1-.5.66-1.44.8-2.1.3-.22-.16-22.26-16.63-46.63-31.95-40.31-25.34-55.71-28.19-61.52-26.12-1.84.65-2.92,1.87-3.41,3.84-6.36,25.45,46.43,55.46,46.97,55.76.68.38.95,1.22.63,1.93-.33.71-1.14,1.05-1.88.78-15.97-5.82-42.86-13.18-47.05-8.13-1.13,1.36,0,3.99,1.17,5.95,12.6,21.33,51.01,29.44,51.4,29.52.75.15,1.27.85,1.19,1.62s-.72,1.35-1.49,1.35c-5.07,0-10.3.96-10.77,1.97,0-.01.08.72,2.52,2.33,12.4,8.14,47.92,1.86,48.28,1.79.82-.15,1.6.4,1.74,1.21s-.39,1.6-1.21,1.74c-.89.16-13.71,2.43-26.81,2.43Z"/>
  <path class="cls-4" d="M167.18,280.78c-22.61,0-43.82-9.27-58.2-25.42-11.43-12.85-24.11-36.25-19.6-74.81.06-.48.28-.92.64-1.25l16.65-15.13c.37-.34.85-.52,1.34-.52.06,0,.13,0,.19,0,.56.05,1.07.34,1.41.79l16.53,22.04,21.95-14.12c.33-.21.71-.32,1.08-.32.6,0,1.2.27,1.59.79l11.47,15.03,14.37-30.53c.32-.68,1-1.13,1.76-1.15.02,0,.03,0,.05,0,.74,0,1.41.4,1.76,1.06l8.95,16.72,6.5-7.15c.38-.42.92-.65,1.48-.65.05,0,.1,0,.15,0,.61.05,1.17.37,1.51.89l13.05,19.58,13.14-16.36c.39-.49.97-.75,1.56-.75.3,0,.61.07.9.21l18.41,9.25c.61.31,1.03.91,1.09,1.59,3.74,38.5-9.36,61.88-21.01,74.72-14.69,16.19-36.1,25.47-58.73,25.47Z"/>
  <path class="cls-5" d="M178.43,158.21l10.28,19.22,8.4-9.25,14.57,21.85,14.85-18.49,18.41,9.25c6.34,65.33-35.87,98-77.76,98s-83.45-32.67-75.81-98l16.65-15.13,17.65,23.53,23.52-15.13,13.47,17.65,15.77-33.51M178.43,154.21s-.07,0-.1,0c-1.51.04-2.87.93-3.52,2.3l-12.97,27.55-9.47-12.41c-.78-1.03-1.97-1.57-3.18-1.57-.74,0-1.49.21-2.16.64l-20.38,13.11-15.42-20.55c-.68-.9-1.7-1.48-2.82-1.58-.13-.01-.25-.02-.38-.02-.99,0-1.95.37-2.69,1.04l-16.65,15.13c-.72.65-1.17,1.54-1.28,2.5-4.6,39.29,8.39,63.22,20.09,76.37,14.76,16.58,36.51,26.09,59.69,26.09s45.15-9.52,60.22-26.13c11.92-13.13,25.33-37.03,21.52-76.26-.13-1.37-.96-2.57-2.19-3.19l-18.41-9.25c-.57-.29-1.19-.43-1.79-.43-1.18,0-2.34.52-3.12,1.5l-11.43,14.23-11.54-17.31c-.68-1.02-1.8-1.68-3.03-1.77-.1,0-.2-.01-.3-.01-1.12,0-2.2.47-2.96,1.31l-4.59,5.05-7.61-14.22c-.7-1.3-2.05-2.11-3.53-2.11h0Z"/>
</svg>