<?xml version="1.0" encoding="UTF-8"?>
<svg id="Layer_6" data-name="Layer 6" xmlns="http://www.w3.org/2000/svg" viewBox="0 0 269.58 214.54">
  <defs>
    <style>
      .cls-1 {
        fill: #fcbc8b;
      }

      .cls-2 {
        fill: #785ca0;
      }

      .cls-3 {
        fill: #27232b;
      }

      .cls-4 {
        fill: #ff8d8d;
      }

      .cls-5 {
        fill: #1f1d21;
      }

      .cls-6 {
        fill: #ffe36c;
      }

      .cls-7 {
        fill: #e85b5b;
      }

      .cls-8 {
        fill: #fff;
      }

      .cls-9 {
        fill: #c48b65;
      }

      .cls-10 {
        fill: #ffa539;
      }

      .cls-11 {
        fill: #51463f;
      }

      .cls-12 {
        fill: #423b49;
      }

      .cls-13 {
        fill: #bb94ea;
      }
    </style>
  </defs>
  <path class="cls-5" d="M159.51,190.61l-9.52-13.55c-.48-.68-1.42-.84-2.09-.37-.68.48-.84,1.41-.37,2.09l8.83,12.57-10.5,11.59c-4.6,1.53-8.37,6.51-9.37,9.63-.25.79.18,1.63.97,1.88.15.05.31.07.46.07.63,0,1.22-.41,1.43-1.04.55-1.73,2.25-4.19,4.39-5.93-.54,2.02-.61,3.94-.19,5.81.16.7.78,1.17,1.46,1.17.11,0,.22-.01.33-.04.81-.18,1.32-.98,1.14-1.79-.47-2.09-.11-4.33,1.08-6.85,1.8.23,2.32.58,2.42.67.31.73,1.14,1.1,1.89.83.78-.28,1.18-1.14.9-1.92-.44-1.21-1.67-1.86-3.1-2.23l9.71-10.73c.47-.52.52-1.3.12-1.87Z"/>
  <path class="cls-3" d="M116.81,128.77s-15.35-2.96-45.64-23.04c-33.19-22-20.85,28.4,0,35.37-20.52,3.75,0,19.29,22.82,14.47-4.87,11.11,5.58,13.07,27.44,6.97l-4.63-33.76Z"/>
  <path class="cls-3" d="M150.01,121.17c20.77,5.92,48.53-20.22,60.14-29.19s14.97,10.79-2.99,33.99c18.68-2.97,12.58,13.07-8.59,14.57,12.32,6.55,5.23,13.07-18.49,15.69-21.26-6.93-33.01-17.88-30.07-35.06Z"/>
  <path class="cls-5" d="M189.64,188.35l-9.52-13.55c-.48-.68-1.42-.84-2.09-.37-.68.48-.84,1.41-.37,2.09l8.83,12.57-10.5,11.59c-4.6,1.53-8.37,6.51-9.37,9.63-.25.79.18,1.63.97,1.88.15.05.31.07.46.07.63,0,1.22-.41,1.43-1.04.55-1.73,2.25-4.19,4.39-5.93-.54,2.02-.61,3.94-.19,5.81.16.7.78,1.17,1.46,1.17.11,0,.22-.01.33-.04.81-.18,1.32-.98,1.14-1.79-.47-2.09-.11-4.33,1.08-6.85,1.8.23,2.32.58,2.42.67.31.73,1.14,1.1,1.89.83.78-.28,1.18-1.14.9-1.92-.44-1.21-1.67-1.86-3.1-2.23l9.71-10.73c.47-.52.52-1.3.12-1.87Z"/>
  <path class="cls-12" d="M144.52,92.93c-4.2-7.28-19.89-10.37-30.82-7.28s-24.87,25.18-28.17,37.94c-.17.67.58,1.19,1.16.82,5.32-3.46,12.45-7.63,18.04-4.58l4.47,4.06c1.06.97,1.66,2.33,1.63,3.77-.17,9.33.27,45.27,16.31,55.48,23.37,14.87,72.63,1.03,96.51-26.19.96-1.1-.03-2.78-1.45-2.46l-13.84,3.11c-5.95,1.34-12.2.63-17.68-2.05-17.81-8.71-28.81-17.41-36.54-31.69-.44-.82-.79-1.68-1.06-2.57,0,0-4.36-21.08-8.56-28.36Z"/>
  <circle class="cls-8" cx="126.22" cy="110.3" r="13.17"/>
  <circle class="cls-5" cx="128.52" cy="108" r="10.87"/>
  <g>
    <g>
      <path class="cls-1" d="M47.53,11.57l14.29,56.84c3.61,9.45-30.36,22.44-33.97,12.99L.56,29.54,47.53,11.57Z"/>
      <path class="cls-9" d="M34.98,85.19c-4.08,0-6.7-1.25-7.61-3.61L.11,29.77c-.07-.13-.08-.28-.03-.41s.16-.24.29-.29L47.35,11.11c.13-.05.28-.04.41.02.13.07.22.18.25.32l14.29,56.84c1.97,5.13-6.18,10.96-14.58,14.17-4.5,1.72-8.95,2.69-12.53,2.73-.07,0-.14,0-.21,0ZM1.26,29.8l27.02,51.37c1.69,4.4,10.87,3.5,19.08.36,4.4-1.68,8.25-3.86,10.85-6.15,1.96-1.72,4.09-4.29,3.14-6.79l-14.17-56.35L1.26,29.8Z"/>
    </g>
    <g>
      <ellipse class="cls-13" cx="24.04" cy="20.55" rx="25.14" ry="4.57" transform="translate(-5.76 9.94) rotate(-20.93)"/>
      <path class="cls-2" d="M3.56,31c-1.98,0-3.15-.43-3.48-1.28-.55-1.43,1.45-3.54,5.93-6.26,4.15-2.52,9.91-5.23,16.21-7.64,6.3-2.41,12.4-4.23,17.17-5.12,5.15-.97,8.05-.73,8.59.7,1.19,3.11-10.24,9.34-22.14,13.9-6.3,2.41-12.4,4.23-17.17,5.13-2.07.39-3.78.58-5.12.58ZM44.55,11.11c-1.15,0-2.76.15-4.96.57-4.72.88-10.75,2.69-17,5.08-6.25,2.39-11.95,5.08-16.05,7.56-4.77,2.89-5.71,4.53-5.52,5.04.2.51,1.99,1.11,7.47.08,4.72-.88,10.75-2.69,17-5.08,14.26-5.45,22.17-11.02,21.56-12.61h0c-.12-.31-.81-.64-2.51-.64Z"/>
    </g>
    <circle class="cls-11" cx="55.76" cy="69.24" r="4.2"/>
    <circle class="cls-11" cx="49" cy="74.83" r="4.2"/>
    <circle class="cls-11" cx="46.79" cy="64.88" r="4.2"/>
    <circle class="cls-11" cx="47.76" cy="51.2" r="4.2"/>
    <circle class="cls-11" cx="27.52" cy="49.94" r="4.2"/>
    <circle class="cls-11" cx="38.57" cy="78.82" r="4.2"/>
    <circle class="cls-11" cx="38.41" cy="69.88" r="4.2"/>
    <circle class="cls-11" cx="30.18" cy="74.53" r="4.2"/>
    <path class="cls-11" d="M22.41,21.18l-5.32,2.03c-.53.2-1.14.03-1.49-.43L1.39,3.91c-.51-.68-.23-1.67.57-1.97L6.8.08c.53-.2,1.12-.04,1.47.41l14.69,18.69c.54.68.26,1.69-.55,1.99Z"/>
  </g>
  <g>
    <g>
      <g>
        <path class="cls-4" d="M219.29,35.45c4.89-7.63,10.34-13.57,16.62-16.99.82-.45,1.8-.49,2.64-.1,2.91,1.37,4.2,3.36,2.56,6.51-.55,1.04-.39,2.35.4,3.23,1.43,1.59,1.39,3.64.34,6-.29.66-.3,1.4-.05,2.07.81,2.2.39,3.89-1.12,5.13-.21.17-.45.31-.71.4-4.17,1.54-11.48.03-18.95-1.87-1.45-.37-2.38-1.78-2.15-3.26h0c.06-.4.21-.79.43-1.13Z"/>
        <path class="cls-7" d="M235.64,43.35c-3.9,0-8.9-1.02-14.87-2.54-1.96-.5-3.2-2.38-2.89-4.38.08-.54.28-1.07.57-1.52,5.35-8.35,10.9-14.02,16.99-17.33,1.1-.6,2.43-.65,3.55-.12,1.96.92,3.15,2.06,3.63,3.48.44,1.3.23,2.79-.61,4.4-.35.67-.25,1.54.26,2.1,1.62,1.81,1.79,4.19.5,7.07-.18.41-.19.88-.03,1.32,1.19,3.22-.12,5.17-1.43,6.25-.29.24-.63.43-.99.57-1.31.49-2.88.7-4.67.7ZM237.34,19.1c-.32,0-.65.08-.95.24-5.78,3.15-11.1,8.59-16.26,16.65h0c-.14.22-.24.48-.28.75-.15.98.46,1.89,1.41,2.14,7.23,1.84,14.46,3.34,18.36,1.9.16-.06.3-.14.42-.24.76-.62,1.67-1.71.82-4.01-.34-.93-.32-1.94.08-2.83,1.27-2.84.51-4.17-.17-4.92-1.06-1.19-1.28-2.94-.54-4.36.59-1.13.75-2.06.49-2.84-.29-.86-1.16-1.64-2.58-2.31-.25-.12-.52-.17-.79-.17ZM219.29,35.45h0,0Z"/>
      </g>
      <g>
        <path class="cls-4" d="M197.51,37.65c-8.41-3.39-16.29-5.07-23.39-4.22-.92.11-1.75.64-2.21,1.45-1.58,2.8-1.48,5.18,1.69,6.79,1.05.54,1.68,1.69,1.54,2.86-.24,2.12.97,3.77,3.2,5.08.62.37,1.06.96,1.25,1.66.61,2.26,1.94,3.39,3.89,3.53.27.02.55-.01.81-.08,4.29-1.16,9.37-6.63,14.36-12.5.97-1.14.91-2.83-.14-3.9h0c-.28-.29-.63-.52-1-.68Z"/>
        <path class="cls-7" d="M183.64,55.82c-.08,0-.16,0-.24,0-1.68-.12-3.88-.95-4.78-4.26-.12-.46-.4-.83-.79-1.06-2.72-1.61-3.96-3.64-3.69-6.06.09-.75-.33-1.51-1-1.86-1.63-.83-2.65-1.92-3.05-3.24-.43-1.43-.12-3.05.94-4.94.61-1.07,1.71-1.8,2.96-1.96,6.88-.82,14.69.58,23.89,4.28h0c.5.2.97.52,1.35.91,1.41,1.45,1.49,3.71.18,5.25-5.82,6.86-10.58,11.66-14.87,12.82-.3.08-.61.12-.91.12ZM177.91,34.21c-1.26,0-2.48.07-3.67.21-.62.07-1.17.43-1.46.95-.77,1.37-1.03,2.51-.77,3.38.24.79.91,1.45,2.04,2.03,1.43.73,2.26,2.28,2.08,3.86-.11,1.01.04,2.53,2.72,4.11.84.5,1.44,1.3,1.7,2.26.64,2.36,2.01,2.72,2.99,2.79.15.01.32,0,.48-.05,4.01-1.08,9.03-6.5,13.86-12.18.64-.75.6-1.85-.09-2.56-.19-.19-.42-.35-.66-.45-7.26-2.92-13.59-4.36-19.23-4.36Z"/>
      </g>
      <g>
        <circle class="cls-4" cx="208.95" cy="39.32" r="14.24"/>
        <path class="cls-7" d="M208.96,54.57c-.77,0-1.55-.06-2.34-.18-8.31-1.28-14.02-9.09-12.74-17.39,1.28-8.31,9.09-14.01,17.39-12.74,4.02.62,7.57,2.77,9.97,6.06,2.41,3.28,3.39,7.31,2.77,11.33h0c-1.16,7.52-7.67,12.92-15.06,12.92ZM208.95,26.08c-6.42,0-12.07,4.69-13.08,11.22-1.12,7.22,3.85,14,11.06,15.11,7.22,1.11,14-3.85,15.11-11.06h0c.54-3.5-.31-6.99-2.4-9.85-2.09-2.85-5.17-4.72-8.66-5.26-.68-.11-1.36-.16-2.03-.16Z"/>
      </g>
    </g>
    <g>
      <g>
        <path class="cls-6" d="M241.99,64.2c8.21-3.85,15.99-5.96,23.13-5.5.93.06,1.79.54,2.29,1.33,1.73,2.71,1.76,5.09-1.31,6.87-1.02.59-1.58,1.78-1.39,2.94.36,2.11-.76,3.82-2.92,5.25-.6.4-1,1.02-1.15,1.73-.49,2.29-1.75,3.49-3.69,3.74-.27.03-.55.02-.81-.04-4.35-.92-9.72-6.1-15.03-11.69-1.03-1.08-1.06-2.78-.08-3.9h0c.27-.31.6-.56.97-.73Z"/>
        <path class="cls-10" d="M256.66,81.59c-.24,0-.49-.03-.73-.08-4.34-.92-9.35-5.46-15.55-11.98-1.39-1.47-1.44-3.72-.11-5.25.36-.41.8-.75,1.29-.98h0c8.98-4.2,16.69-6.03,23.61-5.59,1.26.08,2.4.75,3.07,1.79,1.17,1.83,1.56,3.42,1.21,4.88-.32,1.34-1.29,2.48-2.87,3.4-.66.38-1.03,1.17-.9,1.91.41,2.39-.72,4.5-3.35,6.25-.37.25-.63.64-.73,1.1-.71,3.36-2.86,4.31-4.54,4.52-.14.02-.28.03-.42.03ZM242.42,65.11h0c-.24.11-.46.28-.64.48-.65.75-.63,1.85.05,2.56,5.14,5.41,10.45,10.54,14.51,11.4.17.03.33.04.48.02.97-.12,2.33-.56,2.83-2.95.21-.97.77-1.81,1.57-2.35,2.59-1.72,2.66-3.25,2.49-4.25-.27-1.57.48-3.17,1.87-3.97,1.1-.64,1.73-1.34,1.93-2.14.21-.89-.11-2.01-.95-3.33-.32-.51-.89-.83-1.51-.87-6.56-.43-13.97,1.35-22.64,5.4Z"/>
      </g>
      <g>
        <path class="cls-6" d="M222.41,54.44c-5.3-7.35-11.07-12.98-17.53-16.05-.84-.4-1.83-.39-2.65.05-2.83,1.52-4.01,3.59-2.2,6.65.6,1.01.52,2.32-.22,3.24-1.34,1.67-1.19,3.71,0,6.01.33.64.38,1.38.17,2.07-.69,2.24-.17,3.9,1.4,5.06.22.16.47.28.73.36,4.25,1.31,11.46-.6,18.82-2.91,1.43-.45,2.28-1.91,1.97-3.37h0c-.08-.4-.25-.78-.49-1.11Z"/>
        <path class="cls-10" d="M205.41,63.26c-1.34,0-2.54-.15-3.6-.48-.37-.12-.72-.29-1.03-.51-1.36-1-2.78-2.88-1.77-6.16.14-.45.1-.92-.1-1.32-1.45-2.81-1.41-5.2.12-7.09.47-.59.53-1.45.14-2.1-.93-1.57-1.22-3.04-.85-4.36.4-1.44,1.52-2.64,3.43-3.67,1.09-.58,2.41-.61,3.55-.07,6.26,2.97,12.12,8.33,17.92,16.37h0c.32.44.54.95.66,1.48.42,1.98-.72,3.93-2.65,4.54-6.45,2.02-11.77,3.38-15.81,3.38ZM203.59,39.1c-.31,0-.62.07-.89.22-1.38.75-2.21,1.57-2.45,2.45-.22.79,0,1.71.64,2.81.82,1.38.7,3.14-.3,4.38-.63.79-1.32,2.16.1,4.93.44.87.53,1.87.23,2.82-.72,2.34.25,3.38,1.04,3.96.12.09.27.17.43.21,3.97,1.22,11.11-.67,18.23-2.9.94-.29,1.49-1.25,1.29-2.21-.06-.26-.17-.52-.32-.73-5.6-7.76-11.21-12.91-17.15-15.73-.27-.13-.57-.19-.85-.19Z"/>
      </g>
      <g>
        <circle class="cls-6" cx="231.19" cy="61.96" r="14.24"/>
        <path class="cls-10" d="M231.18,77.2c-3.55,0-7.12-1.23-10-3.74-3.07-2.67-4.92-6.38-5.2-10.44-.28-4.06,1.04-7.99,3.71-11.06,2.67-3.07,6.38-4.92,10.44-5.2,4.05-.29,7.99,1.04,11.06,3.71,6.34,5.52,7.01,15.17,1.49,21.5-3.01,3.46-7.25,5.23-11.51,5.23ZM231.21,48.72c-.31,0-.62.01-.93.03-3.53.24-6.75,1.85-9.07,4.52-2.32,2.67-3.47,6.08-3.22,9.61.24,3.53,1.85,6.75,4.51,9.07,5.51,4.79,13.89,4.21,18.69-1.29h0c4.79-5.51,4.21-13.89-1.29-18.68-2.43-2.12-5.48-3.25-8.68-3.25Z"/>
      </g>
    </g>
  </g>
</svg>