<?xml version="1.0" encoding="UTF-8"?>
<svg id="Layer_3" data-name="Layer 3" xmlns="http://www.w3.org/2000/svg" viewBox="0 0 164.19 164.19">
  <defs>
    <style>
      .cls-1 {
        fill: #7cbdf2;
      }

      .cls-2 {
        fill: #493f32;
      }

      .cls-3 {
        fill: #fff;
      }

      .cls-4 {
        fill: #726458;
      }
    </style>
  </defs>
  <circle class="cls-1" cx="82.09" cy="82.09" r="82.09"/>
  <g>
    <path class="cls-4" d="M104.86,46.4c-19.05-4.24-37.34-3.64-54.71,2.86-6,2.24-10.05,7.92-10.11,14.32-.26,26.1,6.97,47.51,26.03,61.52,5.08,3.73,11.12,6.07,17.42,6.32,3.27.13,6.57-.17,9.89-.89,3.03-.66,5.79-2.28,7.89-4.56,15.56-16.95,17.66-40.33,15.56-65.71-.56-6.73-5.37-12.39-11.96-13.86Z"/>
    <path class="cls-3" d="M86.43,89.06c0,3.89,5.07,7.1,11.62,7.1,7.23,0,11.86-3.57,11.86-8.59s-5.31-7.04-11.86-7.04-11.62,3.27-11.62,8.53Z"/>
    <path class="cls-3" d="M53.52,91.41c.49,5.06,6.13,7.56,11.92,7.2,7.12-.45,10.99-4.14,10.56-9.13-.32-3.66-6.8-6.1-12.58-5.6s-10.35,2.88-9.9,7.53Z"/>
    <ellipse class="cls-2" cx="68.04" cy="89.85" rx="6.58" ry="5.31"/>
    <ellipse class="cls-2" cx="101.4" cy="86.58" rx="6.58" ry="5.31"/>
    <path class="cls-2" d="M88.21,128.85c2.89,0,9.01-3.77,6.6-5.5s-17.37-1.45-18.78,1.01,9.29,4.48,12.18,4.48Z"/>
    <path class="cls-4" d="M95.11,46s1.44-2.57,2.83-3.31c4.38-2.33,24.33-3.78,30.7,3.31,6.38,7.09,13.42,45.82,6.85,48.04-10.16,3.44-37.55-33.16-37.55-33.16"/>
    <path class="cls-4" d="M58.74,48.6s-27.87-5.67-32.36,2.36-8.64,46.67-1.42,47c15.05.68,27.63-24.68,27.63-24.68"/>
    <path class="cls-2" d="M42.9,88.65c-.26,0-.52-.1-.72-.3-.38-.4-.37-1.03.02-1.41,3.07-2.98,6.2-7.2,9.29-12.56.28-.48.89-.64,1.37-.37.48.28.64.89.37,1.37-3.18,5.52-6.42,9.89-9.63,13-.19.19-.44.28-.7.28Z"/>
    <path class="cls-2" d="M116.62,84.13c-.21,0-.42-.07-.6-.2-4.66-3.51-8.29-7.69-12.13-13.98-.29-.47-.14-1.09.33-1.37.47-.29,1.09-.14,1.37.33,3.7,6.07,7.17,10.08,11.62,13.43.44.33.53.96.2,1.4-.2.26-.5.4-.8.4Z"/>
  </g>
</svg>