<?xml version="1.0" encoding="UTF-8"?>
<svg id="Layer_4" data-name="Layer 4" xmlns="http://www.w3.org/2000/svg" viewBox="0 0 280 280">
  <defs>
    <style>
      .cls-1 {
        fill: #ff9797;
      }

      .cls-2 {
        fill: #c64f4f;
      }

      .cls-3 {
        fill: #d19c66;
      }

      .cls-4 {
        fill: #aa845b;
      }

      .cls-5 {
        fill: #edbd83;
      }

      .cls-6 {
        fill: #e58383;
      }

      .cls-7 {
        fill: #ffd194;
      }
    </style>
  </defs>
  <g>
    <path class="cls-5" d="M184.34,97l26.34,151.29c1.6,9.19-9.65,14.92-16.14,8.22l-106.95-110.35,96.75-49.16Z"/>
    <path class="cls-4" d="M204.33,261.22c-4.05,1.11-8.31-.03-11.37-3.18l-106.95-110.35c-.49-.5-.7-1.2-.59-1.89.11-.69.55-1.28,1.17-1.6l96.75-49.16c.62-.32,1.36-.32,1.98,0s1.06.9,1.18,1.59l26.34,151.29c.9,5.16-1.54,10.03-6.2,12.4-.76.38-1.53.68-2.31.9ZM91.24,146.77l104.88,108.21c2.76,2.85,6.22,2.6,8.53,1.42,2.31-1.18,4.55-3.83,3.87-7.73l-25.83-148.37-91.45,46.47Z"/>
  </g>
  <path class="cls-3" d="M131.67,182.73c-.86.24-1.82-.07-2.37-.84-.71-.99-.48-2.36.51-3.07,23.32-16.7,41.82-37.49,54.98-61.81.58-1.07,1.91-1.46,2.98-.89,1.07.58,1.46,1.91.89,2.98-13.48,24.91-32.42,46.2-56.29,63.29-.22.16-.45.27-.7.33Z"/>
  <path class="cls-3" d="M152.01,203.53c-.92.25-1.92-.11-2.45-.96-.64-1.03-.32-2.39.71-3.03,17.49-10.84,30.73-23.75,39.36-38.37.62-1.05,1.96-1.39,3.01-.78,1.05.62,1.39,1.96.78,3.01-8.99,15.24-22.73,28.65-40.83,39.87-.18.11-.38.2-.58.25Z"/>
  <path class="cls-3" d="M174.69,227.63c-.83.23-1.75-.05-2.32-.76-.75-.96-.58-2.34.38-3.09,11.25-8.8,18.63-16.94,22.59-24.89.54-1.09,1.86-1.53,2.95-.99,1.09.54,1.53,1.86.99,2.95-4.25,8.55-12.04,17.18-23.81,26.39-.24.19-.5.31-.77.39Z"/>
  <g>
    <path class="cls-1" d="M186.82,80.46C167.19-11.85,6.32,37.16,74.54,132.01c-20.33,18.21-3.05,38.58,16.63,27.21,10.1,10.42,28.09,4.62,32.31-6.36,14.5,6.27,35.53-2.38,34.68-20.99,25.58,7.87,38.61-9.76,29.58-25.59,24.88-.88,28.86-26.67-.93-25.82Z"/>
    <path class="cls-6" d="M110.79,166.02c-.53.14-1.06.27-1.6.38-6.9,1.41-13.5-.22-18.37-4.48-10.98,5.61-20.41,2.07-24.69-3.83-4.18-5.76-5.08-15.98,5.5-26.37-18.09-25.98-21-51.45-8.15-71.86,14.1-22.41,45.53-34.9,74.72-29.71,25.94,4.62,44.2,22.1,50.36,48.09,15.45.1,21.21,7.27,21.41,13.59.23,7.08-6.29,14.82-18.86,16.39,2.84,7,2.03,14.38-2.35,19.85-5.8,7.25-16.3,9.66-28.45,6.68-.5,7.04-4,13.1-10.05,17.27-7.3,5.04-17.35,6.4-25.66,3.62-2.65,4.84-7.78,8.72-13.82,10.37ZM90.59,157.11c.76-.21,1.59,0,2.16.59,3.9,4.02,9.57,5.62,15.56,4.4,6.11-1.25,11.26-5.18,13.12-10.02.21-.56.65-1.01,1.2-1.24.55-.23,1.18-.23,1.72,0,7.31,3.16,16.72,2.18,23.42-2.44,5.59-3.86,8.5-9.7,8.19-16.43-.03-.71.28-1.4.85-1.84.57-.44,1.31-.57,1.99-.36,11.54,3.55,21.46,1.89,26.54-4.45,3.92-4.9,4.11-11.61.49-17.95-.38-.67-.39-1.49-.01-2.16.38-.67,1.07-1.1,1.84-1.13,11.45-.41,18.11-6.48,17.93-12.11-.15-4.9-6-9.67-18.71-9.31-1.06.03-1.99-.7-2.21-1.74-5.34-25.12-22.55-42.05-47.22-46.44-27.51-4.89-57.05,6.76-70.23,27.72-12.09,19.21-8.85,43.55,9.11,68.53.66.91.52,2.17-.32,2.92-9.91,8.88-9.6,17.32-6.31,21.85,3.34,4.61,11.15,7.15,20.38,1.81.17-.1.34-.17.52-.22Z"/>
  </g>
  <path class="cls-2" d="M132.31,59.51c-.69.19-1.47.04-2.04-.48-.91-.81-.99-2.2-.18-3.1l6.5-7.32c.81-.91,2.2-.99,3.1-.18.91.81.99,2.2.18,3.1l-6.5,7.32c-.29.33-.66.55-1.06.66Z"/>
  <path class="cls-7" d="M74.89,99.99c-.69.19-1.47.04-2.04-.48-.91-.81-.99-2.19-.18-3.1l6.5-7.32c.8-.91,2.2-.99,3.1-.18.91.81.99,2.19.18,3.1l-6.5,7.32c-.29.33-.66.55-1.06.66Z"/>
  <path class="cls-7" d="M99.36,65.18c-.18.05-.37.08-.56.08-1.21.01-2.21-.97-2.22-2.18l-.09-9.79c-.01-1.21.97-2.21,2.18-2.22,1.21-.01,2.21.97,2.22,2.18l.09,9.79c0,1.02-.68,1.88-1.61,2.14Z"/>
  <path class="cls-2" d="M88.77,80.25c-.32.09-.66.1-1.01.03l-9.6-1.91c-1.19-.24-1.96-1.39-1.73-2.59.24-1.19,1.39-1.97,2.58-1.73l9.6,1.91c1.19.24,1.96,1.39,1.73,2.59-.17.84-.8,1.48-1.57,1.69Z"/>
  <path class="cls-2" d="M164.17,62.83c-.32.09-.66.1-1.01.04l-9.6-1.92c-1.19-.24-1.96-1.39-1.72-2.59.24-1.19,1.39-1.96,2.59-1.73l9.6,1.92c1.19.24,1.96,1.39,1.72,2.59-.17.84-.8,1.48-1.57,1.69Z"/>
  <path class="cls-7" d="M122.54,75.13c-.67.18-1.41.05-1.99-.43l-7.54-6.25c-.93-.77-1.06-2.16-.29-3.09s2.16-1.06,3.09-.29l7.54,6.25c.93.77,1.06,2.16.29,3.09-.3.36-.69.6-1.11.72Z"/>
</svg>