<?xml version="1.0" encoding="UTF-8"?>
<svg id="Layer_2" data-name="Layer 2" xmlns="http://www.w3.org/2000/svg" xmlns:xlink="http://www.w3.org/1999/xlink" viewBox="0 0 407.03 305.84">
  <defs>
    <style>
      .cls-1 {
        fill: none;
      }

      .cls-2 {
        fill: #e28826;
      }

      .cls-3 {
        fill: #ea9935;
      }

      .cls-4 {
        fill: #eda13d;
      }

      .cls-5 {
        fill: #dd7d1c;
      }

      .cls-6 {
        fill: #f6b54e;
      }

      .cls-7 {
        fill: #fabe56;
      }

      .cls-8 {
        fill: #fbc25a;
      }

      .cls-9 {
        fill: #e38a28;
      }

      .cls-10 {
        fill: #eea23e;
      }

      .cls-11 {
        fill: #e48b29;
      }

      .cls-12 {
        fill: #f0a842;
      }

      .cls-13 {
        fill: #fcc45c;
      }

      .cls-14 {
        fill: #e38927;
      }

      .cls-15 {
        fill: #ec9e3a;
      }

      .cls-16 {
        fill: #e7922f;
      }

      .cls-17 {
        fill: #f5b34c;
      }

      .cls-18 {
        fill: #eb9b37;
      }

      .cls-19 {
        fill: #f7b750;
      }

      .cls-20 {
        fill: #f9bd55;
      }

      .cls-21 {
        fill: #ec9f3b;
      }

      .cls-22 {
        fill: #f4b049;
      }

      .cls-23 {
        fill: #e89633;
      }

      .cls-24 {
        fill: #e89532;
      }

      .cls-25 {
        fill: #f6b64f;
      }

      .cls-26 {
        fill: #838091;
      }

      .cls-27 {
        fill: #e58f2c;
      }

      .cls-28 {
        fill: #eea43e;
      }

      .cls-29 {
        fill: #ec9d39;
      }

      .cls-30 {
        fill: #f9bc54;
      }

      .cls-31 {
        fill: #ffb32c;
      }

      .cls-32 {
        fill: #e58e2b;
      }

      .cls-33 {
        fill: #fdc55c;
      }

      .cls-34 {
        fill: #1f1d21;
      }

      .cls-35 {
        fill: #f4b24b;
      }

      .cls-36 {
        fill: #e28725;
      }

      .cls-37 {
        fill: #ffc960;
      }

      .cls-38 {
        fill: #f1ab45;
      }

      .cls-39 {
        clip-path: url(#clippath-1);
      }

      .cls-40 {
        fill: #e99734;
      }

      .cls-41 {
        fill: #f4b14a;
      }

      .cls-42 {
        fill: #fbc058;
      }

      .cls-43 {
        fill: #ce9e78;
      }

      .cls-44 {
        fill: #f7b952;
      }

      .cls-45 {
        fill: #fff;
      }

      .cls-46 {
        fill: #f2ac46;
      }

      .cls-47 {
        fill: #f3af48;
      }

      .cls-48 {
        fill: #df801f;
      }

      .cls-49 {
        fill: #e6902d;
      }

      .cls-50 {
        fill: #f0a943;
      }

      .cls-51 {
        fill: #eda03c;
      }

      .cls-52 {
        fill: #fabf57;
      }

      .cls-53 {
        fill: #f8bb53;
      }

      .cls-54 {
        fill: #e48c2a;
      }

      .cls-55 {
        fill: #e79330;
      }

      .cls-56 {
        fill: #f2ad47;
      }

      .cls-57 {
        fill: #fec75e;
      }

      .cls-58 {
        fill: #e18624;
      }

      .cls-59 {
        fill: #e89431;
      }

      .cls-60 {
        fill: #fca218;
      }

      .cls-61 {
        fill: #f1aa44;
      }

      .cls-62 {
        fill: #efa53f;
      }

      .cls-63 {
        fill: #fbc159;
      }

      .cls-64 {
        fill: #e99834;
      }

      .cls-65 {
        fill: #dd7c1b;
      }

      .cls-66 {
        fill: #f8ba52;
      }

      .cls-67 {
        fill: #aa7b5b;
      }

      .cls-68 {
        fill: #f7b851;
      }

      .cls-69 {
        fill: #fec85f;
      }

      .cls-70 {
        fill: #f3ae48;
      }

      .cls-71 {
        fill: #ffca61;
      }

      .cls-72 {
        fill: #e08321;
      }

      .cls-73 {
        fill: #e58d2a;
      }

      .cls-74 {
        fill: #e18422;
      }

      .cls-75 {
        fill: #e08220;
      }

      .cls-76 {
        fill: #de7e1d;
      }

      .cls-77 {
        fill: #efa640;
      }

      .cls-78 {
        fill: #de7f1e;
      }

      .cls-79 {
        fill: #e6912e;
      }

      .cls-80 {
        fill: #423b49;
      }

      .cls-81 {
        fill: #eb9c38;
      }

      .cls-82 {
        fill: #ea9a36;
      }

      .cls-83 {
        fill: #df8120;
      }

      .cls-84 {
        fill: #fcc35b;
      }

      .cls-85 {
        clip-path: url(#clippath);
      }

      .cls-86 {
        fill: #f0a741;
      }

      .cls-87 {
        fill: #fdc65d;
      }

      .cls-88 {
        fill: #e18523;
      }

      .cls-89 {
        fill: #f5b44d;
      }
    </style>
    <clipPath id="clippath">
      <path class="cls-1" d="M147.17,279.06c-7.74,4.43-24.3,4.06-32-.03-1.1-.59-1.73-1.2-1.73-2v-40.07c11.78-3.33,23.57-3.33,35.35,0v40.14c0,.77-.59,1.36-1.62,1.95Z"/>
    </clipPath>
    <clipPath id="clippath-1">
      <path class="cls-1" d="M115.67,283.72c-7.74,4.19-24.3,3.56-32-.05-1.2-.56-1.73-2.01-1.73-3.34v-66.93c11.78-5.56,23.57-5.56,35.35,0v67.05c0,1.28-.5,2.65-1.62,3.26Z"/>
    </clipPath>
  </defs>
  <g>
    <path class="cls-43" d="M215.05,276.79c-35.22,0-71.42-2.58-107.58-7.66-.07,0-.14-.03-.2-.05-13.37-4.83-23.03-14.49-30.4-30.43-2.48-5.35-3.55-11.32-3.12-17.27.93-12.67,4.41-25.14,10.34-37.05,2.81-5.65,7.96-9.73,14.11-11.19,28.67-6.83,70.06-10.59,116.53-10.59,39.35,0,79.95,2.71,111.38,7.44,23.55,3.54,52.27,9.73,55.31,19.12,4.23,13.09,3.24,39.83-4.39,54.69-.02.04-.05.09-.08.13-8.42,11.75-15.9,18.06-22.89,19.29-45.37,9-92.15,13.57-139,13.57h-.01Z"/>
    <path class="cls-67" d="M214.74,163.56c80.38,0,160.98,11.18,165.73,25.86,4.33,13.38,2.95,39.75-4.33,53.92-8.02,11.2-15.46,17.69-22.25,18.89-44.82,8.89-91.05,13.55-138.84,13.55-34.96,0-70.76-2.49-107.44-7.65-14.61-5.27-23.53-16.28-29.83-29.91-2.42-5.23-3.45-11.02-3.03-16.77.96-13.13,4.57-25.29,10.24-36.68,2.68-5.38,7.61-9.27,13.45-10.67,31.17-7.42,73.7-10.56,116.3-10.56M214.74,161.56c-46.55,0-88.01,3.77-116.76,10.61-6.45,1.53-11.83,5.81-14.78,11.72-5.99,12.03-9.5,24.62-10.44,37.42-.45,6.11.66,12.25,3.21,17.76,7.49,16.19,17.33,26.03,30.97,30.95.13.05.26.08.4.1,36.21,5.09,72.45,7.67,107.72,7.67,46.93,0,93.78-4.57,139.23-13.59,7.21-1.27,14.91-7.72,23.48-19.69.06-.08.11-.16.15-.25,7.74-15.07,8.75-42.18,4.45-55.45-2.56-7.92-21.44-14.58-56.11-19.8-31.48-4.73-72.13-7.45-111.53-7.45h0Z"/>
  </g>
  <path class="cls-80" d="M162.9,24.15c19.21-3.88,35.95-2.65,49.32,5.59,7.11,4.38,11.77,11.79,12.87,20.06,3.65,27.31,9.67,48.06,17.24,64.53.08.18.21.33.37.45,13.6,9.96,29.96,15.49,47.99,18.34.18.03.37.01.54-.04,24.67-7.76,43.52-20.92,60.79-35.57.82-.69,2.06.02,1.86,1.07-8.19,42.85-32.43,82.93-54.06,108.88-.12.15-.28.26-.46.33l-79.81,31.2c-.29.11-.61.1-.89-.03l-80.01-37.34c-.26-.12-.46-.33-.57-.59-8.66-20.31-6.86-47.22.17-77.42,0-.02.01-.04.02-.06,2.37-7.64,2.22-15.75.21-24.21-.13-.53-.62-.9-1.17-.87-20.77.79-36.47-3.73-59.08-8.91-1.2-.27-1.17-1.98.03-2.22,29.44-5.89,38.5-11.52,57.82-20.92.81-.39.86-1.54.09-2-19.53-11.66-33.06-20.73-60.82-28.2-1.16-.31-1.1-1.99.08-2.21,30.07-5.82,59.44-9.8,87.27-9.83.07,0,.14,0,.21-.02Z"/>
  <circle class="cls-45" cx="189.01" cy="63.85" r="27.71"/>
  <circle class="cls-34" cx="191.01" cy="62.85" r="22.97"/>
  <path class="cls-26" d="M249.13,218.7c-15.85,0-50.4-6.19-68.47-26.69-9.83-11.15-13.5-24.87-10.91-40.8.13-.82.91-1.37,1.72-1.24.82.13,1.37.9,1.24,1.72-2.44,14.99,1,27.89,10.2,38.33,18.11,20.55,53.62,26.15,67.99,25.64,11.55-.41,18.67-3.44,19.51-8.32.99-5.73-7.04-15.5-27-23.41-.76-.3-1.14-1.15-.85-1.92.28-.76,1.13-1.16,1.9-.9,17.15,5.93,38.49,13.31,41.12,6.18.29-.78,1.15-1.17,1.93-.89.78.29,1.17,1.15.89,1.93-2.59,7.01-13.42,5.56-27.07,1.51,8.54,5.89,13.03,12.33,12.05,18.01-.65,3.76-4.42,10.17-22.36,10.8-.59.02-1.22.03-1.88.03Z"/>
  <g>
    <path class="cls-65" d="M97.85,44.66h0s0,0,0,0c-1.35-.91-2.8-1.67-4.34-2.27l-3.13-1.64-.34.6c-1.49-.32-3.04-.49-4.62-.49-12.26,0-22.19,9.94-22.19,22.19,0,5.83,2.25,11.14,5.94,15.1l-.74,1.31,7.07,3.44c.18.09.35.17.53.26l.08.04h0c2.83,1.31,5.99,2.05,9.32,2.05,12.26,0,22.19-9.94,22.19-22.19,0-7.65-3.87-14.4-9.77-18.39Z"/>
    <g>
      <circle class="cls-71" cx="81.94" cy="61.34" r="22.19"/>
      <path class="cls-65" d="M81.94,84.03c-12.51,0-22.69-10.18-22.69-22.69s10.18-22.69,22.69-22.69,22.69,10.18,22.69,22.69-10.18,22.69-22.69,22.69ZM81.94,39.64c-11.96,0-21.69,9.73-21.69,21.69s9.73,21.69,21.69,21.69,21.69-9.73,21.69-21.69-9.73-21.69-21.69-21.69Z"/>
    </g>
    <path class="cls-65" d="M79.39,52.47l.02-.81c.02-.76.24-1.33.66-1.7.42-.37,1-.56,1.73-.56.78,0,1.37.14,1.78.41.41.27.61.81.61,1.62v1.04c1.46.29,2.65.79,3.58,1.5.93.71,1.4,1.43,1.4,2.16,0,.25-.05.47-.16.65-.11.18-.25.3-.41.38-.16.08-.33.11-.52.11-.3,0-.76-.16-1.37-.47-.61-.31-1.29-.63-2.03-.94-.74-.31-1.43-.47-2.06-.47-1,0-1.5.41-1.5,1.22,0,.25.08.5.24.72s.42.47.77.71c.36.25.7.46,1.04.65s.8.44,1.4.75c.59.31,1.09.59,1.5.82,1.3.75,2.22,1.46,2.74,2.13s.79,1.46.79,2.33c0,3.01-1.77,4.73-5.3,5.15v.84c0,.98-.2,1.65-.58,2.02-.39.36-1.01.55-1.85.55s-1.41-.18-1.79-.53-.57-.96-.57-1.83v-1.29c-1.02-.25-1.93-.61-2.74-1.07-.81-.46-1.43-.93-1.84-1.43-.42-.5-.62-.97-.62-1.41,0-.37.12-.69.37-.95.24-.26.61-.39,1.08-.39.36,0,1.21.22,2.56.67,1.35.45,2.44.67,3.27.67.76,0,1.14-.26,1.14-.79,0-.15-.03-.29-.09-.42-.06-.13-.16-.25-.3-.38s-.3-.24-.48-.36c-.18-.11-.42-.25-.74-.42l-.94-.51c-.31-.17-.72-.39-1.23-.66-.51-.27-1-.54-1.47-.81-.91-.52-1.62-1.2-2.13-2.02-.51-.82-.76-1.59-.76-2.3,0-1.13.41-2.11,1.24-2.93.83-.82,2.02-1.37,3.58-1.66Z"/>
  </g>
  <polygon class="cls-43" points="326.48 191.43 266.15 202.24 203.58 235.21 232.34 242.98 290.62 233.27 328.72 219.07 326.48 191.43"/>
  <polygon class="cls-43" points="149.42 211.73 189.01 236.75 216.72 244.97 225.06 223.89 173.92 205.1 142.69 199.4 131.12 199.4 149.42 211.73"/>
  <g>
    <path class="cls-43" d="M96.75,193.42c45.31-5.89,86.15,6.48,124.39,29.51"/>
    <path class="cls-67" d="M221.14,223.93c-.18,0-.35-.05-.52-.14-41.78-25.16-82.25-34.77-123.74-29.37-.54.07-1.05-.32-1.12-.86s.31-1.05.86-1.12c41.95-5.46,82.85,4.24,125.03,29.65.47.28.63.9.34,1.37-.19.31-.52.48-.86.48Z"/>
  </g>
  <g>
    <path class="cls-43" d="M353.89,184.33c-58.04,4.48-108.77,21.09-152.18,49.81"/>
    <path class="cls-67" d="M201.72,235.14c-.32,0-.64-.16-.83-.45-.3-.46-.18-1.08.28-1.39,43.35-28.68,94.71-45.49,152.65-49.97.56-.04,1.03.37,1.07.92s-.37,1.03-.92,1.07c-57.6,4.45-108.64,21.15-151.7,49.65-.17.11-.36.17-.55.17Z"/>
  </g>
  <g>
    <path class="cls-45" d="M52.4,75.44c-.71,0-1.34-.51-1.47-1.23-1.89-10.49-10.98-18.1-21.61-18.1-1.31,0-2.63.12-3.92.35-.09.02-.18.02-.27.02-.71,0-1.34-.51-1.47-1.23-.15-.82.4-1.6,1.21-1.74,5.78-1.04,10.81-4.27,14.16-9.09s4.62-10.66,3.58-16.44c-.15-.82.4-1.6,1.21-1.74.09-.02.18-.02.27-.02.71,0,1.34.51,1.47,1.23,1.89,10.49,10.98,18.1,21.61,18.1,1.31,0,2.62-.12,3.92-.35.09-.02.18-.02.27-.02.71,0,1.34.51,1.47,1.23.15.82-.4,1.6-1.21,1.74-11.93,2.15-19.89,13.6-17.75,25.54.15.82-.4,1.6-1.21,1.74-.09.02-.18.02-.27.02Z"/>
    <path class="cls-31" d="M44.09,27.7c2.04,11.36,11.94,19.33,23.09,19.33,1.38,0,2.78-.12,4.19-.38h0c-12.77,2.3-21.26,14.51-18.96,27.28h0c-2.04-11.36-11.94-19.33-23.09-19.33-1.38,0-2.78.12-4.19.38h0c12.77-2.3,21.26-14.51,18.96-27.28M44.09,24.7c-.18,0-.36.02-.53.05-1.63.29-2.71,1.85-2.42,3.48,2,11.12-5.42,21.79-16.54,23.79-1.63.29-2.71,1.85-2.42,3.48.26,1.45,1.52,2.47,2.95,2.47.18,0,.36-.02.53-.05,1.21-.22,2.44-.33,3.65-.33,9.91,0,18.38,7.09,20.14,16.86.26,1.45,1.53,2.47,2.95,2.47.18,0,.36-.02.53-.05,1.63-.29,2.71-1.85,2.42-3.48-2-11.12,5.42-21.79,16.54-23.79,1.63-.29,2.71-1.85,2.42-3.48-.26-1.45-1.52-2.47-2.95-2.47-.18,0-.36.02-.53.05-1.21.22-2.44.33-3.66.33-9.91,0-18.38-7.09-20.14-16.86-.26-1.45-1.53-2.47-2.95-2.47h0Z"/>
  </g>
  <g>
    <g>
      <g class="cls-85">
        <rect class="cls-71" x="113.44" y="233.64" width="35.35" height="5.63"/>
        <rect class="cls-71" x="113.44" y="239.27" width="35.35" height=".55"/>
        <rect class="cls-37" x="113.44" y="239.82" width="35.35" height=".55"/>
        <rect class="cls-69" x="113.44" y="240.37" width="35.35" height=".55"/>
        <rect class="cls-57" x="113.44" y="240.93" width="35.35" height=".55"/>
        <rect class="cls-87" x="113.44" y="241.48" width="35.35" height=".55"/>
        <rect class="cls-33" x="113.44" y="242.03" width="35.35" height=".55"/>
        <rect class="cls-13" x="113.44" y="242.58" width="35.35" height=".55"/>
        <rect class="cls-84" x="113.44" y="243.13" width="35.35" height=".55"/>
        <rect class="cls-8" x="113.44" y="243.68" width="35.35" height=".55"/>
        <rect class="cls-63" x="113.44" y="244.23" width="35.35" height=".55"/>
        <rect class="cls-42" x="113.44" y="244.78" width="35.35" height=".55"/>
        <rect class="cls-52" x="113.44" y="245.33" width="35.35" height=".55"/>
        <rect class="cls-7" x="113.44" y="245.88" width="35.35" height=".55"/>
        <rect class="cls-20" x="113.44" y="246.43" width="35.35" height=".55"/>
        <rect class="cls-30" x="113.44" y="246.99" width="35.35" height=".55"/>
        <rect class="cls-53" x="113.44" y="247.54" width="35.35" height=".55"/>
        <rect class="cls-66" x="113.44" y="248.09" width="35.35" height=".55"/>
        <rect class="cls-44" x="113.44" y="248.64" width="35.35" height=".55"/>
        <rect class="cls-68" x="113.44" y="249.19" width="35.35" height=".55"/>
        <rect class="cls-19" x="113.44" y="249.74" width="35.35" height=".55"/>
        <rect class="cls-25" x="113.44" y="250.29" width="35.35" height=".55"/>
        <rect class="cls-6" x="113.44" y="250.84" width="35.35" height=".55"/>
        <rect class="cls-89" x="113.44" y="251.39" width="35.35" height=".55"/>
        <rect class="cls-17" x="113.44" y="251.94" width="35.35" height=".55"/>
        <rect class="cls-35" x="113.44" y="252.5" width="35.35" height=".55"/>
        <rect class="cls-41" x="113.44" y="253.05" width="35.35" height=".55"/>
        <rect class="cls-22" x="113.44" y="253.6" width="35.35" height=".55"/>
        <rect class="cls-47" x="113.44" y="254.15" width="35.35" height=".55"/>
        <rect class="cls-70" x="113.44" y="254.7" width="35.35" height=".55"/>
        <rect class="cls-56" x="113.44" y="255.25" width="35.35" height=".55"/>
        <rect class="cls-46" x="113.44" y="255.8" width="35.35" height=".55"/>
        <rect class="cls-38" x="113.44" y="256.35" width="35.35" height=".55"/>
        <rect class="cls-61" x="113.44" y="256.9" width="35.35" height=".55"/>
        <rect class="cls-50" x="113.44" y="257.45" width="35.35" height=".55"/>
        <rect class="cls-12" x="113.44" y="258" width="35.35" height=".55"/>
        <rect class="cls-86" x="113.44" y="258.56" width="35.35" height=".55"/>
        <rect class="cls-77" x="113.44" y="259.11" width="35.35" height=".55"/>
        <rect class="cls-62" x="113.44" y="259.66" width="35.35" height=".55"/>
        <rect class="cls-28" x="113.44" y="260.21" width="35.35" height=".55"/>
        <rect class="cls-10" x="113.44" y="260.76" width="35.35" height=".55"/>
        <rect class="cls-4" x="113.44" y="261.31" width="35.35" height=".55"/>
        <rect class="cls-51" x="113.44" y="261.86" width="35.35" height=".55"/>
        <rect class="cls-21" x="113.44" y="262.41" width="35.35" height=".55"/>
        <rect class="cls-15" x="113.44" y="262.96" width="35.35" height=".55"/>
        <rect class="cls-29" x="113.44" y="263.51" width="35.35" height=".55"/>
        <rect class="cls-81" x="113.44" y="264.06" width="35.35" height=".55"/>
        <rect class="cls-18" x="113.44" y="264.62" width="35.35" height=".55"/>
        <rect class="cls-82" x="113.44" y="265.17" width="35.35" height=".55"/>
        <rect class="cls-3" x="113.44" y="265.72" width="35.35" height=".55"/>
        <rect class="cls-64" x="113.44" y="266.27" width="35.35" height=".55"/>
        <rect class="cls-40" x="113.44" y="266.82" width="35.35" height=".55"/>
        <rect class="cls-23" x="113.44" y="267.37" width="35.35" height=".55"/>
        <rect class="cls-24" x="113.44" y="267.92" width="35.35" height=".55"/>
        <rect class="cls-59" x="113.44" y="268.47" width="35.35" height=".55"/>
        <rect class="cls-55" x="113.44" y="269.02" width="35.35" height=".55"/>
        <rect class="cls-16" x="113.44" y="269.57" width="35.35" height=".55"/>
        <rect class="cls-79" x="113.44" y="270.12" width="35.35" height=".55"/>
        <rect class="cls-49" x="113.44" y="270.68" width="35.35" height=".55"/>
        <rect class="cls-27" x="113.44" y="271.23" width="35.35" height=".55"/>
        <rect class="cls-32" x="113.44" y="271.78" width="35.35" height=".55"/>
        <rect class="cls-73" x="113.44" y="272.33" width="35.35" height=".55"/>
        <rect class="cls-54" x="113.44" y="272.88" width="35.35" height=".55"/>
        <rect class="cls-11" x="113.44" y="273.43" width="35.35" height=".55"/>
        <rect class="cls-9" x="113.44" y="273.98" width="35.35" height=".55"/>
        <rect class="cls-14" x="113.44" y="274.53" width="35.35" height=".55"/>
        <rect class="cls-2" x="113.44" y="275.08" width="35.35" height=".55"/>
        <rect class="cls-36" x="113.44" y="275.63" width="35.35" height=".55"/>
        <rect class="cls-58" x="113.44" y="276.19" width="35.35" height=".55"/>
        <rect class="cls-88" x="113.44" y="276.74" width="35.35" height=".55"/>
        <rect class="cls-74" x="113.44" y="277.29" width="35.35" height=".55"/>
        <rect class="cls-72" x="113.44" y="277.84" width="35.35" height=".55"/>
        <rect class="cls-75" x="113.44" y="278.39" width="35.35" height=".55"/>
        <rect class="cls-83" x="113.44" y="278.94" width="35.35" height=".55"/>
        <rect class="cls-48" x="113.44" y="279.49" width="35.35" height=".55"/>
        <rect class="cls-78" x="113.44" y="280.04" width="35.35" height=".55"/>
        <rect class="cls-76" x="113.44" y="280.59" width="35.35" height=".55"/>
        <rect class="cls-5" x="113.44" y="281.14" width="35.35" height=".55"/>
        <rect class="cls-65" x="113.44" y="281.69" width="35.35" height=".55"/>
        <rect class="cls-65" x="113.44" y="282.25" width="35.35" height="1.25"/>
      </g>
      <path class="cls-65" d="M131.44,282.75c-6.16,0-12.4-1.09-16.5-3.27-.86-.46-1.99-1.2-1.99-2.44v-40.45l.36-.1c11.82-3.34,23.8-3.34,35.62,0l.36.1v40.52c0,1.16-1,1.89-1.87,2.39h0c-3.79,2.17-9.84,3.25-15.98,3.25ZM113.94,237.35v39.69c0,.33.15.86,1.46,1.56,7.8,4.15,24.3,4.17,31.52.04h0c1.21-.69,1.37-1.18,1.37-1.52v-39.76c-11.4-3.15-22.95-3.15-34.35,0Z"/>
    </g>
    <g>
      <ellipse class="cls-71" cx="131.12" cy="236.98" rx="17.67" ry="5.02"/>
      <path class="cls-65" d="M131.12,242.5c-8.81,0-18.17-1.94-18.17-5.52s9.36-5.52,18.17-5.52,18.17,1.94,18.17,5.52-9.36,5.52-18.17,5.52ZM131.12,232.46c-10.12,0-17.17,2.38-17.17,4.52s7.05,4.52,17.17,4.52,17.17-2.38,17.17-4.52-7.05-4.52-17.17-4.52Z"/>
    </g>
    <path class="cls-65" d="M131.12,248.36c-8.81,0-18.17-1.94-18.17-5.52,0-.28.22-.5.5-.5s.5.22.5.5c0,2.14,7.05,4.52,17.17,4.52s17.17-2.38,17.17-4.52c0-.28.22-.5.5-.5s.5.22.5.5c0,3.59-9.36,5.52-18.17,5.52Z"/>
    <path class="cls-65" d="M131.12,255.46c-8.81,0-18.17-1.94-18.17-5.52,0-.28.22-.5.5-.5s.5.22.5.5c0,2.14,7.05,4.52,17.17,4.52s17.17-2.38,17.17-4.52c0-.28.22-.5.5-.5s.5.22.5.5c0,3.59-9.36,5.52-18.17,5.52Z"/>
    <path class="cls-65" d="M131.12,262.56c-8.81,0-18.17-1.94-18.17-5.52,0-.28.22-.5.5-.5s.5.22.5.5c0,2.14,7.05,4.52,17.17,4.52s17.17-2.38,17.17-4.52c0-.28.22-.5.5-.5s.5.22.5.5c0,3.59-9.36,5.52-18.17,5.52Z"/>
    <path class="cls-65" d="M131.12,269.65c-8.81,0-18.17-1.94-18.17-5.52,0-.28.22-.5.5-.5s.5.22.5.5c0,2.14,7.05,4.52,17.17,4.52s17.17-2.38,17.17-4.52c0-.28.22-.5.5-.5s.5.22.5.5c0,3.59-9.36,5.52-18.17,5.52Z"/>
    <path class="cls-65" d="M131.12,276.75c-8.81,0-18.17-1.94-18.17-5.52,0-.28.22-.5.5-.5s.5.22.5.5c0,2.14,7.05,4.52,17.17,4.52s17.17-2.38,17.17-4.52c0-.28.22-.5.5-.5s.5.22.5.5c0,3.59-9.36,5.52-18.17,5.52Z"/>
  </g>
  <g>
    <g>
      <path class="cls-60" d="M34,279.94l-.14-5.18,35.34-.95.14,5.31c.03,1-.47,1.95-1.32,2.47-6.86,4.16-24.93,4.33-32.4.84-.96-.45-1.58-1.41-1.61-2.47Z"/>
      <path class="cls-65" d="M50.96,285.39c-6.09,0-12.06-.89-15.55-2.52-1.14-.53-1.87-1.65-1.9-2.91l-.15-5.69,36.34-.98.16,5.81c.03,1.19-.57,2.31-1.57,2.91-3.82,2.32-10.64,3.38-17.32,3.38ZM34.5,279.92c.02.88.53,1.66,1.32,2.04,7.58,3.55,25.49,3.09,31.93-.81.69-.42,1.11-1.2,1.08-2.03l-.13-4.81-34.34.92.13,4.69Z"/>
    </g>
    <g>
      <ellipse class="cls-71" cx="51.53" cy="274.28" rx="17.67" ry="5.02" transform="translate(-7.37 1.49) rotate(-1.54)"/>
      <path class="cls-65" d="M50.04,279.82c-8.3,0-16.59-1.69-16.68-5.05-.1-3.58,9.21-5.77,18.02-6.01,8.82-.23,18.22,1.45,18.32,5.03.1,3.58-9.21,5.77-18.02,6.01-.54.01-1.09.02-1.64.02ZM53.11,269.73c-.56,0-1.12,0-1.7.02-10.12.27-17.1,2.84-17.05,4.98.06,2.14,7.18,4.33,17.29,4.06,10.12-.27,17.1-2.84,17.05-4.98-.05-2.02-6.39-4.08-15.59-4.08Z"/>
    </g>
  </g>
  <g>
    <g>
      <g class="cls-39">
        <rect class="cls-71" x="81.94" y="207.85" width="35.35" height="9.17"/>
        <rect class="cls-71" x="81.94" y="217.02" width="35.35" height=".89"/>
        <rect class="cls-37" x="81.94" y="217.91" width="35.35" height=".89"/>
        <rect class="cls-69" x="81.94" y="218.8" width="35.35" height=".89"/>
        <rect class="cls-57" x="81.94" y="219.69" width="35.35" height=".89"/>
        <rect class="cls-87" x="81.94" y="220.59" width="35.35" height=".89"/>
        <rect class="cls-33" x="81.94" y="221.48" width="35.35" height=".89"/>
        <rect class="cls-13" x="81.94" y="222.37" width="35.35" height=".89"/>
        <rect class="cls-84" x="81.94" y="223.26" width="35.35" height=".89"/>
        <rect class="cls-8" x="81.94" y="224.15" width="35.35" height=".89"/>
        <rect class="cls-63" x="81.94" y="225.05" width="35.35" height=".89"/>
        <rect class="cls-42" x="81.94" y="225.94" width="35.35" height=".89"/>
        <rect class="cls-52" x="81.94" y="226.83" width="35.35" height=".89"/>
        <rect class="cls-7" x="81.94" y="227.72" width="35.35" height=".89"/>
        <rect class="cls-20" x="81.94" y="228.62" width="35.35" height=".89"/>
        <rect class="cls-30" x="81.94" y="229.51" width="35.35" height=".89"/>
        <rect class="cls-53" x="81.94" y="230.4" width="35.35" height=".89"/>
        <rect class="cls-66" x="81.94" y="231.29" width="35.35" height=".89"/>
        <rect class="cls-44" x="81.94" y="232.19" width="35.35" height=".89"/>
        <rect class="cls-68" x="81.94" y="233.08" width="35.35" height=".89"/>
        <rect class="cls-19" x="81.94" y="233.97" width="35.35" height=".89"/>
        <rect class="cls-25" x="81.94" y="234.86" width="35.35" height=".89"/>
        <rect class="cls-6" x="81.94" y="235.76" width="35.35" height=".89"/>
        <rect class="cls-89" x="81.94" y="236.65" width="35.35" height=".89"/>
        <rect class="cls-17" x="81.94" y="237.54" width="35.35" height=".89"/>
        <rect class="cls-35" x="81.94" y="238.43" width="35.35" height=".89"/>
        <rect class="cls-41" x="81.94" y="239.33" width="35.35" height=".89"/>
        <rect class="cls-22" x="81.94" y="240.22" width="35.35" height=".89"/>
        <rect class="cls-47" x="81.94" y="241.11" width="35.35" height=".89"/>
        <rect class="cls-70" x="81.94" y="242" width="35.35" height=".89"/>
        <rect class="cls-56" x="81.94" y="242.9" width="35.35" height=".89"/>
        <rect class="cls-46" x="81.94" y="243.79" width="35.35" height=".89"/>
        <rect class="cls-38" x="81.94" y="244.68" width="35.35" height=".89"/>
        <rect class="cls-61" x="81.94" y="245.57" width="35.35" height=".89"/>
        <rect class="cls-50" x="81.94" y="246.47" width="35.35" height=".89"/>
        <rect class="cls-12" x="81.94" y="247.36" width="35.35" height=".89"/>
        <rect class="cls-86" x="81.94" y="248.25" width="35.35" height=".89"/>
        <rect class="cls-77" x="81.94" y="249.14" width="35.35" height=".89"/>
        <rect class="cls-62" x="81.94" y="250.04" width="35.35" height=".89"/>
        <rect class="cls-28" x="81.94" y="250.93" width="35.35" height=".89"/>
        <rect class="cls-10" x="81.94" y="251.82" width="35.35" height=".89"/>
        <rect class="cls-4" x="81.94" y="252.71" width="35.35" height=".89"/>
        <rect class="cls-51" x="81.94" y="253.61" width="35.35" height=".89"/>
        <rect class="cls-21" x="81.94" y="254.5" width="35.35" height=".89"/>
        <rect class="cls-15" x="81.94" y="255.39" width="35.35" height=".89"/>
        <rect class="cls-29" x="81.94" y="256.28" width="35.35" height=".89"/>
        <rect class="cls-81" x="81.94" y="257.18" width="35.35" height=".89"/>
        <rect class="cls-18" x="81.94" y="258.07" width="35.35" height=".89"/>
        <rect class="cls-82" x="81.94" y="258.96" width="35.35" height=".89"/>
        <rect class="cls-3" x="81.94" y="259.85" width="35.35" height=".89"/>
        <rect class="cls-64" x="81.94" y="260.75" width="35.35" height=".89"/>
        <rect class="cls-40" x="81.94" y="261.64" width="35.35" height=".89"/>
        <rect class="cls-23" x="81.94" y="262.53" width="35.35" height=".89"/>
        <rect class="cls-24" x="81.94" y="263.42" width="35.35" height=".89"/>
        <rect class="cls-59" x="81.94" y="264.32" width="35.35" height=".89"/>
        <rect class="cls-55" x="81.94" y="265.21" width="35.35" height=".89"/>
        <rect class="cls-16" x="81.94" y="266.1" width="35.35" height=".89"/>
        <rect class="cls-79" x="81.94" y="266.99" width="35.35" height=".89"/>
        <rect class="cls-49" x="81.94" y="267.89" width="35.35" height=".89"/>
        <rect class="cls-27" x="81.94" y="268.78" width="35.35" height=".89"/>
        <rect class="cls-32" x="81.94" y="269.67" width="35.35" height=".89"/>
        <rect class="cls-73" x="81.94" y="270.56" width="35.35" height=".89"/>
        <rect class="cls-54" x="81.94" y="271.46" width="35.35" height=".89"/>
        <rect class="cls-11" x="81.94" y="272.35" width="35.35" height=".89"/>
        <rect class="cls-9" x="81.94" y="273.24" width="35.35" height=".89"/>
        <rect class="cls-14" x="81.94" y="274.13" width="35.35" height=".89"/>
        <rect class="cls-2" x="81.94" y="275.03" width="35.35" height=".89"/>
        <rect class="cls-36" x="81.94" y="275.92" width="35.35" height=".89"/>
        <rect class="cls-58" x="81.94" y="276.81" width="35.35" height=".89"/>
        <rect class="cls-88" x="81.94" y="277.7" width="35.35" height=".89"/>
        <rect class="cls-74" x="81.94" y="278.6" width="35.35" height=".89"/>
        <rect class="cls-72" x="81.94" y="279.49" width="35.35" height=".89"/>
        <rect class="cls-75" x="81.94" y="280.38" width="35.35" height=".89"/>
        <rect class="cls-83" x="81.94" y="281.27" width="35.35" height=".89"/>
        <rect class="cls-48" x="81.94" y="282.17" width="35.35" height=".89"/>
        <rect class="cls-78" x="81.94" y="283.06" width="35.35" height=".89"/>
        <rect class="cls-76" x="81.94" y="283.95" width="35.35" height=".89"/>
        <rect class="cls-5" x="81.94" y="284.84" width="35.35" height=".89"/>
        <rect class="cls-65" x="81.94" y="285.74" width="35.35" height=".89"/>
        <rect class="cls-65" x="81.94" y="286.63" width="35.35" height="1.29"/>
      </g>
      <path class="cls-65" d="M100.48,287.12c-6.46,0-13-1.1-17.02-2.99-1.49-.7-2.02-2.42-2.02-3.79v-67.24l.29-.14c11.87-5.6,23.91-5.6,35.78,0l.29.14v67.37c0,1.3-.49,2.95-1.88,3.7-3.78,2.05-9.57,2.96-15.43,2.96ZM82.44,213.73v66.61c0,1.02.38,2.39,1.44,2.88,7.48,3.51,23.83,4.24,31.55.06h0c1-.54,1.36-1.81,1.36-2.82v-66.73c-11.4-5.29-22.95-5.29-34.35,0Z"/>
    </g>
    <g>
      <ellipse class="cls-71" cx="99.62" cy="213.18" rx="17.67" ry="5.02"/>
      <path class="cls-65" d="M99.62,218.7c-8.81,0-18.17-1.94-18.17-5.52s9.36-5.52,18.17-5.52,18.17,1.94,18.17,5.52-9.36,5.52-18.17,5.52ZM99.62,208.66c-10.12,0-17.17,2.38-17.17,4.52s7.05,4.52,17.17,4.52,17.17-2.38,17.17-4.52-7.05-4.52-17.17-4.52Z"/>
    </g>
    <path class="cls-65" d="M99.62,225.8c-8.81,0-18.17-1.94-18.17-5.52,0-.28.22-.5.5-.5s.5.22.5.5c0,2.14,7.05,4.52,17.17,4.52s17.17-2.38,17.17-4.52c0-.28.22-.5.5-.5s.5.22.5.5c0,3.59-9.36,5.52-18.17,5.52Z"/>
    <path class="cls-65" d="M99.62,232.9c-8.81,0-18.17-1.94-18.17-5.52,0-.28.22-.5.5-.5s.5.22.5.5c0,2.14,7.05,4.52,17.17,4.52s17.17-2.38,17.17-4.52c0-.28.22-.5.5-.5s.5.22.5.5c0,3.59-9.36,5.52-18.17,5.52Z"/>
    <path class="cls-65" d="M99.62,239.99c-8.81,0-18.17-1.94-18.17-5.52,0-.28.22-.5.5-.5s.5.22.5.5c0,2.14,7.05,4.52,17.17,4.52s17.17-2.38,17.17-4.52c0-.28.22-.5.5-.5s.5.22.5.5c0,3.59-9.36,5.52-18.17,5.52Z"/>
    <path class="cls-65" d="M99.62,247.09c-8.81,0-18.17-1.94-18.17-5.52,0-.28.22-.5.5-.5s.5.22.5.5c0,2.14,7.05,4.52,17.17,4.52s17.17-2.38,17.17-4.52c0-.28.22-.5.5-.5s.5.22.5.5c0,3.59-9.36,5.52-18.17,5.52Z"/>
    <path class="cls-65" d="M99.62,254.19c-8.81,0-18.17-1.94-18.17-5.52,0-.28.22-.5.5-.5s.5.22.5.5c0,2.14,7.05,4.52,17.17,4.52s17.17-2.38,17.17-4.52c0-.28.22-.5.5-.5s.5.22.5.5c0,3.59-9.36,5.52-18.17,5.52Z"/>
    <path class="cls-65" d="M99.62,261.28c-8.81,0-18.17-1.94-18.17-5.52,0-.28.22-.5.5-.5s.5.22.5.5c0,2.14,7.05,4.52,17.17,4.52s17.17-2.38,17.17-4.52c0-.28.22-.5.5-.5s.5.22.5.5c0,3.59-9.36,5.52-18.17,5.52Z"/>
    <path class="cls-65" d="M99.62,268.38c-8.81,0-18.17-1.94-18.17-5.52,0-.28.22-.5.5-.5s.5.22.5.5c0,2.14,7.05,4.52,17.17,4.52s17.17-2.38,17.17-4.52c0-.28.22-.5.5-.5s.5.22.5.5c0,3.59-9.36,5.52-18.17,5.52Z"/>
    <path class="cls-65" d="M99.62,275.48c-8.81,0-18.17-1.94-18.17-5.52,0-.28.22-.5.5-.5s.5.22.5.5c0,2.14,7.05,4.52,17.17,4.52s17.17-2.38,17.17-4.52c0-.28.22-.5.5-.5s.5.22.5.5c0,3.59-9.36,5.52-18.17,5.52Z"/>
    <path class="cls-65" d="M99.62,282.58c-8.81,0-18.17-1.94-18.17-5.52,0-.28.22-.5.5-.5s.5.22.5.5c0,2.14,7.05,4.52,17.17,4.52s17.17-2.38,17.17-4.52c0-.28.22-.5.5-.5s.5.22.5.5c0,3.59-9.36,5.52-18.17,5.52Z"/>
  </g>
  <g>
    <g>
      <path class="cls-60" d="M62.2,284.73l-3.55-3.78,25.79-24.17,3.63,3.87c.68.73.94,1.77.65,2.73-2.37,7.67-15.77,19.8-23.67,22.14-1.02.3-2.12,0-2.85-.78Z"/>
      <path class="cls-65" d="M64.25,286.12c-.9,0-1.77-.37-2.41-1.05l-3.89-4.15,26.52-24.86,3.97,4.24c.81.87,1.11,2.1.76,3.22-2.52,8.16-16.25,20.17-24.01,22.47-.31.09-.63.14-.94.14ZM59.36,280.96l3.21,3.42c.61.65,1.5.89,2.34.64,8.03-2.38,21.11-14.61,23.34-21.81.24-.77.03-1.63-.54-2.24l-3.29-3.51-25.06,23.49Z"/>
    </g>
    <g>
      <ellipse class="cls-71" cx="71.55" cy="268.85" rx="17.67" ry="5.02" transform="translate(-164.51 121.63) rotate(-43.15)"/>
      <path class="cls-65" d="M60.22,282c-.81,0-1.47-.22-1.93-.71-2.45-2.62,3.06-10.43,9.48-16.46,3.48-3.26,7.11-5.94,10.24-7.55,3.35-1.73,5.7-2.02,6.8-.85,2.45,2.62-3.06,10.43-9.48,16.46-5.23,4.9-11.59,9.11-15.11,9.11ZM82.9,256.72c-1.04,0-2.59.49-4.43,1.44-3.04,1.57-6.6,4.2-10.01,7.39-7.38,6.92-10.9,13.48-9.44,15.04,1.46,1.56,8.24-1.52,15.62-8.45,7.38-6.92,10.9-13.48,9.44-15.04-.25-.26-.65-.39-1.18-.39Z"/>
    </g>
  </g>
</svg>