<?xml version="1.0" encoding="UTF-8"?>
<svg id="Layer_5" data-name="Layer 5" xmlns="http://www.w3.org/2000/svg" viewBox="0 0 322.93 355.04">
  <defs>
    <style>
      .cls-1 {
        fill: #838091;
      }

      .cls-2 {
        fill: #ffb743;
      }

      .cls-3 {
        fill: #1f1d21;
      }

      .cls-4 {
        fill: #a2a1db;
      }

      .cls-5 {
        fill: #fff;
      }

      .cls-6 {
        fill: #b7d66b;
      }

      .cls-7 {
        fill: #ea86b4;
      }

      .cls-8 {
        fill: #423b49;
      }
    </style>
  </defs>
  <path class="cls-3" d="M140.3,190.25c-37.25,37.82-51.4,69.87-35.86,94.51l35.86-94.51Z"/>
  <path class="cls-3" d="M154.69,322.15c-.36,0-.72-.1-1.04-.29l-11.49-7c-.82-.5-1.17-1.52-.83-2.42l7.84-20.73c.39-1.03,1.54-1.56,2.58-1.16,1.03.39,1.55,1.54,1.16,2.58l-7.26,19.18,9.22,5.62c4.09-1.59,8.8-3.03,13.46-2.57,1.1.11,1.9,1.09,1.79,2.19-.11,1.1-1.08,1.91-2.19,1.79-4.15-.42-8.65,1.12-12.5,2.67-.24.1-.49.14-.75.14Z"/>
  <path class="cls-3" d="M106.31,309.41c-.96,7.82-4.14,15.87-9.09,24.1-.51.85.39,1.84,1.28,1.42,17.49-8.31,33.94-21.79,50.02-37.1l-.37-5.98-41.84,17.56Z"/>
  <path class="cls-3" d="M179.43,319.16c-.36,0-.72-.1-1.04-.29l-11.49-7c-.82-.5-1.17-1.52-.83-2.42l7.84-20.73c.39-1.03,1.54-1.56,2.58-1.16,1.03.39,1.55,1.54,1.16,2.58l-7.26,19.18,9.22,5.62c4.09-1.59,8.8-3.03,13.46-2.57,1.1.11,1.9,1.09,1.79,2.19-.11,1.1-1.07,1.91-2.19,1.79-4.15-.42-8.65,1.12-12.5,2.67-.24.1-.49.14-.75.14Z"/>
  <path class="cls-8" d="M214.54,130.82c-15.26-.36-31.94,2.13-49.72,6.84-19.66,3.28-32.36,19.72-33.11,32.05-.78,12.94,4.82,23.19,4.82,23.19-14.12,25.83-25.14,55.63-35.03,86.89-6.58,12.39-19.54,28.06-34.5,44.77-1.33,1.48.11,3.78,2.02,3.23,28.95-8.21,54.15-17.31,73.56-27.8,67.52-4.37,101.14-51.25,68.65-103.43-.4-.64-.67-1.36-.8-2.11-1.41-8.11-4.45-16.7-8.85-25.7-.71-1.45-.92-3.08-.59-4.66,2.23-10.74,7.03-21.09,14.65-31.01.71-.92.05-2.24-1.11-2.27Z"/>
  <path class="cls-1" d="M157.86,298.95c-.16,0-.32-.02-.48-.08-.84-.28-5.06-1.84-5.57-4.93-.28-1.68.57-3.29,2.53-4.78,14.33-10.94,39.88-45.71,43.13-66.28.13-.82.89-1.38,1.72-1.25.82.13,1.38.9,1.25,1.72-3.35,21.22-29.58,56.98-44.28,68.2-.96.73-1.46,1.43-1.39,1.9.16.95,2.17,2.11,3.57,2.58.78.26,1.21,1.11.94,1.9-.21.63-.79,1.02-1.42,1.02Z"/>
  <circle class="cls-5" cx="167.95" cy="167.46" r="19.53"/>
  <circle class="cls-3" cx="169.53" cy="164.97" r="14.62"/>
  <g>
    <ellipse class="cls-5" cx="119.85" cy="149.34" rx="6.82" ry="5.05"/>
    <path class="cls-6" d="M119.85,155.89c-4.59,0-8.32-2.94-8.32-6.55s3.73-6.55,8.32-6.55,8.32,2.94,8.32,6.55-3.73,6.55-8.32,6.55ZM119.85,145.79c-2.88,0-5.32,1.63-5.32,3.55s2.43,3.55,5.32,3.55,5.32-1.62,5.32-3.55-2.43-3.55-5.32-3.55Z"/>
  </g>
  <g>
    <ellipse class="cls-5" cx="100.23" cy="132.26" rx="13.53" ry="8.94"/>
    <path class="cls-6" d="M100.23,142.7c-8.43,0-15.03-4.59-15.03-10.44s6.6-10.44,15.03-10.44,15.03,4.59,15.03,10.44-6.6,10.44-15.03,10.44ZM100.23,124.82c-6.52,0-12.03,3.41-12.03,7.44s5.51,7.44,12.03,7.44,12.03-3.41,12.03-7.44-5.51-7.44-12.03-7.44Z"/>
  </g>
  <g>
    <path class="cls-5" d="M254.05,90.15c15.94,4.39,32.72-.51,32.27-13.83,16.21-7.93,10.56-37.65-14.63-33.15-3.1-19.09-25.7-25.63-37.76-15.07-11.65-17.46-39.77-14.69-44.75,8.5-22.52,4.85-28.44,29.92-12.31,39.41-3.1,9.71,10.92,20.45,20.29,14.97,4.01,11.5,20.89,14,30.6,6.16,10.52,7.41,22.78,3.37,26.28-6.99Z"/>
    <path class="cls-4" d="M214.42,103.19c-2.19,0-4.39-.3-6.53-.91-5.3-1.52-9.41-4.84-11.5-9.25-4.75,1.94-10.62.84-15.43-3.01-4.59-3.68-6.75-8.69-5.81-13.32-6.73-4.43-9.94-11.81-8.63-19.96,1.66-10.29,10.02-18.61,21.41-21.4,2.56-10.37,9.97-17.66,19.99-19.57,10.02-1.91,20.17,2.05,26.31,10.15,6.13-4.56,14.58-5.66,22.48-2.82,8.34,3,14.3,9.8,16.19,18.36,8.63-1.07,19.33,1.71,23.04,13.08,3.33,10.18-1.46,18.93-8.11,22.67-.11,4.45-2.02,8.26-5.59,11.07-6.12,4.83-16.71,6.22-27.27,3.65-1.96,4.62-5.69,8.08-10.41,9.62-5.38,1.76-11.43.81-16.74-2.58-3.81,2.75-8.57,4.2-13.41,4.2ZM197.17,89.48c.17,0,.35.03.52.09.42.15.75.49.9.91,1.5,4.31,5.1,7.47,10.13,8.91,6.22,1.78,13.33.44,18.11-3.42.52-.42,1.26-.44,1.8-.06,4.75,3.34,10.22,4.37,15,2.8,4.24-1.39,7.52-4.68,8.99-9.04.25-.75,1.05-1.17,1.82-.97,10.1,2.78,20.28,1.69,25.94-2.77,3.08-2.43,4.57-5.64,4.44-9.56-.02-.59.31-1.14.84-1.4,7.8-3.82,9.64-12.69,7.42-19.49-2.18-6.67-8.88-13.02-21.13-10.84-.4.07-.8-.02-1.13-.25-.33-.23-.55-.59-.61-.98-1.33-8.15-6.75-14.68-14.52-17.47-7.44-2.68-15.4-1.42-20.77,3.29-.33.28-.75.42-1.19.36-.43-.06-.81-.3-1.05-.66-5.33-7.99-14.83-12-24.2-10.21-9.1,1.74-15.76,8.53-17.83,18.19-.12.58-.57,1.03-1.15,1.15-10.66,2.29-18.51,9.81-20.02,19.16-1.17,7.26,1.88,13.8,8.15,17.49.6.36.88,1.08.67,1.75-1.17,3.67.61,8.07,4.53,11.21,3.31,2.65,8.86,4.77,13.58,2,.23-.14.49-.21.76-.21Z"/>
  </g>
  <g>
    <ellipse class="cls-5" cx="238.77" cy="136.17" rx="7.56" ry="5.6"/>
    <path class="cls-4" d="M238.77,143.27c-5,0-9.06-3.19-9.06-7.1s4.07-7.1,9.06-7.1,9.06,3.19,9.06,7.1-4.07,7.1-9.06,7.1ZM238.77,132.07c-3.29,0-6.06,1.88-6.06,4.1s2.78,4.1,6.06,4.1,6.06-1.88,6.06-4.1-2.78-4.1-6.06-4.1Z"/>
  </g>
  <g>
    <ellipse class="cls-5" cx="260.18" cy="116.29" rx="14.35" ry="9.48"/>
    <path class="cls-4" d="M260.18,127.27c-8.89,0-15.85-4.82-15.85-10.98s6.96-10.98,15.85-10.98,15.85,4.82,15.85,10.98-6.96,10.98-15.85,10.98ZM260.18,108.31c-6.96,0-12.85,3.65-12.85,7.98s5.88,7.98,12.85,7.98,12.85-3.65,12.85-7.98-5.88-7.98-12.85-7.98Z"/>
  </g>
  <g>
    <path class="cls-5" d="M99.44,107.34c-2.21,11.4-21.11,13.89-29.72,5.92-13.18,6.12-39.23-.69-32.21-12.98-20.28-2.48-19.16-24.05-.11-30.22-3.83-14.2,20.73-26.05,37.54-18.21,10.93-18.49,58.21-12.51,51.95,13.84,22.78,4.7,18.07,27.76-2.79,30.16,2.82,11.91-10.63,17.74-24.65,11.48Z"/>
    <path class="cls-6" d="M82.98,119.42c-5.07,0-10.01-1.55-13.53-4.4-9.97,4.05-26.14,1.72-32.16-4.82-2.37-2.58-3.04-5.63-1.97-8.75-6.63-1.34-13.31-5.4-14.07-13.31-.76-7.88,5.11-15.57,14.39-19.05-.8-4.98,1.36-9.89,6.19-13.95,7.3-6.14,20.98-9.88,32.52-5.16,3.42-4.89,9.48-8.31,17.25-9.69,7.67-1.36,16-.54,22.88,2.23,10.57,4.26,15.77,12.44,14.15,22.05,11.29,2.83,15.08,10.02,14.82,15.97-.3,6.77-5.94,14.64-17.61,16.59.56,4.31-.84,8.08-4.03,10.72-4.97,4.12-13.22,4.67-21.37,1.53-1.43,4.05-4.98,7.23-9.98,8.87-2.42.79-4.96,1.17-7.48,1.17ZM69.72,111.76c.37,0,.74.14,1.02.4,4.34,4.01,12.24,5.37,18.78,3.23,2.72-.89,7.44-3.16,8.44-8.34.09-.45.37-.83.78-1.05.41-.21.88-.22,1.3-.04,7.51,3.35,15.49,3.18,19.84-.43,2.7-2.24,3.65-5.47,2.73-9.34-.1-.42-.01-.86.23-1.21s.63-.58,1.06-.63c7.96-.92,16.19-6.01,16.54-13.96.28-6.34-5.04-11.41-13.88-13.24-.4-.08-.74-.32-.96-.66-.22-.34-.29-.76-.19-1.15,2.97-12.52-7.44-18.2-12.05-20.06-12.51-5.05-31.05-2.99-37.15,7.33-.39.67-1.22.92-1.93.6-10.65-4.97-23.68-1.54-30.53,4.21-2.51,2.11-6.48,6.5-4.93,12.25.21.77-.23,1.57-.99,1.82-7.09,2.29-14.37,8.39-13.61,16.36.56,5.89,5.59,9.98,13.44,10.94.5.06.93.37,1.16.82.22.45.21.98-.04,1.42-1.51,2.65-1.28,4.99.7,7.14,5.37,5.84,20.86,7.79,29.58,3.74.2-.09.42-.14.63-.14Z"/>
  </g>
  <g>
    <path class="cls-2" d="M79.1,98.8h0c2.42-10.05-3.75-20.15-13.8-22.58h0c10.05,2.42,20.15-3.75,22.58-13.8h0c-2.42,10.05,3.75,20.15,13.8,22.58h0c-10.05-2.42-20.15,3.75-22.58,13.8Z"/>
    <path class="cls-2" d="M79.1,100.3c-.12,0-.23-.01-.35-.04-.69-.17-1.15-.78-1.15-1.46,0-.12.01-.23.04-.35,1.08-4.47.35-9.09-2.04-13.01s-6.18-6.68-10.65-7.76c-.69-.17-1.15-.78-1.15-1.46,0-.12.01-.23.04-.35.19-.81,1-1.3,1.81-1.11,9.23,2.23,18.54-3.47,20.77-12.69.19-.81,1-1.3,1.81-1.11.69.17,1.15.78,1.15,1.46,0,.12-.01.23-.04.35-2.23,9.22,3.46,18.54,12.69,20.77,0,0,0,0,0,0,.81.19,1.3,1,1.11,1.81-.19.81-1,1.3-1.81,1.11-9.22-2.23-18.54,3.47-20.77,12.69-.17.69-.78,1.15-1.46,1.15ZM72.74,78.02c2.15,1.55,3.99,3.53,5.41,5.86,1.42,2.33,2.34,4.87,2.74,7.49,3.17-4.38,8-7.33,13.33-8.15-2.15-1.55-3.99-3.53-5.41-5.86-1.42-2.33-2.34-4.87-2.74-7.49-3.17,4.38-7.99,7.33-13.33,8.15Z"/>
  </g>
  <g>
    <path class="cls-7" d="M236.53,79.7l9.82-17.25c.66-1.17.5-2.62-.4-3.62l-13.98-15.43c-.92-1.02-2.57-.81-3.21.41l-9.7,18.43c-.62,1.19-.42,2.64.52,3.6l13.81,14.27c.91.94,2.48.75,3.13-.4Z"/>
    <path class="cls-7" d="M234.81,82.2c-.93,0-1.82-.37-2.48-1.06l-13.81-14.27c-1.39-1.43-1.69-3.58-.77-5.34l9.7-18.43c.53-1,1.51-1.69,2.64-1.83,1.13-.14,2.25.28,3.01,1.11l13.98,15.43c1.34,1.48,1.58,3.63.59,5.37l-9.82,17.25c-.55.96-1.49,1.59-2.58,1.73-.15.02-.3.03-.45.03ZM230.52,44.25s-.04,0-.06,0c-.09.01-.26.06-.36.25l-9.7,18.43c-.32.61-.22,1.36.27,1.86l13.81,14.27c.14.15.31.15.4.14.09-.01.25-.06.35-.24h0l9.82-17.25c.34-.6.26-1.35-.2-1.87l-13.98-15.44c-.12-.13-.25-.16-.35-.16Z"/>
  </g>
</svg>