<?xml version="1.0" encoding="UTF-8"?>
<svg id="Layer_4" data-name="Layer 4" xmlns="http://www.w3.org/2000/svg" viewBox="0 0 280 280">
  <defs>
    <style>
      .cls-1 {
        fill: #9898d3;
      }

      .cls-2 {
        fill: #535384;
      }

      .cls-3 {
        fill: #6767a5;
      }

      .cls-4 {
        fill: #c1c1ea;
      }
    </style>
  </defs>
  <g>
    <path class="cls-1" d="M224.07,70.36c-30.71-27.06-157.95-21.94-183.55,22.67s-8.04,141.86,24.86,148.45,50.46-49.73,50.46-49.73c25.79-9.05,50.71-14.9,73.13-11.7,0,0,22.67,42.41,47.53,34.37,24.86-8.04,18.28-117-12.43-144.06Z"/>
    <path class="cls-2" d="M70.63,244.01c-1.87,0-3.75-.19-5.64-.57-9.78-1.96-18.66-11.17-25.69-26.66-7.73-17.01-12.45-39.97-12.97-62.99-.56-24.85,3.87-46.78,12.46-61.76,13.68-23.84,51.75-33.35,73.23-36.9,46.94-7.76,95.68-1.86,113.38,13.73,14.8,13.04,21.81,41.11,24.67,56.69,4.4,23.99,4.87,49.84,1.21,67.48-2.72,13.13-7.62,21.19-14.15,23.3-10.97,3.55-23.13-1.54-35.18-14.72-7.46-8.16-12.65-16.9-14.23-19.71-18.81-2.46-40.57,1.08-70.27,11.42-1.16,3.44-5.43,15.36-12.8,26.85-10.07,15.71-21.73,23.84-34.01,23.84ZM153.1,55.79c-13.14,0-26.93,1.06-40.43,3.29-35.36,5.85-61.02,18.58-70.41,34.95-17.87,31.14-13.98,88.81.68,121.1,6.48,14.26,14.37,22.69,22.84,24.39,30.77,6.16,47.99-47.81,48.16-48.36.19-.6.65-1.08,1.25-1.29,31.33-10.99,54.17-14.63,74.07-11.79.63.09,1.18.48,1.48,1.04.2.38,18.63,34.32,39.38,34.32,1.91,0,3.83-.29,5.77-.91,5.01-1.62,9.08-8.83,11.46-20.31,7.56-36.43-3.01-101.33-24.6-120.35-11.64-10.25-38.87-16.08-69.65-16.08Z"/>
  </g>
  <g>
    <path class="cls-4" d="M80.02,62.26l-6.16-4.56c-.91-.67-2.14-.72-3.1-.1l-25.7,16.5c-1.03.66-1.49,1.93-1.13,3.1l1.68,5.46c.56,1.82,2.76,2.52,4.27,1.35,8.23-6.36,18.24-12.49,29.51-17.01,1.99-.8,2.36-3.46.63-4.73Z"/>
    <path class="cls-2" d="M48.2,86.58c-.48,0-.96-.07-1.43-.22-1.48-.47-2.63-1.63-3.08-3.11l-1.68-5.46c-.62-2.02.19-4.23,1.97-5.37l25.7-16.5c1.64-1.06,3.8-.98,5.37.18l6.16,4.56h0c1.39,1.03,2.09,2.67,1.87,4.39-.22,1.71-1.35,3.16-2.95,3.81-10.02,4.02-20.06,9.81-29.03,16.74-.84.65-1.86.99-2.9.99ZM72.24,59.16c-.14,0-.27.04-.39.11l-25.7,16.5c-.27.18-.4.52-.3.83l1.68,5.46c.1.32.34.44.47.48.14.04.4.08.67-.12,9.39-7.25,19.48-13.07,29.98-17.28.37-.15.46-.44.48-.61.02-.15,0-.45-.29-.67l-6.16-4.56c-.13-.09-.28-.14-.43-.14Z"/>
  </g>
  <g>
    <path class="cls-4" d="M178.49,54.01l5.43-6.85c1.31-1.65,3.52-2.29,5.51-1.59l31.84,11.17c1.56.55,2.61,2,2.63,3.65l.16,9.97c-9.51-7.86-25.67-12.9-45.58-16.36Z"/>
    <path class="cls-2" d="M224.07,72.36c-.46,0-.91-.16-1.27-.46-8.42-6.97-23.03-12.18-44.64-15.93-.7-.12-1.28-.6-1.53-1.26-.25-.66-.14-1.4.3-1.96l5.43-6.85c1.84-2.32,4.95-3.22,7.74-2.24l31.84,11.17c2.34.82,3.93,3.03,3.97,5.51l.16,9.97c.01.78-.43,1.5-1.13,1.83-.28.13-.57.2-.87.2ZM182.14,52.63c18.05,3.37,31.17,7.88,39.87,13.71l-.09-5.91c-.01-.81-.53-1.53-1.3-1.8l-31.84-11.17c-1.18-.41-2.5-.03-3.28.95l-3.35,4.23Z"/>
  </g>
  <g>
    <path class="cls-3" d="M173.33,55.33c6.35,12.51,9.23,25.48,9.57,38.79.11,4.46-3.3,8.24-7.74,8.69l-58.37,5.94c-4.72.48-9.05-2.73-9.88-7.39-2.22-12.47-7.31-25.97-14.21-40.1-1.06-2.16,0-4.78,2.26-5.57,16.47-5.72,43.71-8.64,69.11-6.59,3.95.32,7.47,2.69,9.27,6.23Z"/>
    <path class="cls-2" d="M115.86,110.8c-5.3,0-9.99-3.81-10.93-9.09-2.04-11.46-6.63-24.4-14.04-39.57-.76-1.56-.82-3.36-.16-4.96.65-1.58,1.95-2.81,3.56-3.37,17.52-6.09,44.96-8.71,69.92-6.69,4.62.37,8.79,3.18,10.89,7.32h0c6.22,12.26,9.42,25.23,9.78,39.64.14,5.46-4.05,10.17-9.54,10.73l-58.37,5.94c-.38.04-.75.06-1.13.06ZM147.59,50.46c-19.38,0-38.91,2.58-51.98,7.12-.54.19-.96.58-1.18,1.12-.22.54-.2,1.16.05,1.68,7.57,15.51,12.28,28.8,14.38,40.63.64,3.6,4.04,6.13,7.71,5.75l58.37-5.94c3.42-.35,6.03-3.27,5.95-6.65-.35-13.8-3.4-26.21-9.35-37.93h0c-1.48-2.91-4.41-4.88-7.64-5.14-5.32-.43-10.81-.64-16.31-.64Z"/>
  </g>
  <g>
    <circle class="cls-3" cx="117.55" cy="159.66" r="16.23"/>
    <path class="cls-2" d="M117.55,177.89c-10.05,0-18.23-8.18-18.23-18.23s8.18-18.23,18.23-18.23,18.23,8.18,18.23,18.23-8.18,18.23-18.23,18.23ZM117.55,145.43c-7.85,0-14.23,6.38-14.23,14.23s6.38,14.23,14.23,14.23,14.23-6.38,14.23-14.23-6.38-14.23-14.23-14.23Z"/>
  </g>
  <g>
    <circle class="cls-3" cx="186.96" cy="151.04" r="15.23"/>
    <path class="cls-2" d="M186.96,168.27c-9.5,0-17.24-7.73-17.24-17.23s7.73-17.23,17.24-17.23,17.23,7.73,17.23,17.23-7.73,17.23-17.23,17.23ZM186.96,137.8c-7.3,0-13.24,5.94-13.24,13.23s5.94,13.23,13.24,13.23,13.23-5.94,13.23-13.23-5.94-13.23-13.23-13.23Z"/>
  </g>
  <g>
    <circle class="cls-4" cx="207.97" cy="96.4" r="6.29"/>
    <path class="cls-2" d="M207.97,104.69c-4.57,0-8.29-3.72-8.29-8.29s3.72-8.29,8.29-8.29,8.29,3.72,8.29,8.29-3.72,8.29-8.29,8.29ZM207.97,92.11c-2.37,0-4.29,1.93-4.29,4.29s1.93,4.29,4.29,4.29,4.29-1.93,4.29-4.29-1.93-4.29-4.29-4.29Z"/>
  </g>
  <g>
    <circle class="cls-4" cx="226.25" cy="109.5" r="6.29"/>
    <path class="cls-2" d="M226.25,117.79c-4.57,0-8.29-3.72-8.29-8.29s3.72-8.29,8.29-8.29,8.29,3.72,8.29,8.29-3.72,8.29-8.29,8.29ZM226.25,105.21c-2.37,0-4.29,1.93-4.29,4.29s1.93,4.29,4.29,4.29,4.29-1.93,4.29-4.29-1.93-4.29-4.29-4.29Z"/>
  </g>
  <g>
    <circle class="cls-4" cx="195.51" cy="113.39" r="6.29"/>
    <path class="cls-2" d="M195.51,121.68c-4.57,0-8.29-3.72-8.29-8.29s3.72-8.29,8.29-8.29,8.29,3.72,8.29,8.29-3.72,8.29-8.29,8.29ZM195.51,109.09c-2.37,0-4.29,1.93-4.29,4.29s1.93,4.29,4.29,4.29,4.29-1.93,4.29-4.29-1.93-4.29-4.29-4.29Z"/>
  </g>
  <g>
    <circle class="cls-4" cx="215.38" cy="126.35" r="6.29"/>
    <path class="cls-2" d="M215.38,134.65c-4.57,0-8.29-3.72-8.29-8.29s3.72-8.29,8.29-8.29,8.29,3.72,8.29,8.29-3.72,8.29-8.29,8.29ZM215.38,122.06c-2.37,0-4.29,1.93-4.29,4.29s1.93,4.29,4.29,4.29,4.29-1.93,4.29-4.29-1.93-4.29-4.29-4.29Z"/>
  </g>
  <g>
    <path class="cls-4" d="M80.14,121.97l-1.53-9.2c-.53-3.22-3.58-5.39-6.79-4.86l-4.8.8c-3.24.54-5.42,3.62-4.85,6.85l1.61,9.13-.15.03-9.2,1.53c-3.22.53-5.39,3.58-4.86,6.79l.8,4.8c.54,3.24,3.62,5.42,6.85,4.85l9.13-1.61.03.15,1.53,9.2c.53,3.22,3.58,5.39,6.79,4.86l4.8-.8c3.24-.54,5.42-3.62,4.85-6.85l-1.61-9.13.15-.03,9.2-1.53c3.22-.53,5.39-3.58,4.86-6.79l-.8-4.8c-.54-3.24-3.62-5.42-6.85-4.85l-9.13,1.61"/>
    <path class="cls-2" d="M73.73,157.36c-3.79,0-7.15-2.75-7.79-6.61l-1.22-7.36-7.14,1.26c-2.09.37-4.21-.1-5.94-1.33-1.74-1.23-2.88-3.06-3.23-5.16l-.8-4.8c-.35-2.08.14-4.18,1.37-5.89,1.23-1.72,3.05-2.85,5.14-3.2l7.36-1.22-1.26-7.14c-.37-2.09.1-4.2,1.33-5.94,1.23-1.74,3.06-2.88,5.16-3.23l4.8-.8c2.08-.35,4.18.14,5.89,1.37,1.72,1.23,2.85,3.05,3.2,5.14l1.22,7.36,7.14-1.26c2.09-.37,4.2.1,5.94,1.33,1.74,1.23,2.88,3.06,3.23,5.16l.8,4.8c.71,4.3-2.2,8.38-6.5,9.1l-7.36,1.22,1.26,7.14c.37,2.1-.1,4.2-1.33,5.94-1.23,1.74-3.06,2.88-5.16,3.23l-4.8.8c-.44.07-.87.11-1.3.11ZM66.35,139.07c.41,0,.81.13,1.15.37.44.31.73.78.82,1.3l1.55,9.36c.17,1.03.73,1.93,1.58,2.54.85.61,1.88.85,2.91.68l4.8-.8c1.04-.17,1.94-.74,2.55-1.6.61-.86.84-1.9.66-2.94l-1.61-9.13c-.09-.53.03-1.07.34-1.5s.78-.73,1.3-.82l9.36-1.55c2.12-.35,3.57-2.37,3.21-4.49l-.8-4.8c-.17-1.04-.74-1.94-1.6-2.55-.86-.61-1.9-.84-2.93-.66l-9.13,1.61c-1.09.19-2.13-.53-2.32-1.62,0-.03,0-.06-.01-.09,0-.03-.01-.05-.01-.08l-1.53-9.2c-.17-1.03-.73-1.93-1.58-2.54-.85-.61-1.89-.85-2.91-.68l-4.8.8c-1.04.17-1.94.74-2.55,1.6-.61.86-.84,1.9-.66,2.93l1.61,9.13c.09.53-.03,1.07-.34,1.5-.31.44-.78.73-1.31.82l-9.35,1.55c-1.03.17-1.93.73-2.54,1.58-.61.85-.85,1.88-.68,2.91l.8,4.8c.17,1.04.74,1.94,1.6,2.55.86.61,1.9.84,2.93.66l9.13-1.61c.12-.02.23-.03.35-.03Z"/>
  </g>
</svg>