<?xml version="1.0" encoding="UTF-8"?>
<svg id="Layer_6" data-name="Layer 6" xmlns="http://www.w3.org/2000/svg" viewBox="0 0 178.5 218.11">
  <defs>
    <style>
      .cls-1 {
        fill: #27232b;
      }

      .cls-2 {
        fill: #838091;
      }

      .cls-3 {
        fill: #1f1d21;
      }

      .cls-4 {
        fill: #fff;
      }

      .cls-5 {
        fill: #78bcff;
      }

      .cls-6 {
        fill: #423b49;
      }
    </style>
  </defs>
  <g>
    <path class="cls-3" d="M113.97,194.18l-9.52-13.55c-.48-.68-1.42-.84-2.09-.37-.68.48-.84,1.41-.37,2.09l8.83,12.57-10.5,11.59c-4.6,1.53-8.37,6.51-9.37,9.63-.25.79.18,1.63.97,1.88.15.05.31.07.46.07.63,0,1.22-.41,1.43-1.04.55-1.73,2.25-4.19,4.39-5.93-.54,2.02-.61,3.94-.19,5.81.16.7.78,1.17,1.46,1.17.11,0,.22-.01.33-.04.81-.18,1.32-.98,1.14-1.79-.47-2.09-.11-4.33,1.08-6.85,1.8.23,2.32.58,2.42.67.31.73,1.14,1.1,1.89.83.78-.28,1.18-1.14.9-1.92-.44-1.21-1.67-1.86-3.1-2.23l9.71-10.73c.47-.52.52-1.3.12-1.87Z"/>
    <path class="cls-1" d="M67.51,130.21c-11.46,25.21-18.24,46.51,19.49,57.34l-19.49-57.34Z"/>
    <path class="cls-3" d="M144.1,191.92l-9.52-13.55c-.48-.68-1.42-.84-2.09-.37-.68.48-.84,1.41-.37,2.09l8.83,12.57-10.5,11.59c-4.6,1.53-8.37,6.51-9.37,9.63-.25.79.18,1.63.97,1.88.15.05.31.07.46.07.63,0,1.22-.41,1.43-1.04.55-1.73,2.25-4.19,4.39-5.93-.54,2.02-.61,3.94-.19,5.81.16.7.78,1.17,1.46,1.17.11,0,.22-.01.33-.04.81-.18,1.32-.98,1.14-1.79-.47-2.09-.11-4.33,1.08-6.85,1.8.23,2.32.58,2.42.67.31.73,1.14,1.1,1.89.83.78-.28,1.18-1.14.9-1.92-.44-1.21-1.67-1.86-3.1-2.23l9.71-10.73c.47-.52.52-1.3.12-1.87Z"/>
    <path class="cls-6" d="M98.98,96.5c-4.2-7.28-19.89-10.37-30.82-7.28s-24.87,25.18-28.17,37.94c-.17.67.58,1.19,1.16.82,5.32-3.46,12.45-7.63,18.04-4.58l4.47,4.06c1.06.97,1.66,2.33,1.63,3.77-.17,9.33.27,45.27,16.31,55.48,23.37,14.87,72.63,1.03,96.51-26.19.96-1.1-.03-2.78-1.45-2.46l-13.84,3.11c-5.95,1.34-12.2.63-17.68-2.05-17.81-8.71-28.81-17.41-36.54-31.69-.44-.82-.79-1.68-1.06-2.57,0,0-4.36-21.08-8.56-28.36Z"/>
    <circle class="cls-4" cx="80.68" cy="113.87" r="13.17"/>
    <circle class="cls-3" cx="78.38" cy="116.17" r="10.87"/>
    <polygon class="cls-6" points="121.02 128.34 103.58 128.34 103.58 145.71 116.51 153.93 125.48 147.95 127.17 133.01 121.02 128.34"/>
    <g>
      <path class="cls-6" d="M118.21,136.74c-17.9-8.68-25.02-15.05-8.97-16.44-30.86-11.39-36.23-25.77-20-24.65,0,0-32.67-16.06-27.64-22.04,5.03-5.98,60.89-.72,68.36,27.09s-2.79,52.11-2.79,52.11"/>
      <path class="cls-2" d="M127.17,153.8c-.13,0-.26-.03-.39-.08-.51-.21-.75-.8-.53-1.31.1-.24,10.03-24.32,2.74-51.46-4.62-17.21-27.97-24.15-37.8-26.33-14.99-3.33-27.09-2.44-28.83-.38-.27.32-.35.68-.25,1.15,1.11,5.3,20.28,15.77,27.57,19.35.43.21.65.7.52,1.16-.12.46-.55.76-1.03.74-4.5-.31-7.43.63-7.83,2.52-.81,3.76,7.42,12.52,28.24,20.2.44.16.71.61.65,1.07-.06.46-.44.82-.91.86-7.12.61-7.93,2.1-8.02,2.54-.18.99,1.14,4.15,17.33,12,.5.24.7.84.46,1.34-.24.5-.84.7-1.34.46-17.02-8.26-18.87-11.79-18.43-14.17.32-1.76,2.22-2.94,5.88-3.65-19.17-7.71-26.88-16.2-25.83-21.08.3-1.39,1.48-3.48,5.82-4.02-7.58-3.96-23.82-13.06-25.05-18.91-.22-1.07,0-2.05.68-2.85,2.79-3.31,16.6-3.44,30.79-.29,10.18,2.26,34.39,9.49,39.29,27.76,7.47,27.82-2.73,52.51-2.83,52.75-.16.38-.53.61-.92.61Z"/>
    </g>
  </g>
  <path class="cls-5" d="M48.34,21.08c-1.97,5.38.17,11.1,4.78,12.79s9.94-1.31,11.9-6.68c1.4-3.83-.35-12.17-1.47-16.65-.39-1.57-2.02-2.17-3.34-1.22-3.75,2.69-10.47,7.93-11.87,11.76Z"/>
  <path class="cls-5" d="M64.77,44.99c-1.97,5.38.17,11.1,4.78,12.79s9.94-1.31,11.9-6.68c1.4-3.83-.35-12.17-1.47-16.65-.39-1.57-2.02-2.17-3.34-1.22-3.75,2.69-10.47,7.93-11.87,11.76Z"/>
  <path class="cls-5" d="M97.17,12.22c-1.97,5.38.17,11.1,4.78,12.79s9.94-1.31,11.9-6.68c1.4-3.83-.35-12.17-1.47-16.65-.39-1.57-2.02-2.17-3.34-1.22-3.75,2.69-10.47,7.93-11.87,11.76Z"/>
  <path class="cls-5" d="M106.14,42.1c-1.97,5.38.17,11.1,4.78,12.79s9.94-1.31,11.9-6.68c1.4-3.83-.35-12.17-1.47-16.65-.39-1.57-2.02-2.17-3.34-1.22-3.75,2.69-10.47,7.93-11.87,11.76Z"/>
  <path class="cls-5" d="M140.7,21.97c-1.97,5.38.17,11.1,4.78,12.79s9.94-1.31,11.9-6.68c1.4-3.83-.35-12.17-1.47-16.65-.39-1.57-2.02-2.17-3.34-1.22-3.75,2.69-10.47,7.93-11.87,11.76Z"/>
  <path class="cls-2" d="M19.2,111.04c-10.51,0-15.4-3.06-16.39-5.67-.47-1.24-.17-2.46.83-3.34,2.13-1.9,7.9-2.41,17.15,2.4.49.25.68.86.43,1.35-.26.49-.86.68-1.35.42-8.29-4.31-13.45-3.97-14.9-2.68-.37.33-.46.69-.29,1.14.67,1.76,5.09,4.39,14.52,4.39.55,0,1,.45,1,1s-.45,1-1,1Z"/>
  <path class="cls-2" d="M7.63,125.54c-3.61,0-5.89-1.06-6.92-2.37-.87-1.1-.95-2.47-.21-3.65,1.42-2.29,6.33-4.28,15.51-2.38.54.11.89.64.78,1.18-.11.54-.64.88-1.18.78-8.75-1.82-12.59.17-13.4,1.47-.29.47-.26.92.09,1.36.98,1.25,5.12,2.87,13.72.05.53-.17,1.09.11,1.26.64.17.52-.11,1.09-.64,1.26-3.6,1.18-6.59,1.65-9,1.65Z"/>
  <path class="cls-2" d="M11.08,140.61c-1.52,0-2.75-.4-3.61-1-1.38-.95-1.95-2.47-1.49-3.95.88-2.88,5.03-4.64,11.08-4.7h0c.55,0,.99.44,1,.99,0,.55-.44,1-.99,1.01-5.67.05-8.7,1.69-9.19,3.29-.27.88.34,1.45.72,1.72,1.33.92,4.97,1.41,10.14-2.59.44-.34,1.06-.26,1.4.18.34.44.26,1.07-.18,1.4-3.46,2.68-6.52,3.64-8.89,3.64Z"/>
</svg>