<?xml version="1.0" encoding="UTF-8"?>
<svg id="Layer_4" data-name="Layer 4" xmlns="http://www.w3.org/2000/svg" viewBox="0 0 318.82 306.49">
  <defs>
    <style>
      .cls-1 {
        fill: #838091;
      }

      .cls-2 {
        fill: #1f1d21;
      }

      .cls-3 {
        fill: #fff;
      }

      .cls-4 {
        fill: #423b49;
      }
    </style>
  </defs>
  <path class="cls-2" d="M235.54,244.41l-36.64-18.07c-1.49-.73-3.28-.12-4.02,1.36-.73,1.49-.12,3.28,1.36,4.02l32.19,15.87-27.79,20.24c-.83.06-1.64.14-2.43.22-11.69,1.3-20.46,5.59-26.81,13.1-1.07,1.27-.91,3.16.35,4.23.56.48,1.25.71,1.94.71.85,0,1.7-.36,2.29-1.06,4.83-5.71,11.47-9.2,20.22-10.64-5.9,6.16-9.24,12.44-9.94,18.73-.18,1.65,1,3.13,2.65,3.31.11.01.22.02.34.02,1.51,0,2.81-1.14,2.98-2.67.7-6.33,5.03-12.88,12.86-19.5,6.04,3,9.39,6.07,10.76,9.83.57,1.56,2.29,2.36,3.85,1.79,1.56-.57,2.36-2.29,1.79-3.85-2.26-6.2-7.87-10.11-12.79-12.67l27.29-19.88c.85-.62,1.31-1.64,1.22-2.68-.09-1.05-.72-1.97-1.66-2.43Z"/>
  <path class="cls-2" d="M173.04,242.16l-36.64-18.07c-1.49-.73-3.28-.12-4.02,1.36-.73,1.49-.12,3.28,1.36,4.02l32.19,15.87-27.79,20.24c-.83.06-1.64.14-2.43.22-11.69,1.3-20.46,5.59-26.81,13.1-1.07,1.27-.91,3.16.35,4.23.56.48,1.25.71,1.94.71.85,0,1.7-.36,2.29-1.06,4.83-5.71,11.47-9.2,20.22-10.64-5.9,6.16-9.24,12.44-9.94,18.73-.18,1.65,1,3.13,2.65,3.31.11.01.22.02.34.02,1.51,0,2.81-1.14,2.98-2.67.7-6.33,5.03-12.88,12.86-19.5,6.04,3,9.39,6.07,10.76,9.83.57,1.56,2.29,2.36,3.85,1.79,1.56-.57,2.36-2.29,1.79-3.85-2.26-6.2-7.87-10.11-12.79-12.67l27.29-19.88c.85-.62,1.31-1.64,1.22-2.68-.09-1.05-.72-1.97-1.66-2.43Z"/>
  <path class="cls-4" d="M76.6,16.56c17.78-2.97,35.17-1.81,51.59,9.87,3.48,2.47,5.93,6.12,6.99,10.25,3.86,15.1,11.23,32.4,19.34,50.17,22.89,27.95,52.32,46.33,89.83,52.92,1.9.33,3.85.34,5.74-.02,20.07-3.74,37.37-12.61,52.47-25.56,1.27-1.09,3.2.09,2.77,1.71-7.06,26.63-20.9,54.9-40.19,84.5-7.76,11.91-19.27,20.99-32.79,25.39-40.72,13.25-79.46,12.69-116.5.3-18.97-6.34-32.77-22.91-35.49-42.72-1.55-11.3-1.99-25.93-.9-45.14.25-18.98-3.14-39.45-8.72-60.79-.53-2.03-2.07-3.63-4.06-4.28-14.94-4.84-33.07-7.79-52.82-9.76-.94-.09-1.35-1.25-.66-1.91,17.82-16.92,35.86-32.76,55.23-42.31,2.58-1.27,5.33-2.16,8.17-2.64Z"/>
  <ellipse class="cls-3" cx="104.35" cy="54.23" rx="20.71" ry="21.78"/>
  <circle class="cls-2" cx="106.47" cy="55.94" r="16.29"/>
  <path class="cls-1" d="M106.47,85.22c-.08,0-.15,0-.23-.02-9.91-1.53-16.54-5.53-20.27-12.24-.4-.72-.14-1.64.58-2.04.73-.4,1.64-.14,2.04.58,3.24,5.85,9.17,9.36,18.1,10.73.82.13,1.38.89,1.25,1.71-.11.74-.75,1.27-1.48,1.27Z"/>
  <path class="cls-1" d="M189.7,209.42c-11.56,0-24.4-1.55-36.53-5.09-15.4-4.5-27.7-11.81-35.57-21.16-9.54-11.34-12.84-25.57-9.83-42.3.15-.81.93-1.35,1.74-1.21.82.15,1.36.93,1.21,1.74-7.07,39.2,24.08,54.45,43.28,60.05,14.3,4.17,31.14,5.79,46.22,4.44,15.19-1.36,23.36-5.31,24.72-8.63.03-.08.14-.33-.1-.9-2.39-5.67-24.59-16.37-38.93-22.17-.74-.3-1.12-1.12-.85-1.88.26-.75,1.06-1.17,1.83-.95,14.09,4.04,24.46,5,32.64,3.02.81-.2,1.62.3,1.81,1.11s-.3,1.62-1.11,1.81c-5.39,1.3-11.6,1.42-19.01.34,10.85,5.11,24.16,12.28,26.39,17.57.48,1.14.52,2.22.11,3.2-2.72,6.63-18.56,11.01-38.02,11.01Z"/>
</svg>