<?xml version="1.0" encoding="UTF-8"?>
<svg id="Layer_6" data-name="Layer 6" xmlns="http://www.w3.org/2000/svg" xmlns:xlink="http://www.w3.org/1999/xlink" viewBox="0 0 324.98 234.21">
  <defs>
    <style>
      .cls-1, .cls-2 {
        fill: none;
      }

      .cls-3 {
        fill: #b8e6ff;
      }

      .cls-4 {
        fill: #ffab4a;
      }

      .cls-5 {
        fill: #bcd68a;
      }

      .cls-6 {
        fill: #1f1d21;
      }

      .cls-2 {
        stroke: #838091;
        stroke-linecap: round;
        stroke-linejoin: round;
        stroke-width: 2px;
      }

      .cls-7 {
        fill: #fff;
      }

      .cls-8 {
        fill: #72a067;
      }

      .cls-9 {
        fill: #96bc8b;
      }

      .cls-10 {
        fill: #423b49;
      }

      .cls-11 {
        clip-path: url(#clippath);
      }
    </style>
    <clipPath id="clippath">
      <rect class="cls-1" width="324.98" height="234.21"/>
    </clipPath>
  </defs>
  <g class="cls-11">
    <polygon class="cls-3" points="347.39 182.38 -30.82 187.42 -39.22 -33.62 358.32 -17.65 347.39 182.38"/>
    <path class="cls-9" d="M121.9,117.98s-34.51-25.63-52.25-25.63S-14.15,175.17-14.15,175.17l142.95-5.92-6.9-51.27Z"/>
    <path class="cls-8" d="M339.13,162.29S243.5,58.44,194.53,58.44s-111.73,103.85-111.73,103.85h256.33Z"/>
    <path class="cls-5" d="M-21.57,168.66c98.33-35.86,273.15-35.86,360.7-9.81v87.41s-353.28,3.36-353.28,3.36l-7.42-80.96Z"/>
    <circle class="cls-4" cx="113.74" cy="48.16" r="22.69"/>
  </g>
  <g>
    <path class="cls-6" d="M167.22,181.15l-9.52-13.55c-.48-.68-1.42-.84-2.09-.37-.68.48-.84,1.41-.37,2.09l8.83,12.57-10.5,11.59c-4.6,1.53-8.37,6.51-9.37,9.63-.25.79.18,1.63.97,1.88.15.05.31.07.46.07.63,0,1.22-.41,1.43-1.04.55-1.73,2.25-4.19,4.39-5.93-.54,2.02-.61,3.94-.19,5.81.16.7.78,1.17,1.46,1.17.11,0,.22-.01.33-.04.81-.18,1.32-.98,1.14-1.79-.47-2.09-.11-4.33,1.08-6.85,1.8.23,2.32.58,2.42.67.31.73,1.14,1.1,1.89.83.78-.28,1.18-1.14.9-1.92-.44-1.21-1.67-1.86-3.1-2.23l9.71-10.73c.47-.52.52-1.3.12-1.87Z"/>
    <path class="cls-6" d="M197.35,178.89l-9.52-13.55c-.48-.68-1.42-.84-2.09-.37-.68.48-.84,1.41-.37,2.09l8.83,12.57-10.5,11.59c-4.6,1.53-8.37,6.51-9.37,9.63-.25.79.18,1.63.97,1.88.15.05.31.07.46.07.63,0,1.22-.41,1.43-1.04.55-1.73,2.25-4.19,4.39-5.93-.54,2.02-.61,3.94-.19,5.81.16.7.78,1.17,1.46,1.17.11,0,.22-.01.33-.04.81-.18,1.32-.98,1.14-1.79-.47-2.09-.11-4.33,1.08-6.85,1.8.23,2.32.58,2.42.67.31.73,1.14,1.1,1.89.83.78-.28,1.18-1.14.9-1.92-.44-1.21-1.67-1.86-3.1-2.23l9.71-10.73c.47-.52.52-1.3.12-1.87Z"/>
    <path class="cls-10" d="M152.23,83.47c-4.2-7.28-19.89-10.37-30.82-7.28s-24.87,25.18-28.17,37.94c-.17.67.58,1.19,1.16.82,5.32-3.46,12.45-7.63,18.04-4.58l4.47,4.06c1.06.97,1.66,2.33,1.63,3.77-.17,9.33.27,45.27,16.31,55.48,23.37,14.87,72.63,1.03,96.51-26.19.96-1.1-.03-2.78-1.45-2.46l-13.84,3.11c-5.95,1.34-12.2.63-17.68-2.05-17.81-8.71-28.81-17.41-36.54-31.69-.44-.82-.79-1.68-1.06-2.57,0,0-4.36-21.08-8.56-28.36Z"/>
    <circle class="cls-7" cx="133.93" cy="100.83" r="13.17"/>
    <circle class="cls-6" cx="135.17" cy="100.83" r="10.87"/>
    <path class="cls-2" d="M133.53,148.25c23.93,16.14,69.54,18.07,55.57,8.09"/>
  </g>
</svg>