<?xml version="1.0" encoding="UTF-8"?>
<svg id="Layer_5" data-name="Layer 5" xmlns="http://www.w3.org/2000/svg" xmlns:xlink="http://www.w3.org/1999/xlink" viewBox="0 0 415.41 446.75">
  <defs>
    <style>
      .cls-1 {
        fill: none;
      }

      .cls-2 {
        fill: #e28826;
      }

      .cls-3 {
        fill: #ea9935;
      }

      .cls-4 {
        fill: #eda13d;
      }

      .cls-5 {
        fill: #dd7d1c;
      }

      .cls-6 {
        fill: #f6b54e;
      }

      .cls-7 {
        fill: #fabe56;
      }

      .cls-8 {
        fill: #fbc25a;
      }

      .cls-9 {
        fill: #e38a28;
      }

      .cls-10 {
        fill: #eea23e;
      }

      .cls-11 {
        fill: #e48b29;
      }

      .cls-12 {
        fill: #f0a842;
      }

      .cls-13 {
        fill: #fcc45c;
      }

      .cls-14 {
        fill: #e38927;
      }

      .cls-15 {
        fill: #ec9e3a;
      }

      .cls-16 {
        fill: #e7922f;
      }

      .cls-17 {
        fill: #f5b34c;
      }

      .cls-18 {
        fill: url(#linear-gradient-2);
      }

      .cls-19 {
        fill: #eb9b37;
      }

      .cls-20 {
        fill: #f7b750;
      }

      .cls-21 {
        fill: #f9bd55;
      }

      .cls-22 {
        fill: #ec9f3b;
      }

      .cls-23 {
        fill: #f4b049;
      }

      .cls-24 {
        fill: #e89633;
      }

      .cls-25 {
        fill: #e89532;
      }

      .cls-26 {
        fill: #f6b64f;
      }

      .cls-27 {
        fill: #838091;
      }

      .cls-28 {
        fill: #e58f2c;
      }

      .cls-29 {
        fill: url(#linear-gradient);
      }

      .cls-30 {
        fill: #eea43e;
      }

      .cls-31 {
        fill: #ec9d39;
      }

      .cls-32 {
        fill: #f9bc54;
      }

      .cls-33 {
        fill: #e58e2b;
      }

      .cls-34 {
        fill: #fdc55c;
      }

      .cls-35 {
        fill: #1f1d21;
      }

      .cls-36 {
        fill: #f4b24b;
      }

      .cls-37 {
        fill: #e28725;
      }

      .cls-38 {
        fill: #ffc960;
      }

      .cls-39 {
        fill: #f1ab45;
      }

      .cls-40 {
        clip-path: url(#clippath-1);
      }

      .cls-41 {
        clip-path: url(#clippath-3);
      }

      .cls-42 {
        clip-path: url(#clippath-4);
      }

      .cls-43 {
        clip-path: url(#clippath-2);
      }

      .cls-44 {
        clip-path: url(#clippath-5);
      }

      .cls-45 {
        fill: #e99734;
      }

      .cls-46 {
        fill: #f4b14a;
      }

      .cls-47 {
        fill: #95c6e8;
      }

      .cls-48 {
        fill: #fbc058;
      }

      .cls-49 {
        fill: #f7b952;
      }

      .cls-50 {
        fill: #fff;
      }

      .cls-51 {
        fill: #f2ac46;
      }

      .cls-52 {
        fill: #f3af48;
      }

      .cls-53 {
        fill: #df801f;
      }

      .cls-54 {
        fill: #e6902d;
      }

      .cls-55 {
        fill: #f0a943;
      }

      .cls-56 {
        fill: #eda03c;
      }

      .cls-57 {
        fill: #fabf57;
      }

      .cls-58 {
        fill: #f8bb53;
      }

      .cls-59 {
        fill: #e48c2a;
      }

      .cls-60 {
        fill: #e79330;
      }

      .cls-61 {
        fill: #f2ad47;
      }

      .cls-62 {
        fill: #fec75e;
      }

      .cls-63 {
        fill: #e18624;
      }

      .cls-64 {
        fill: #e89431;
      }

      .cls-65 {
        fill: #f1aa44;
      }

      .cls-66 {
        opacity: .5;
      }

      .cls-67 {
        opacity: .24;
      }

      .cls-68 {
        fill: #efa53f;
      }

      .cls-69 {
        fill: #fbc159;
      }

      .cls-70 {
        fill: #e99834;
      }

      .cls-71 {
        fill: #dd7c1b;
      }

      .cls-72 {
        fill: #f8ba52;
      }

      .cls-73 {
        fill: #f7b851;
      }

      .cls-74 {
        fill: #fec85f;
      }

      .cls-75 {
        fill: #f3ae48;
      }

      .cls-76 {
        fill: #ffca61;
      }

      .cls-77 {
        fill: #e08321;
      }

      .cls-78 {
        fill: #e58d2a;
      }

      .cls-79 {
        fill: #e18422;
      }

      .cls-80 {
        fill: #e08220;
      }

      .cls-81 {
        fill: #de7e1d;
      }

      .cls-82 {
        fill: #efa640;
      }

      .cls-83 {
        fill: #de7f1e;
      }

      .cls-84 {
        fill: #e6912e;
      }

      .cls-85 {
        fill: #423b49;
      }

      .cls-86 {
        fill: #eb9c38;
      }

      .cls-87 {
        fill: #ea9a36;
      }

      .cls-88 {
        fill: #df8120;
      }

      .cls-89 {
        fill: #fcc35b;
      }

      .cls-90 {
        clip-path: url(#clippath);
      }

      .cls-91 {
        fill: #f0a741;
      }

      .cls-92 {
        fill: #fdc65d;
      }

      .cls-93 {
        fill: #e18523;
      }

      .cls-94 {
        fill: #f5b44d;
      }
    </style>
    <clipPath id="clippath">
      <path class="cls-1" d="M244.3,389.41l-4.81-125.69c-.14-3.69-2.28-7.01-5.58-8.66l-4.64-2.32c-1.8-.9-1.72-3.5.14-4.28l6.08-2.57c2.29-.97,3.77-3.21,3.77-5.69v-11.03c0-17.67-126.07-17.67-126.07,0v11.03c0,2.48,1.49,4.72,3.77,5.69l6.08,2.57c1.85.78,1.94,3.38.14,4.28l-4.64,2.32c-3.3,1.65-5.44,4.97-5.58,8.66l-4.81,125.69c0,29.02,136.16,29.02,136.16,0Z"/>
    </clipPath>
    <linearGradient id="linear-gradient" x1="-228.03" y1="844.53" x2="-187.54" y2="844.53" gradientTransform="translate(-603.75 -76.31) rotate(-73.31)" gradientUnits="userSpaceOnUse">
      <stop offset=".1" stop-color="#ffca61"/>
      <stop offset="1" stop-color="#dd7c1b"/>
    </linearGradient>
    <linearGradient id="linear-gradient-2" x1="130.84" y1="523.87" x2="171.32" y2="523.87" gradientTransform="translate(-21.03 -115.95) rotate(-9.96)" xlink:href="#linear-gradient"/>
    <clipPath id="clippath-1">
      <path class="cls-1" d="M186.93,378.35c-12.51,0-22.69-10.18-22.69-22.69s10.18-22.69,22.69-22.69,22.69,10.18,22.69,22.69-10.18,22.69-22.69,22.69ZM186.93,333.97c-11.96,0-21.69,9.73-21.69,21.69s9.73,21.69,21.69,21.69,21.69-9.73,21.69-21.69-9.73-21.69-21.69-21.69Z"/>
    </clipPath>
    <clipPath id="clippath-2">
      <path class="cls-1" d="M184.38,346.79l.02-.81c.02-.76.24-1.33.66-1.7.42-.37,1-.56,1.73-.56.78,0,1.37.14,1.78.41.41.27.61.81.61,1.62v1.04c1.46.29,2.65.79,3.58,1.5.93.71,1.4,1.43,1.4,2.16,0,.25-.05.47-.16.65-.11.18-.25.3-.41.38-.16.08-.33.11-.52.11-.3,0-.76-.16-1.37-.47-.61-.31-1.29-.63-2.03-.94-.74-.31-1.43-.47-2.06-.47-1,0-1.5.41-1.5,1.22,0,.25.08.5.24.72s.42.47.77.71c.36.25.7.46,1.04.65s.8.44,1.4.75c.59.31,1.09.59,1.5.82,1.3.75,2.22,1.46,2.74,2.13s.79,1.46.79,2.33c0,3.01-1.77,4.73-5.3,5.15v.84c0,.98-.2,1.65-.58,2.02-.39.36-1.01.55-1.85.55s-1.41-.18-1.79-.53-.57-.96-.57-1.83v-1.29c-1.02-.25-1.93-.61-2.74-1.07-.81-.46-1.43-.93-1.84-1.43-.42-.5-.62-.97-.62-1.41,0-.37.12-.69.37-.95.24-.26.61-.39,1.08-.39.36,0,1.21.22,2.56.67,1.35.45,2.44.67,3.27.67.76,0,1.14-.26,1.14-.79,0-.15-.03-.29-.09-.42-.06-.13-.16-.25-.3-.38s-.3-.24-.48-.36c-.18-.11-.42-.25-.74-.42l-.94-.51c-.31-.17-.72-.39-1.23-.66-.51-.27-1-.54-1.47-.81-.91-.52-1.62-1.2-2.13-2.02-.51-.82-.76-1.59-.76-2.3,0-1.13.41-2.11,1.24-2.93.83-.82,2.02-1.37,3.58-1.66Z"/>
    </clipPath>
    <clipPath id="clippath-3">
      <path class="cls-1" d="M218.1,364.04l.2-.79c.18-.74.52-1.25,1.01-1.52.49-.27,1.1-.33,1.81-.18.76.17,1.31.43,1.65.78.34.35.42.92.25,1.72l-.22,1.02c1.36.59,2.42,1.34,3.17,2.23.76.89,1.06,1.7.9,2.41-.05.25-.15.45-.3.6-.15.15-.31.24-.48.28-.17.04-.35.04-.53,0-.3-.07-.71-.32-1.24-.75-.53-.44-1.12-.89-1.78-1.35-.66-.46-1.3-.76-1.91-.9-.98-.21-1.55.08-1.72.87-.05.25-.03.5.08.76s.31.54.6.86c.29.32.59.6.88.86s.69.6,1.2,1.03c.51.43.94.81,1.29,1.13,1.11,1.01,1.85,1.9,2.22,2.67s.46,1.59.27,2.45c-.65,2.94-2.74,4.24-6.29,3.89l-.18.82c-.21.96-.55,1.57-1,1.85-.46.27-1.1.32-1.93.13s-1.34-.48-1.63-.9-.35-1.06-.17-1.91l.28-1.26c-.94-.47-1.75-1.01-2.45-1.63-.7-.62-1.19-1.22-1.49-1.8-.3-.58-.4-1.08-.31-1.51.08-.36.27-.65.56-.85.3-.2.68-.25,1.14-.15.35.08,1.13.48,2.36,1.21,1.23.73,2.24,1.18,3.05,1.36.74.16,1.17-.01,1.28-.52.03-.15.03-.29,0-.43-.03-.14-.1-.28-.22-.44s-.25-.3-.39-.45c-.15-.15-.36-.33-.63-.57l-.81-.7c-.27-.23-.62-.54-1.06-.91-.44-.37-.86-.74-1.26-1.11-.78-.71-1.33-1.52-1.65-2.43-.32-.91-.4-1.71-.25-2.41.24-1.11.86-1.97,1.84-2.6.99-.62,2.27-.91,3.85-.86Z"/>
    </clipPath>
    <clipPath id="clippath-4">
      <path class="cls-1" d="M140.87,357.35l-.16-.8c-.16-.74-.07-1.35.25-1.81.33-.46.84-.77,1.55-.94.76-.18,1.36-.18,1.82-.01.46.17.78.65.96,1.44l.24,1.01c1.48-.05,2.76.16,3.83.64,1.07.48,1.69,1.07,1.85,1.78.06.25.05.47-.01.67-.07.2-.17.35-.31.46-.14.11-.3.19-.48.23-.3.07-.78.02-1.44-.14-.66-.17-1.39-.31-2.19-.45-.8-.13-1.5-.13-2.11.01-.97.23-1.36.74-1.18,1.53.06.25.19.46.4.65s.51.36.92.51c.4.16.79.29,1.16.39s.88.24,1.53.41c.65.17,1.2.32,1.65.46,1.44.43,2.49.91,3.16,1.45s1.1,1.24,1.3,2.09c.69,2.93-.64,5.01-3.98,6.23l.19.82c.22.95.19,1.65-.11,2.1-.3.44-.86.76-1.68.96s-1.41.15-1.86-.11-.78-.81-.97-1.65l-.3-1.26c-1.05-.01-2.02-.15-2.91-.41-.9-.26-1.6-.58-2.12-.97-.52-.39-.83-.8-.93-1.23-.09-.36-.04-.7.14-1.01.18-.31.5-.52.96-.63.35-.08,1.23-.06,2.65.07,1.42.13,2.53.09,3.34-.1.74-.17,1.05-.52.93-1.03-.03-.15-.1-.28-.18-.39-.09-.11-.22-.21-.38-.3s-.35-.17-.55-.24c-.2-.07-.47-.15-.81-.24l-1.03-.28c-.34-.09-.79-.21-1.35-.36-.56-.15-1.1-.3-1.62-.45-1.01-.3-1.86-.79-2.54-1.48-.68-.68-1.1-1.37-1.27-2.06-.26-1.1-.08-2.15.54-3.14.62-.99,1.65-1.8,3.1-2.44Z"/>
    </clipPath>
    <clipPath id="clippath-5">
      <path class="cls-1" d="M244.3,389.41l-4.81-125.69c-.14-3.69-2.28-7.01-5.58-8.66l-4.64-2.32c-1.8-.9-1.72-3.5.14-4.28l6.08-2.57c2.29-.97,3.77-3.21,3.77-5.69v-11.03c0-17.67-126.07-17.67-126.07,0v11.03c0,2.48,1.49,4.72,3.77,5.69l6.08,2.57c1.85.78,1.94,3.38.14,4.28l-4.64,2.32c-3.3,1.65-5.44,4.97-5.58,8.66l-4.81,125.69c0,29.02,136.16,29.02,136.16,0Z"/>
    </clipPath>
  </defs>
  <g class="cls-67">
    <ellipse class="cls-85" cx="176.22" cy="403.12" rx="134.75" ry="29.06"/>
  </g>
  <g>
    <path class="cls-71" d="M166.05,326.67c-4.44,0-8.54,1.39-11.92,3.75-3.37-7-10.51-11.84-18.79-11.84-11.53,0-20.87,9.34-20.87,20.87s9.34,20.87,20.87,20.87c4.44,0,8.54-1.39,11.92-3.75,3.37,7,10.51,11.84,18.79,11.84,11.53,0,20.87-9.34,20.87-20.87s-9.34-20.87-20.87-20.87Z"/>
    <circle class="cls-71" cx="212.22" cy="339.46" r="20.87" transform="translate(-72.31 57.84) rotate(-13.28)"/>
  </g>
  <g class="cls-90">
    <g>
      <path class="cls-76" d="M176.22,411.68c-33.03,0-68.58-6.97-68.58-22.27l.82-21.4c-9.07-2.65-15.36-11.01-15.36-20.47,0-11.78,9.59-21.37,21.37-21.37s21.1,9.32,21.37,20.88c2.9-1.41,6.11-2.15,9.35-2.15,8.05,0,15.5,4.64,19.1,11.86.45-.04.89-.07,1.32-.08-.03-.4-.05-.82-.05-1.24,0-11.78,9.59-21.37,21.37-21.37,7.06,0,13.68,3.54,17.64,9.34,1.02-10.82,10.25-19.37,21.26-19.37,11.78,0,21.37,9.59,21.37,21.37,0,4.27-1.26,8.38-3.63,11.91l1.23,32.08c0,15.32-35.55,22.29-68.58,22.29Z"/>
      <path class="cls-71" d="M225.83,324.52c11.53,0,20.87,9.34,20.87,20.87,0,4.37-1.35,8.42-3.64,11.77h0s1.23,32.24,1.23,32.24c0,14.51-34.04,21.77-68.08,21.77s-68.08-7.26-68.08-21.77l.8-21,.03-.78c-8.85-2.41-15.38-10.47-15.38-20.09,0-11.53,9.34-20.87,20.87-20.87s20.87,9.34,20.87,20.87c0,.11-.01.22-.02.33,2.94-1.58,6.29-2.48,9.86-2.48,8.3,0,15.45,4.86,18.8,11.89.73-.07,1.45-.12,2.16-.12-.05-.57-.09-1.15-.09-1.73,0-11.53,9.34-20.87,20.87-20.87,7.72,0,14.44,4.2,18.05,10.43.22-11.33,9.46-20.46,20.85-20.46M225.83,323.52c-10.84,0-19.98,8.09-21.6,18.55-4.11-5.32-10.51-8.52-17.3-8.52-12.06,0-21.87,9.81-21.87,21.87,0,.26,0,.52.02.77-.16,0-.33.02-.5.03-3.74-7.21-11.27-11.83-19.39-11.83-3.06,0-6.1.65-8.88,1.88-.66-11.47-10.2-20.61-21.84-20.61s-21.87,9.81-21.87,21.87c0,9.55,6.27,18,15.35,20.84l-.8,21c0,7.26,7.61,13.23,22,17.32,12.43,3.53,29.15,5.48,47.08,5.48s34.64-1.95,47.08-5.48c14.39-4.09,22-10.07,22-17.29l-1.22-31.96c2.37-3.58,3.63-7.75,3.63-12.06,0-12.06-9.81-21.87-21.87-21.87h0Z"/>
    </g>
    <path class="cls-29" d="M145.55,385.52c-1.95,0-3.92-.29-5.84-.86-10.69-3.21-16.78-14.51-13.58-25.2,3.21-10.69,14.51-16.78,25.2-13.58,10.69,3.21,16.78,14.51,13.58,25.2-1.55,5.18-5.03,9.44-9.79,12.01-2.99,1.61-6.27,2.43-9.57,2.43ZM145.54,346.02c-8.28,0-15.94,5.39-18.44,13.72-3.05,10.16,2.74,20.91,12.91,23.96h0c4.92,1.48,10.13.95,14.65-1.49,4.53-2.44,7.83-6.49,9.31-11.41,3.05-10.16-2.74-20.91-12.91-23.96-1.84-.55-3.69-.81-5.52-.81Z"/>
    <path class="cls-18" d="M218.37,394.12c-4.12,0-8.13-1.26-11.58-3.67-4.43-3.1-7.38-7.75-8.32-13.07h0c-1.93-10.99,5.44-21.51,16.43-23.44,11.01-1.93,21.51,5.44,23.44,16.44.94,5.33-.26,10.7-3.36,15.12-3.1,4.43-7.75,7.38-13.07,8.32-1.18.21-2.37.31-3.55.31ZM199.46,377.21c.89,5.06,3.7,9.48,7.91,12.43,4.21,2.95,9.31,4.08,14.38,3.2,5.06-.89,9.48-3.7,12.43-7.9s4.09-9.31,3.2-14.38c-1.84-10.45-11.84-17.46-22.28-15.62-10.45,1.84-17.46,11.83-15.62,22.28h0Z"/>
    <g>
      <g>
        <circle class="cls-76" cx="186.93" cy="355.66" r="22.19"/>
        <g class="cls-40">
          <rect class="cls-76" x="165.23" y="373.79" width="43.38" height="3.56"/>
          <rect class="cls-76" x="165.23" y="373.27" width="43.38" height=".52"/>
          <rect class="cls-38" x="165.23" y="372.74" width="43.38" height=".52"/>
          <rect class="cls-74" x="165.23" y="372.22" width="43.38" height=".52"/>
          <rect class="cls-62" x="165.23" y="371.7" width="43.38" height=".52"/>
          <rect class="cls-92" x="165.23" y="371.17" width="43.38" height=".52"/>
          <rect class="cls-34" x="165.23" y="370.65" width="43.38" height=".52"/>
          <rect class="cls-13" x="165.23" y="370.12" width="43.38" height=".52"/>
          <rect class="cls-89" x="165.23" y="369.6" width="43.38" height=".52"/>
          <rect class="cls-8" x="165.23" y="369.08" width="43.38" height=".52"/>
          <rect class="cls-69" x="165.23" y="368.55" width="43.38" height=".52"/>
          <rect class="cls-48" x="165.23" y="368.03" width="43.38" height=".52"/>
          <rect class="cls-57" x="165.23" y="367.51" width="43.38" height=".52"/>
          <rect class="cls-7" x="165.23" y="366.98" width="43.38" height=".52"/>
          <rect class="cls-21" x="165.23" y="366.46" width="43.38" height=".52"/>
          <rect class="cls-32" x="165.23" y="365.94" width="43.38" height=".52"/>
          <rect class="cls-58" x="165.23" y="365.41" width="43.38" height=".52"/>
          <rect class="cls-72" x="165.23" y="364.89" width="43.38" height=".52"/>
          <rect class="cls-49" x="165.23" y="364.37" width="43.38" height=".52"/>
          <rect class="cls-73" x="165.23" y="363.84" width="43.38" height=".52"/>
          <rect class="cls-20" x="165.23" y="363.32" width="43.38" height=".52"/>
          <rect class="cls-26" x="165.23" y="362.8" width="43.38" height=".52"/>
          <rect class="cls-6" x="165.23" y="362.27" width="43.38" height=".52"/>
          <rect class="cls-94" x="165.23" y="361.75" width="43.38" height=".52"/>
          <rect class="cls-17" x="165.23" y="361.23" width="43.38" height=".52"/>
          <rect class="cls-36" x="165.23" y="360.7" width="43.38" height=".52"/>
          <rect class="cls-46" x="165.23" y="360.18" width="43.38" height=".52"/>
          <rect class="cls-23" x="165.23" y="359.66" width="43.38" height=".52"/>
          <rect class="cls-52" x="165.23" y="359.13" width="43.38" height=".52"/>
          <rect class="cls-75" x="165.23" y="358.61" width="43.38" height=".52"/>
          <rect class="cls-61" x="165.23" y="358.09" width="43.38" height=".52"/>
          <rect class="cls-51" x="165.23" y="357.56" width="43.38" height=".52"/>
          <rect class="cls-39" x="165.23" y="357.04" width="43.38" height=".52"/>
          <rect class="cls-65" x="165.23" y="356.52" width="43.38" height=".52"/>
          <rect class="cls-55" x="165.23" y="355.99" width="43.38" height=".52"/>
          <rect class="cls-12" x="165.23" y="355.47" width="43.38" height=".52"/>
          <rect class="cls-91" x="165.23" y="354.95" width="43.38" height=".52"/>
          <rect class="cls-82" x="165.23" y="354.42" width="43.38" height=".52"/>
          <rect class="cls-68" x="165.23" y="353.9" width="43.38" height=".52"/>
          <rect class="cls-30" x="165.23" y="353.38" width="43.38" height=".52"/>
          <rect class="cls-10" x="165.23" y="352.85" width="43.38" height=".52"/>
          <rect class="cls-4" x="165.23" y="352.33" width="43.38" height=".52"/>
          <rect class="cls-56" x="165.23" y="351.81" width="43.38" height=".52"/>
          <rect class="cls-22" x="165.23" y="351.28" width="43.38" height=".52"/>
          <rect class="cls-15" x="165.23" y="350.76" width="43.38" height=".52"/>
          <rect class="cls-31" x="165.23" y="350.24" width="43.38" height=".52"/>
          <rect class="cls-86" x="165.23" y="349.71" width="43.38" height=".52"/>
          <rect class="cls-19" x="165.23" y="349.19" width="43.38" height=".52"/>
          <rect class="cls-87" x="165.23" y="348.67" width="43.38" height=".52"/>
          <rect class="cls-3" x="165.23" y="348.14" width="43.38" height=".52"/>
          <rect class="cls-70" x="165.23" y="347.62" width="43.38" height=".52"/>
          <rect class="cls-45" x="165.23" y="347.1" width="43.38" height=".52"/>
          <rect class="cls-24" x="165.23" y="346.57" width="43.38" height=".52"/>
          <rect class="cls-25" x="165.23" y="346.05" width="43.38" height=".52"/>
          <rect class="cls-64" x="165.23" y="345.53" width="43.38" height=".52"/>
          <rect class="cls-60" x="165.23" y="345" width="43.38" height=".52"/>
          <rect class="cls-16" x="165.23" y="344.48" width="43.38" height=".52"/>
          <rect class="cls-84" x="165.23" y="343.96" width="43.38" height=".52"/>
          <rect class="cls-54" x="165.23" y="343.43" width="43.38" height=".52"/>
          <rect class="cls-28" x="165.23" y="342.91" width="43.38" height=".52"/>
          <rect class="cls-33" x="165.23" y="342.39" width="43.38" height=".52"/>
          <rect class="cls-78" x="165.23" y="341.86" width="43.38" height=".52"/>
          <rect class="cls-59" x="165.23" y="341.34" width="43.38" height=".52"/>
          <rect class="cls-11" x="165.23" y="340.82" width="43.38" height=".52"/>
          <rect class="cls-9" x="165.23" y="340.29" width="43.38" height=".52"/>
          <rect class="cls-14" x="165.23" y="339.77" width="43.38" height=".52"/>
          <rect class="cls-2" x="165.23" y="339.25" width="43.38" height=".52"/>
          <rect class="cls-37" x="165.23" y="338.72" width="43.38" height=".52"/>
          <rect class="cls-63" x="165.23" y="338.2" width="43.38" height=".52"/>
          <rect class="cls-93" x="165.23" y="337.68" width="43.38" height=".52"/>
          <rect class="cls-79" x="165.23" y="337.15" width="43.38" height=".52"/>
          <rect class="cls-77" x="165.23" y="336.63" width="43.38" height=".52"/>
          <rect class="cls-80" x="165.23" y="336.11" width="43.38" height=".52"/>
          <rect class="cls-88" x="165.23" y="335.58" width="43.38" height=".52"/>
          <rect class="cls-53" x="165.23" y="335.06" width="43.38" height=".52"/>
          <rect class="cls-83" x="165.23" y="334.54" width="43.38" height=".52"/>
          <rect class="cls-81" x="165.23" y="334.01" width="43.38" height=".52"/>
          <rect class="cls-5" x="165.23" y="333.97" width="43.38" height=".05"/>
          <rect class="cls-76" x="164.23" y="373.79" width="45.38" height="4.56"/>
          <rect class="cls-76" x="164.23" y="373.27" width="45.38" height=".52"/>
          <rect class="cls-38" x="164.23" y="372.74" width="45.38" height=".52"/>
          <rect class="cls-74" x="164.23" y="372.22" width="45.38" height=".52"/>
          <rect class="cls-62" x="164.23" y="371.7" width="45.38" height=".52"/>
          <rect class="cls-92" x="164.23" y="371.17" width="45.38" height=".52"/>
          <rect class="cls-34" x="164.23" y="370.65" width="45.38" height=".52"/>
          <rect class="cls-13" x="164.23" y="370.12" width="45.38" height=".52"/>
          <rect class="cls-89" x="164.23" y="369.6" width="45.38" height=".52"/>
          <rect class="cls-8" x="164.23" y="369.08" width="45.38" height=".52"/>
          <rect class="cls-69" x="164.23" y="368.55" width="45.38" height=".52"/>
          <rect class="cls-48" x="164.23" y="368.03" width="45.38" height=".52"/>
          <rect class="cls-57" x="164.23" y="367.51" width="45.38" height=".52"/>
          <rect class="cls-7" x="164.23" y="366.98" width="45.38" height=".52"/>
          <rect class="cls-21" x="164.23" y="366.46" width="45.38" height=".52"/>
          <rect class="cls-32" x="164.23" y="365.94" width="45.38" height=".52"/>
          <rect class="cls-58" x="164.23" y="365.41" width="45.38" height=".52"/>
          <rect class="cls-72" x="164.23" y="364.89" width="45.38" height=".52"/>
          <rect class="cls-49" x="164.23" y="364.37" width="45.38" height=".52"/>
          <rect class="cls-73" x="164.23" y="363.84" width="45.38" height=".52"/>
          <rect class="cls-20" x="164.23" y="363.32" width="45.38" height=".52"/>
          <rect class="cls-26" x="164.23" y="362.8" width="45.38" height=".52"/>
          <rect class="cls-6" x="164.23" y="362.27" width="45.38" height=".52"/>
          <rect class="cls-94" x="164.23" y="361.75" width="45.38" height=".52"/>
          <rect class="cls-17" x="164.23" y="361.23" width="45.38" height=".52"/>
          <rect class="cls-36" x="164.23" y="360.7" width="45.38" height=".52"/>
          <rect class="cls-46" x="164.23" y="360.18" width="45.38" height=".52"/>
          <rect class="cls-23" x="164.23" y="359.66" width="45.38" height=".52"/>
          <rect class="cls-52" x="164.23" y="359.13" width="45.38" height=".52"/>
          <rect class="cls-75" x="164.23" y="358.61" width="45.38" height=".52"/>
          <rect class="cls-61" x="164.23" y="358.09" width="45.38" height=".52"/>
          <rect class="cls-51" x="164.23" y="357.56" width="45.38" height=".52"/>
          <rect class="cls-39" x="164.23" y="357.04" width="45.38" height=".52"/>
          <rect class="cls-65" x="164.23" y="356.52" width="45.38" height=".52"/>
          <rect class="cls-55" x="164.23" y="355.99" width="45.38" height=".52"/>
          <rect class="cls-12" x="164.23" y="355.47" width="45.38" height=".52"/>
          <rect class="cls-91" x="164.23" y="354.95" width="45.38" height=".52"/>
          <rect class="cls-82" x="164.23" y="354.42" width="45.38" height=".52"/>
          <rect class="cls-68" x="164.23" y="353.9" width="45.38" height=".52"/>
          <rect class="cls-30" x="164.23" y="353.38" width="45.38" height=".52"/>
          <rect class="cls-10" x="164.23" y="352.85" width="45.38" height=".52"/>
          <rect class="cls-4" x="164.23" y="352.33" width="45.38" height=".52"/>
          <rect class="cls-56" x="164.23" y="351.81" width="45.38" height=".52"/>
          <rect class="cls-22" x="164.23" y="351.28" width="45.38" height=".52"/>
          <rect class="cls-15" x="164.23" y="350.76" width="45.38" height=".52"/>
          <rect class="cls-31" x="164.23" y="350.24" width="45.38" height=".52"/>
          <rect class="cls-86" x="164.23" y="349.71" width="45.38" height=".52"/>
          <rect class="cls-19" x="164.23" y="349.19" width="45.38" height=".52"/>
          <rect class="cls-87" x="164.23" y="348.67" width="45.38" height=".52"/>
          <rect class="cls-3" x="164.23" y="348.14" width="45.38" height=".52"/>
          <rect class="cls-70" x="164.23" y="347.62" width="45.38" height=".52"/>
          <rect class="cls-45" x="164.23" y="347.1" width="45.38" height=".52"/>
          <rect class="cls-24" x="164.23" y="346.57" width="45.38" height=".52"/>
          <rect class="cls-25" x="164.23" y="346.05" width="45.38" height=".52"/>
          <rect class="cls-64" x="164.23" y="345.53" width="45.38" height=".52"/>
          <rect class="cls-60" x="164.23" y="345" width="45.38" height=".52"/>
          <rect class="cls-16" x="164.23" y="344.48" width="45.38" height=".52"/>
          <rect class="cls-84" x="164.23" y="343.96" width="45.38" height=".52"/>
          <rect class="cls-54" x="164.23" y="343.43" width="45.38" height=".52"/>
          <rect class="cls-28" x="164.23" y="342.91" width="45.38" height=".52"/>
          <rect class="cls-33" x="164.23" y="342.39" width="45.38" height=".52"/>
          <rect class="cls-78" x="164.23" y="341.86" width="45.38" height=".52"/>
          <rect class="cls-59" x="164.23" y="341.34" width="45.38" height=".52"/>
          <rect class="cls-11" x="164.23" y="340.82" width="45.38" height=".52"/>
          <rect class="cls-9" x="164.23" y="340.29" width="45.38" height=".52"/>
          <rect class="cls-14" x="164.23" y="339.77" width="45.38" height=".52"/>
          <rect class="cls-2" x="164.23" y="339.25" width="45.38" height=".52"/>
          <rect class="cls-37" x="164.23" y="338.72" width="45.38" height=".52"/>
          <rect class="cls-63" x="164.23" y="338.2" width="45.38" height=".52"/>
          <rect class="cls-93" x="164.23" y="337.68" width="45.38" height=".52"/>
          <rect class="cls-79" x="164.23" y="337.15" width="45.38" height=".52"/>
          <rect class="cls-77" x="164.23" y="336.63" width="45.38" height=".52"/>
          <rect class="cls-80" x="164.23" y="336.11" width="45.38" height=".52"/>
          <rect class="cls-88" x="164.23" y="335.58" width="45.38" height=".52"/>
          <rect class="cls-53" x="164.23" y="335.06" width="45.38" height=".52"/>
          <rect class="cls-83" x="164.23" y="334.54" width="45.38" height=".52"/>
          <rect class="cls-81" x="164.23" y="334.01" width="45.38" height=".52"/>
          <rect class="cls-5" x="164.23" y="333.49" width="45.38" height=".52"/>
          <rect class="cls-71" x="164.23" y="332.97" width="45.38" height=".52"/>
        </g>
      </g>
      <g class="cls-43">
        <polygon class="cls-89" points="188.29 367.6 194.58 367.39 194.58 367.6 188.29 367.6"/>
        <polygon class="cls-8" points="179.98 367.6 194.58 367.12 194.58 367.39 188.29 367.6 179.98 367.6"/>
        <polygon class="cls-69" points="179.27 367.35 194.58 366.85 194.58 367.12 179.98 367.6 179.27 367.6 179.27 367.35"/>
        <polygon class="cls-48" points="179.27 367.08 194.58 366.57 194.58 366.85 179.27 367.35 179.27 367.08"/>
        <polygon class="cls-57" points="179.27 366.8 194.58 366.3 194.58 366.57 179.27 367.08 179.27 366.8"/>
        <polygon class="cls-7" points="179.27 366.53 194.58 366.03 194.58 366.3 179.27 366.8 179.27 366.53"/>
        <polygon class="cls-21" points="179.27 366.26 194.58 365.76 194.58 366.03 179.27 366.53 179.27 366.26"/>
        <polygon class="cls-32" points="179.27 365.99 194.58 365.48 194.58 365.76 179.27 366.26 179.27 365.99"/>
        <polygon class="cls-58" points="179.27 365.71 194.58 365.21 194.58 365.48 179.27 365.99 179.27 365.71"/>
        <polygon class="cls-72" points="179.27 365.44 194.58 364.94 194.58 365.21 179.27 365.71 179.27 365.44"/>
        <polygon class="cls-49" points="179.27 365.17 194.58 364.67 194.58 364.94 179.27 365.44 179.27 365.17"/>
        <polygon class="cls-73" points="179.27 364.9 194.58 364.39 194.58 364.67 179.27 365.17 179.27 364.9"/>
        <polygon class="cls-20" points="179.27 364.62 194.58 364.12 194.58 364.39 179.27 364.9 179.27 364.62"/>
        <polygon class="cls-26" points="179.27 364.35 194.58 363.85 194.58 364.12 179.27 364.62 179.27 364.35"/>
        <polygon class="cls-6" points="179.27 364.08 194.58 363.58 194.58 363.85 179.27 364.35 179.27 364.08"/>
        <polygon class="cls-94" points="179.27 363.81 194.58 363.3 194.58 363.58 179.27 364.08 179.27 363.81"/>
        <polygon class="cls-17" points="179.27 363.53 194.58 363.03 194.58 363.3 179.27 363.81 179.27 363.53"/>
        <polygon class="cls-36" points="179.27 363.26 194.58 362.76 194.58 363.03 179.27 363.53 179.27 363.26"/>
        <polygon class="cls-46" points="179.27 362.99 194.58 362.49 194.58 362.76 179.27 363.26 179.27 362.99"/>
        <polygon class="cls-23" points="179.27 362.72 194.58 362.21 194.58 362.49 179.27 362.99 179.27 362.72"/>
        <polygon class="cls-52" points="179.27 362.44 194.58 361.94 194.58 362.21 179.27 362.72 179.27 362.44"/>
        <polygon class="cls-75" points="179.27 362.17 194.58 361.67 194.58 361.94 179.27 362.44 179.27 362.17"/>
        <polygon class="cls-61" points="179.27 361.9 194.58 361.4 194.58 361.67 179.27 362.17 179.27 361.9"/>
        <polygon class="cls-51" points="179.27 361.63 194.58 361.12 194.58 361.4 179.27 361.9 179.27 361.63"/>
        <polygon class="cls-39" points="179.27 361.35 194.58 360.85 194.58 361.12 179.27 361.63 179.27 361.35"/>
        <polygon class="cls-65" points="179.27 361.08 194.58 360.58 194.58 360.85 179.27 361.35 179.27 361.08"/>
        <polygon class="cls-55" points="179.27 360.81 194.58 360.31 194.58 360.58 179.27 361.08 179.27 360.81"/>
        <polygon class="cls-12" points="179.27 360.54 194.58 360.03 194.58 360.31 179.27 360.81 179.27 360.54"/>
        <polygon class="cls-91" points="179.27 360.26 194.58 359.76 194.58 360.03 179.27 360.54 179.27 360.26"/>
        <polygon class="cls-82" points="179.27 359.99 194.58 359.49 194.58 359.76 179.27 360.26 179.27 359.99"/>
        <polygon class="cls-68" points="179.27 359.72 194.58 359.22 194.58 359.49 179.27 359.99 179.27 359.72"/>
        <polygon class="cls-30" points="179.27 359.45 194.58 358.94 194.58 359.22 179.27 359.72 179.27 359.45"/>
        <polygon class="cls-10" points="179.27 359.17 194.58 358.67 194.58 358.94 179.27 359.45 179.27 359.17"/>
        <polygon class="cls-4" points="179.27 358.9 194.58 358.4 194.58 358.67 179.27 359.17 179.27 358.9"/>
        <polygon class="cls-56" points="179.27 358.63 194.58 358.13 194.58 358.4 179.27 358.9 179.27 358.63"/>
        <polygon class="cls-22" points="179.27 358.36 194.58 357.86 194.58 358.13 179.27 358.63 179.27 358.36"/>
        <polygon class="cls-15" points="179.27 358.08 194.58 357.58 194.58 357.86 179.27 358.36 179.27 358.08"/>
        <polygon class="cls-31" points="179.27 357.81 194.58 357.31 194.58 357.58 179.27 358.08 179.27 357.81"/>
        <polygon class="cls-86" points="179.27 357.54 194.58 357.04 194.58 357.31 179.27 357.81 179.27 357.54"/>
        <polygon class="cls-19" points="179.27 357.27 194.58 356.77 194.58 357.04 179.27 357.54 179.27 357.27"/>
        <polygon class="cls-87" points="179.27 356.99 194.58 356.49 194.58 356.77 179.27 357.27 179.27 356.99"/>
        <polygon class="cls-3" points="179.27 356.72 194.58 356.22 194.58 356.49 179.27 356.99 179.27 356.72"/>
        <polygon class="cls-70" points="179.27 356.45 194.58 355.95 194.58 356.22 179.27 356.72 179.27 356.45"/>
        <polygon class="cls-45" points="179.27 356.18 194.58 355.68 194.58 355.95 179.27 356.45 179.27 356.18"/>
        <polygon class="cls-24" points="179.27 355.9 194.58 355.4 194.58 355.68 179.27 356.18 179.27 355.9"/>
        <polygon class="cls-25" points="179.27 355.63 194.58 355.13 194.58 355.4 179.27 355.9 179.27 355.63"/>
        <polygon class="cls-64" points="179.27 355.36 194.58 354.86 194.58 355.13 179.27 355.63 179.27 355.36"/>
        <polygon class="cls-60" points="179.27 355.09 194.58 354.59 194.58 354.86 179.27 355.36 179.27 355.09"/>
        <polygon class="cls-16" points="179.27 354.81 194.58 354.31 194.58 354.59 179.27 355.09 179.27 354.81"/>
        <polygon class="cls-84" points="179.27 354.54 194.58 354.04 194.58 354.31 179.27 354.81 179.27 354.54"/>
        <polygon class="cls-54" points="179.27 354.27 194.58 353.77 194.58 354.04 179.27 354.54 179.27 354.27"/>
        <polygon class="cls-28" points="179.27 354 194.58 353.5 194.58 353.77 179.27 354.27 179.27 354"/>
        <polygon class="cls-33" points="179.27 353.73 194.58 353.22 194.58 353.5 179.27 354 179.27 353.73"/>
        <polygon class="cls-78" points="179.27 353.45 194.58 352.95 194.58 353.22 179.27 353.73 179.27 353.45"/>
        <polygon class="cls-59" points="179.27 353.18 194.58 352.68 194.58 352.95 179.27 353.45 179.27 353.18"/>
        <polygon class="cls-11" points="179.27 352.91 194.58 352.41 194.58 352.68 179.27 353.18 179.27 352.91"/>
        <polygon class="cls-9" points="179.27 352.64 194.58 352.13 194.58 352.41 179.27 352.91 179.27 352.64"/>
        <polygon class="cls-14" points="179.27 352.36 194.58 351.86 194.58 352.13 179.27 352.64 179.27 352.36"/>
        <polygon class="cls-2" points="179.27 352.09 194.58 351.59 194.58 351.86 179.27 352.36 179.27 352.09"/>
        <polygon class="cls-37" points="179.27 351.82 194.58 351.32 194.58 351.59 179.27 352.09 179.27 351.82"/>
        <polygon class="cls-63" points="179.27 351.55 194.58 351.04 194.58 351.32 179.27 351.82 179.27 351.55"/>
        <polygon class="cls-93" points="179.27 351.27 194.58 350.77 194.58 351.04 179.27 351.55 179.27 351.27"/>
        <polygon class="cls-79" points="179.27 351 194.58 350.5 194.58 350.77 179.27 351.27 179.27 351"/>
        <polygon class="cls-77" points="179.27 350.73 194.58 350.23 194.58 350.5 179.27 351 179.27 350.73"/>
        <polygon class="cls-80" points="179.27 350.46 194.58 349.95 194.58 350.23 179.27 350.73 179.27 350.46"/>
        <polygon class="cls-88" points="179.27 350.18 194.58 349.68 194.58 349.95 179.27 350.46 179.27 350.18"/>
        <polygon class="cls-53" points="179.27 349.91 194.58 349.41 194.58 349.68 179.27 350.18 179.27 349.91"/>
        <polygon class="cls-83" points="179.27 349.64 194.58 349.14 194.58 349.41 179.27 349.91 179.27 349.64"/>
        <polygon class="cls-81" points="179.27 349.37 194.58 348.86 194.58 349.14 179.27 349.64 179.27 349.37"/>
        <polygon class="cls-5" points="179.27 349.09 194.58 348.59 194.58 348.86 179.27 349.37 179.27 349.09"/>
        <polygon class="cls-71" points="179.27 348.82 194.58 348.32 194.58 348.59 179.27 349.09 179.27 348.82"/>
        <polygon class="cls-71" points="194.58 348.32 179.27 348.82 179.27 343.72 194.58 343.72 194.58 348.32"/>
      </g>
    </g>
    <g class="cls-41">
      <polygon class="cls-76" points="210.18 384.91 210.84 385.07 210.18 385.07 210.18 384.91"/>
      <polygon class="cls-76" points="210.18 384.63 212.03 385.07 210.84 385.07 210.18 384.91 210.18 384.63"/>
      <polygon class="cls-38" points="210.18 384.34 213.22 385.07 212.03 385.07 210.18 384.63 210.18 384.34"/>
      <polygon class="cls-74" points="210.18 384.05 214.42 385.07 213.22 385.07 210.18 384.34 210.18 384.05"/>
      <polygon class="cls-62" points="210.18 383.76 215.61 385.07 214.42 385.07 210.18 384.05 210.18 383.76"/>
      <polygon class="cls-92" points="210.18 383.47 216.8 385.07 215.61 385.07 210.18 383.76 210.18 383.47"/>
      <polygon class="cls-34" points="210.18 383.18 217.99 385.07 216.8 385.07 210.18 383.47 210.18 383.18"/>
      <polygon class="cls-13" points="210.18 382.89 219.18 385.07 217.99 385.07 210.18 383.18 210.18 382.89"/>
      <polygon class="cls-89" points="210.18 382.6 220.37 385.07 219.18 385.07 210.18 382.89 210.18 382.6"/>
      <polygon class="cls-8" points="210.18 382.31 221.57 385.07 220.37 385.07 210.18 382.6 210.18 382.31"/>
      <polygon class="cls-69" points="210.18 382.02 222.76 385.07 221.57 385.07 210.18 382.31 210.18 382.02"/>
      <polygon class="cls-48" points="210.18 381.74 223.95 385.07 222.76 385.07 210.18 382.02 210.18 381.74"/>
      <polygon class="cls-57" points="210.18 381.45 225.14 385.07 223.95 385.07 210.18 381.74 210.18 381.45"/>
      <polygon class="cls-7" points="210.18 381.16 225.92 384.97 225.9 385.07 225.14 385.07 210.18 381.45 210.18 381.16"/>
      <polygon class="cls-21" points="210.18 380.87 225.99 384.7 225.92 384.97 210.18 381.16 210.18 380.87"/>
      <polygon class="cls-32" points="210.18 380.58 226.05 384.43 225.99 384.7 210.18 380.87 210.18 380.58"/>
      <polygon class="cls-58" points="210.18 380.29 226.12 384.16 226.05 384.43 210.18 380.58 210.18 380.29"/>
      <polygon class="cls-72" points="210.18 380 226.18 383.88 226.12 384.16 210.18 380.29 210.18 380"/>
      <polygon class="cls-49" points="210.18 379.71 226.25 383.61 226.18 383.88 210.18 380 210.18 379.71"/>
      <polygon class="cls-73" points="210.18 379.42 226.32 383.34 226.25 383.61 210.18 379.71 210.18 379.42"/>
      <polygon class="cls-20" points="210.18 379.13 226.38 383.06 226.32 383.34 210.18 379.42 210.18 379.13"/>
      <polygon class="cls-26" points="210.18 378.85 226.45 382.79 226.38 383.06 210.18 379.13 210.18 378.85"/>
      <polygon class="cls-6" points="210.18 378.56 226.52 382.52 226.45 382.79 210.18 378.85 210.18 378.56"/>
      <polygon class="cls-94" points="210.18 378.27 226.58 382.25 226.52 382.52 210.18 378.56 210.18 378.27"/>
      <polygon class="cls-17" points="210.18 377.98 226.65 381.97 226.58 382.25 210.18 378.27 210.18 377.98"/>
      <polygon class="cls-36" points="210.18 377.69 226.71 381.7 226.65 381.97 210.18 377.98 210.18 377.69"/>
      <polygon class="cls-46" points="210.18 377.4 226.78 381.43 226.71 381.7 210.18 377.69 210.18 377.4"/>
      <polygon class="cls-23" points="210.18 377.11 226.85 381.15 226.78 381.43 210.18 377.4 210.18 377.11"/>
      <polygon class="cls-52" points="210.18 376.82 226.91 380.88 226.85 381.15 210.18 377.11 210.18 376.82"/>
      <polygon class="cls-75" points="210.18 376.53 226.98 380.61 226.91 380.88 210.18 376.82 210.18 376.53"/>
      <polygon class="cls-61" points="210.18 376.24 227.02 380.33 227.02 380.45 226.98 380.61 210.18 376.53 210.18 376.24"/>
      <polygon class="cls-51" points="210.18 375.96 227.02 380.04 227.02 380.33 210.18 376.24 210.18 375.96"/>
      <polygon class="cls-39" points="210.18 375.67 227.02 379.75 227.02 380.04 210.18 375.96 210.18 375.67"/>
      <polygon class="cls-65" points="210.18 375.38 227.02 379.46 227.02 379.75 210.18 375.67 210.18 375.38"/>
      <polygon class="cls-55" points="210.18 375.09 227.02 379.17 227.02 379.46 210.18 375.38 210.18 375.09"/>
      <polygon class="cls-12" points="210.18 374.8 227.02 378.88 227.02 379.17 210.18 375.09 210.18 374.8"/>
      <polygon class="cls-91" points="210.18 374.51 227.02 378.59 227.02 378.88 210.18 374.8 210.18 374.51"/>
      <polygon class="cls-82" points="210.18 374.22 227.02 378.3 227.02 378.59 210.18 374.51 210.18 374.22"/>
      <polygon class="cls-68" points="210.18 373.93 227.02 378.02 227.02 378.3 210.18 374.22 210.18 373.93"/>
      <polygon class="cls-30" points="210.18 373.64 227.02 377.73 227.02 378.02 210.18 373.93 210.18 373.64"/>
      <polygon class="cls-10" points="210.18 373.35 227.02 377.44 227.02 377.73 210.18 373.64 210.18 373.35"/>
      <polygon class="cls-4" points="210.18 373.07 227.02 377.15 227.02 377.44 210.18 373.35 210.18 373.07"/>
      <polygon class="cls-56" points="210.18 372.78 227.02 376.86 227.02 377.15 210.18 373.07 210.18 372.78"/>
      <polygon class="cls-22" points="210.18 372.49 227.02 376.57 227.02 376.86 210.18 372.78 210.18 372.49"/>
      <polygon class="cls-15" points="210.18 372.2 227.02 376.28 227.02 376.57 210.18 372.49 210.18 372.2"/>
      <polygon class="cls-31" points="210.18 371.91 227.02 375.99 227.02 376.28 210.18 372.2 210.18 371.91"/>
      <polygon class="cls-86" points="210.18 371.62 227.02 375.7 227.02 375.99 210.18 371.91 210.18 371.62"/>
      <polygon class="cls-19" points="210.18 371.33 227.02 375.42 227.02 375.7 210.18 371.62 210.18 371.33"/>
      <polygon class="cls-87" points="210.18 371.04 227.02 375.13 227.02 375.42 210.18 371.33 210.18 371.04"/>
      <polygon class="cls-3" points="210.18 370.75 227.02 374.84 227.02 375.13 210.18 371.04 210.18 370.75"/>
      <polygon class="cls-70" points="210.18 370.46 227.02 374.55 227.02 374.84 210.18 370.75 210.18 370.46"/>
      <polygon class="cls-45" points="210.18 370.18 227.02 374.26 227.02 374.55 210.18 370.46 210.18 370.18"/>
      <polygon class="cls-24" points="210.18 369.89 227.02 373.97 227.02 374.26 210.18 370.18 210.18 369.89"/>
      <polygon class="cls-25" points="210.18 369.6 227.02 373.68 227.02 373.97 210.18 369.89 210.18 369.6"/>
      <polygon class="cls-64" points="210.18 369.31 227.02 373.39 227.02 373.68 210.18 369.6 210.18 369.31"/>
      <polygon class="cls-60" points="210.18 369.02 227.02 373.1 227.02 373.39 210.18 369.31 210.18 369.02"/>
      <polygon class="cls-16" points="210.18 368.73 227.02 372.81 227.02 373.1 210.18 369.02 210.18 368.73"/>
      <polygon class="cls-84" points="210.18 368.44 227.02 372.53 227.02 372.81 210.18 368.73 210.18 368.44"/>
      <polygon class="cls-54" points="210.18 368.15 227.02 372.24 227.02 372.53 210.18 368.44 210.18 368.15"/>
      <polygon class="cls-28" points="210.18 367.86 227.02 371.95 227.02 372.24 210.18 368.15 210.18 367.86"/>
      <polygon class="cls-33" points="210.18 367.75 210.23 367.58 227.02 371.66 227.02 371.95 210.18 367.86 210.18 367.75"/>
      <polygon class="cls-78" points="210.23 367.58 210.29 367.31 227.02 371.37 227.02 371.66 210.23 367.58"/>
      <polygon class="cls-59" points="210.29 367.31 210.36 367.04 227.02 371.08 227.02 371.37 210.29 367.31"/>
      <polygon class="cls-11" points="210.36 367.04 210.42 366.77 227.02 370.79 227.02 371.08 210.36 367.04"/>
      <polygon class="cls-9" points="210.42 366.77 210.49 366.49 227.02 370.5 227.02 370.79 210.42 366.77"/>
      <polygon class="cls-14" points="210.49 366.49 210.56 366.22 227.02 370.21 227.02 370.5 210.49 366.49"/>
      <polygon class="cls-2" points="210.56 366.22 210.62 365.95 227.02 369.92 227.02 370.21 210.56 366.22"/>
      <polygon class="cls-37" points="210.62 365.95 210.69 365.67 227.02 369.64 227.02 369.92 210.62 365.95"/>
      <polygon class="cls-63" points="210.69 365.67 210.75 365.4 227.02 369.35 227.02 369.64 210.69 365.67"/>
      <polygon class="cls-93" points="210.75 365.4 210.82 365.13 227.02 369.06 227.02 369.35 210.75 365.4"/>
      <polygon class="cls-79" points="210.82 365.13 210.89 364.86 227.02 368.77 227.02 369.06 210.82 365.13"/>
      <polygon class="cls-77" points="210.89 364.86 210.95 364.58 227.02 368.48 227.02 368.77 210.89 364.86"/>
      <polygon class="cls-80" points="210.95 364.58 211.02 364.31 227.02 368.19 227.02 368.48 210.95 364.58"/>
      <polygon class="cls-88" points="211.02 364.31 211.09 364.04 227.02 367.9 227.02 368.19 211.02 364.31"/>
      <polygon class="cls-53" points="211.09 364.04 211.15 363.76 227.02 367.61 227.02 367.9 211.09 364.04"/>
      <polygon class="cls-83" points="211.15 363.76 211.22 363.49 227.02 367.32 227.02 367.61 211.15 363.76"/>
      <polygon class="cls-81" points="211.22 363.49 211.28 363.22 227.02 367.03 227.02 367.32 211.22 363.49"/>
      <polygon class="cls-5" points="211.28 363.22 211.35 362.94 227.02 366.75 227.02 367.03 211.28 363.22"/>
      <polygon class="cls-71" points="211.35 362.94 211.42 362.67 227.02 366.46 227.02 366.75 211.35 362.94"/>
      <polygon class="cls-71" points="211.42 362.67 211.73 361.4 227.02 361.4 227.02 366.46 211.42 362.67"/>
    </g>
    <g class="cls-42">
      <polygon class="cls-76" points="153.9 377.22 154.3 377.14 154.3 377.22 153.9 377.22"/>
      <polygon class="cls-76" points="152.55 377.22 154.3 376.85 154.3 377.14 153.9 377.22 152.55 377.22"/>
      <polygon class="cls-38" points="151.2 377.22 154.3 376.56 154.3 376.85 152.55 377.22 151.2 377.22"/>
      <polygon class="cls-74" points="149.85 377.22 154.3 376.28 154.3 376.56 151.2 377.22 149.85 377.22"/>
      <polygon class="cls-62" points="148.5 377.22 154.3 375.99 154.3 376.28 149.85 377.22 148.5 377.22"/>
      <polygon class="cls-92" points="147.15 377.22 154.3 375.7 154.3 375.99 148.5 377.22 147.15 377.22"/>
      <polygon class="cls-34" points="145.8 377.22 154.3 375.42 154.3 375.7 147.15 377.22 145.8 377.22"/>
      <polygon class="cls-13" points="144.45 377.22 154.3 375.13 154.3 375.42 145.8 377.22 144.45 377.22"/>
      <polygon class="cls-89" points="143.1 377.22 154.3 374.84 154.3 375.13 144.45 377.22 143.1 377.22"/>
      <polygon class="cls-8" points="141.75 377.22 154.3 374.55 154.3 374.84 143.1 377.22 141.75 377.22"/>
      <polygon class="cls-69" points="140.4 377.22 154.3 374.27 154.3 374.55 141.75 377.22 140.4 377.22"/>
      <polygon class="cls-48" points="139.05 377.22 154.3 373.98 154.3 374.27 140.4 377.22 139.05 377.22"/>
      <polygon class="cls-57" points="138.12 377.22 138.1 377.14 154.3 373.69 154.3 373.98 139.05 377.22 138.12 377.22"/>
      <polygon class="cls-7" points="138.1 377.14 138.05 376.86 154.3 373.41 154.3 373.69 138.1 377.14"/>
      <polygon class="cls-21" points="138.05 376.86 137.99 376.59 154.3 373.12 154.3 373.41 138.05 376.86"/>
      <polygon class="cls-32" points="137.99 376.59 137.93 376.31 154.3 372.83 154.3 373.12 137.99 376.59"/>
      <polygon class="cls-58" points="137.93 376.31 137.87 376.04 154.3 372.54 154.3 372.83 137.93 376.31"/>
      <polygon class="cls-72" points="137.87 376.04 137.81 375.76 154.3 372.26 154.3 372.54 137.87 376.04"/>
      <polygon class="cls-49" points="137.81 375.76 137.75 375.49 154.3 371.97 154.3 372.26 137.81 375.76"/>
      <polygon class="cls-73" points="137.75 375.49 137.7 375.21 154.3 371.68 154.3 371.97 137.75 375.49"/>
      <polygon class="cls-20" points="137.7 375.21 137.64 374.94 154.3 371.4 154.3 371.68 137.7 375.21"/>
      <polygon class="cls-26" points="137.64 374.94 137.58 374.67 154.3 371.11 154.3 371.4 137.64 374.94"/>
      <polygon class="cls-6" points="137.58 374.67 137.52 374.39 154.3 370.82 154.3 371.11 137.58 374.67"/>
      <polygon class="cls-94" points="137.52 374.39 137.46 374.12 154.3 370.53 154.3 370.82 137.52 374.39"/>
      <polygon class="cls-17" points="137.46 374.12 137.4 373.84 154.3 370.25 154.3 370.53 137.46 374.12"/>
      <polygon class="cls-36" points="137.4 373.84 137.34 373.57 154.3 369.96 154.3 370.25 137.4 373.84"/>
      <polygon class="cls-46" points="137.34 373.57 137.29 373.29 154.3 369.67 154.3 369.96 137.34 373.57"/>
      <polygon class="cls-23" points="137.29 373.29 137.23 373.02 154.3 369.39 154.3 369.67 137.29 373.29"/>
      <polygon class="cls-52" points="137.23 373.02 137.17 372.74 154.3 369.1 154.3 369.39 137.23 373.02"/>
      <polygon class="cls-75" points="137.17 372.74 137.11 372.47 154.3 368.81 154.3 369.1 137.17 372.74"/>
      <polygon class="cls-61" points="137.11 372.47 137.05 372.19 154.3 368.52 154.3 368.81 137.11 372.47"/>
      <polygon class="cls-51" points="137.05 372.19 136.99 371.92 154.3 368.24 154.3 368.52 137.05 372.19"/>
      <polygon class="cls-39" points="136.99 371.92 136.97 371.79 136.97 371.64 154.3 367.95 154.3 368.24 136.99 371.92"/>
      <polygon class="cls-65" points="136.97 371.35 154.3 367.66 154.3 367.95 136.97 371.64 136.97 371.35"/>
      <polygon class="cls-55" points="136.97 371.06 154.3 367.38 154.3 367.66 136.97 371.35 136.97 371.06"/>
      <polygon class="cls-12" points="136.97 370.78 154.3 367.09 154.3 367.38 136.97 371.06 136.97 370.78"/>
      <polygon class="cls-91" points="136.97 370.49 154.3 366.8 154.3 367.09 136.97 370.78 136.97 370.49"/>
      <polygon class="cls-82" points="136.97 370.2 154.3 366.51 154.3 366.8 136.97 370.49 136.97 370.2"/>
      <polygon class="cls-68" points="136.97 369.91 154.3 366.23 154.3 366.51 136.97 370.2 136.97 369.91"/>
      <polygon class="cls-30" points="136.97 369.63 154.3 365.94 154.3 366.23 136.97 369.91 136.97 369.63"/>
      <polygon class="cls-10" points="136.97 369.34 154.3 365.65 154.3 365.94 136.97 369.63 136.97 369.34"/>
      <polygon class="cls-4" points="136.97 369.05 154.3 365.37 154.3 365.65 136.97 369.34 136.97 369.05"/>
      <polygon class="cls-56" points="136.97 368.77 154.3 365.08 154.3 365.37 136.97 369.05 136.97 368.77"/>
      <polygon class="cls-22" points="136.97 368.48 154.3 364.79 154.3 365.08 136.97 368.77 136.97 368.48"/>
      <polygon class="cls-15" points="136.97 368.19 154.3 364.5 154.3 364.79 136.97 368.48 136.97 368.19"/>
      <polygon class="cls-31" points="136.97 367.9 154.3 364.22 154.3 364.5 136.97 368.19 136.97 367.9"/>
      <polygon class="cls-86" points="136.97 367.62 154.3 363.93 154.3 364.22 136.97 367.9 136.97 367.62"/>
      <polygon class="cls-19" points="136.97 367.33 154.3 363.64 154.3 363.93 136.97 367.62 136.97 367.33"/>
      <polygon class="cls-87" points="136.97 367.04 154.3 363.36 154.3 363.64 136.97 367.33 136.97 367.04"/>
      <polygon class="cls-3" points="136.97 366.76 154.3 363.07 154.3 363.36 136.97 367.04 136.97 366.76"/>
      <polygon class="cls-70" points="136.97 366.47 154.3 362.78 154.3 363.07 136.97 366.76 136.97 366.47"/>
      <polygon class="cls-45" points="136.97 366.18 154.3 362.49 154.3 362.78 136.97 366.47 136.97 366.18"/>
      <polygon class="cls-24" points="136.97 365.89 154.3 362.21 154.3 362.49 136.97 366.18 136.97 365.89"/>
      <polygon class="cls-25" points="136.97 365.61 154.3 361.92 154.3 362.21 136.97 365.89 136.97 365.61"/>
      <polygon class="cls-64" points="136.97 365.32 154.3 361.63 154.3 361.92 136.97 365.61 136.97 365.32"/>
      <polygon class="cls-60" points="136.97 365.03 154.3 361.35 154.3 361.63 136.97 365.32 136.97 365.03"/>
      <polygon class="cls-16" points="136.97 364.75 154.3 361.06 154.3 361.35 136.97 365.03 136.97 364.75"/>
      <polygon class="cls-84" points="136.97 364.46 154.3 360.77 154.3 361.06 136.97 364.75 136.97 364.46"/>
      <polygon class="cls-54" points="136.97 364.17 154.3 360.48 154.3 360.77 136.97 364.46 136.97 364.17"/>
      <polygon class="cls-28" points="136.97 363.88 154.29 360.2 154.3 360.26 154.3 360.48 136.97 364.17 136.97 363.88"/>
      <polygon class="cls-33" points="136.97 363.6 154.23 359.93 154.29 360.2 136.97 363.88 136.97 363.6"/>
      <polygon class="cls-78" points="136.97 363.31 154.17 359.65 154.23 359.93 136.97 363.6 136.97 363.31"/>
      <polygon class="cls-59" points="136.97 363.02 154.11 359.38 154.17 359.65 136.97 363.31 136.97 363.02"/>
      <polygon class="cls-11" points="136.97 362.74 154.05 359.1 154.11 359.38 136.97 363.02 136.97 362.74"/>
      <polygon class="cls-9" points="136.97 362.45 153.99 358.83 154.05 359.1 136.97 362.74 136.97 362.45"/>
      <polygon class="cls-14" points="136.97 362.16 153.94 358.55 153.99 358.83 136.97 362.45 136.97 362.16"/>
      <polygon class="cls-2" points="136.97 361.87 153.88 358.28 153.94 358.55 136.97 362.16 136.97 361.87"/>
      <polygon class="cls-37" points="136.97 361.59 153.82 358 153.88 358.28 136.97 361.87 136.97 361.59"/>
      <polygon class="cls-63" points="136.97 361.3 153.76 357.73 153.82 358 136.97 361.59 136.97 361.3"/>
      <polygon class="cls-93" points="136.97 361.01 153.7 357.45 153.76 357.73 136.97 361.3 136.97 361.01"/>
      <polygon class="cls-79" points="136.97 360.73 153.64 357.18 153.7 357.45 136.97 361.01 136.97 360.73"/>
      <polygon class="cls-77" points="136.97 360.44 153.58 356.9 153.64 357.18 136.97 360.73 136.97 360.44"/>
      <polygon class="cls-80" points="136.97 360.15 153.53 356.63 153.58 356.9 136.97 360.44 136.97 360.15"/>
      <polygon class="cls-88" points="136.97 359.86 153.47 356.35 153.53 356.63 136.97 360.15 136.97 359.86"/>
      <polygon class="cls-53" points="136.97 359.58 153.41 356.08 153.47 356.35 136.97 359.86 136.97 359.58"/>
      <polygon class="cls-83" points="136.97 359.29 153.35 355.8 153.41 356.08 136.97 359.58 136.97 359.29"/>
      <polygon class="cls-81" points="136.97 359 153.29 355.53 153.35 355.8 136.97 359.29 136.97 359"/>
      <polygon class="cls-5" points="136.97 358.72 153.23 355.26 153.29 355.53 136.97 359 136.97 358.72"/>
      <polygon class="cls-71" points="136.97 358.43 153.18 354.98 153.23 355.26 136.97 358.72 136.97 358.43"/>
      <polygon class="cls-71" points="152.89 353.62 153.18 354.98 136.97 358.43 136.97 353.62 152.89 353.62"/>
    </g>
  </g>
  <g class="cls-66">
    <g class="cls-44">
      <rect class="cls-47" x="108.14" y="411.18" width="136.16" height="7.26"/>
      <rect class="cls-47" x="108.14" y="215.91" width="136.16" height="195.27"/>
      <rect class="cls-47" x="108.14" y="211.49" width="136.16" height="4.42"/>
    </g>
  </g>
  <path class="cls-47" d="M176.22,412.68c-17.97,0-34.74-1.95-47.21-5.5-14.63-4.16-22.36-10.3-22.36-17.77l4.81-125.75c.16-4.24,2.62-8.05,6.41-9.94l4.64-2.32c.44-.22.48-.63.47-.8,0-.17-.07-.57-.52-.76l-6.08-2.57c-2.85-1.2-4.69-3.98-4.69-7.07v-11.03c0-14.34,57.93-14.75,64.54-14.75s64.53.41,64.53,14.75v11.03c0,3.09-1.84,5.87-4.69,7.07l-6.08,2.57c-.46.19-.52.6-.52.76,0,.17.03.57.47.8l4.64,2.32c3.79,1.9,6.25,5.71,6.41,9.94l4.81,125.75c0,7.47-7.73,13.61-22.36,17.77-12.48,3.55-29.24,5.5-47.21,5.5ZM176.22,217.41c-38.52,0-61.54,5.98-61.54,11.75v11.03c0,1.88,1.12,3.58,2.86,4.31l6.08,2.57c1.4.59,2.3,1.91,2.35,3.43.05,1.52-.77,2.89-2.13,3.57l-4.64,2.32c-2.81,1.41-4.64,4.23-4.76,7.38l-4.81,125.69c0,10.01,22.87,20.21,66.58,20.21s66.54-10.18,66.58-20.24l-4.81-125.66c-.12-3.14-1.94-5.97-4.76-7.38l-4.64-2.32c-1.36-.68-2.18-2.05-2.13-3.57.05-1.52.95-2.84,2.35-3.43l6.08-2.57c1.73-.73,2.86-2.43,2.86-4.31v-11.03c0-1.18-1.33-5.26-18.47-8.47-11.34-2.12-26.64-3.29-43.06-3.29Z"/>
  <path class="cls-47" d="M176.22,223.2c13.76,0,27,.79,37.26,2.22,9.69,1.35,13.91,2.87,15.66,3.74-1.75.88-5.97,2.39-15.66,3.74-10.26,1.43-23.5,2.22-37.26,2.22s-27-.79-37.26-2.22c-9.69-1.35-13.91-2.87-15.66-3.74,1.75-.88,5.97-2.39,15.66-3.74,10.26-1.43,23.5-2.22,37.26-2.22M176.22,220.2c-31.41,0-56.87,4.01-56.87,8.96s25.46,8.96,56.87,8.96,56.87-4.01,56.87-8.96-25.46-8.96-56.87-8.96h0Z"/>
  <path class="cls-47" d="M181.44,255.25c-14.85,0-30.66-1.13-47.66-3.39-.82-.11-1.4-.86-1.29-1.68.11-.82.87-1.4,1.69-1.29,33.71,4.49,62.7,4.49,88.64,0,.82-.14,1.59.41,1.73,1.22.14.82-.41,1.59-1.22,1.73-13.13,2.27-27.02,3.4-41.89,3.4Z"/>
  <path class="cls-35" d="M302.76,215.45l23.02-19.59c.51-.43.77-1.09.69-1.75-.08-.66-.48-1.24-1.07-1.55l-20.73-10.65c-.99-.5-2.19-.12-2.69.87-.5.98-.12,2.19.87,2.69l18.07,9.28-23.62,20.1c-6.06,1.14-12.54,9.38-14.42,13.71-.44,1.01.03,2.19,1.04,2.63.26.11.53.17.79.17.77,0,1.51-.45,1.84-1.2,1.16-2.68,4.01-6.39,6.95-8.84-1.2,2.72-2.08,5.46-2.62,8.22-.21,1.08.5,2.13,1.58,2.35.13.03.26.04.38.04.94,0,1.77-.66,1.96-1.62.76-3.91,2.29-7.82,4.54-11.64.33-.01.57,0,.76.01.1.83.73,1.54,1.6,1.71,1.08.21,2.13-.5,2.35-1.58.22-1.12-.05-2.15-.74-2.9-.16-.18-.34-.33-.53-.46Z"/>
  <path class="cls-35" d="M255.19,110.1c-17.84-21.13-33.81-42.97-42.05-67.75-.94-2.84-3.11-5.19-5.95-6.15-11.5-3.89-20.41,17.87-10.28,44.01-16.55-8.93-18.4,3.72-4.11,19.05l62.38,10.83Z"/>
  <path class="cls-85" d="M168.16,131.58c1.49-23.35,16.81-38.66,40.34-38.66,7.75,0,23.62,1.06,46.62,12.9,1.57.81,3.28,1.29,5.03,1.46,44.9,4.44,94.63-31.94,104.98-59.59.34-.92,1.7-.72,1.76.27,1.27,21.42,2.2,107.59-60.33,148.63-40.51,26.58-68.92-16.81-68.92-16.81-5.35-5.4-14.86-10.07-25.42-14.57-3.58,12.98-8.27,24.04-13.42,34.52-.46.94-1.86.73-2.03-.31-2.03-13.09-3.54-23.65-5.11-34.76-.14-.98-1.3-1.43-2.05-.79-7.79,6.66-18.12,16.93-25.62,29.25-.57.93-2.01.54-2-.55.07-21.22,1.37-41.88,6.16-60.98Z"/>
  <path class="cls-35" d="M354.86,167.69c-.25-.52-.72-.91-1.28-1.06l-20.73-5.6c-1.07-.29-2.16.34-2.45,1.41-.29,1.07.34,2.16,1.41,2.45l18.5,5-12.69,29.45c-6.23,1.6-11.25,6.02-14.91,13.13-.51.98-.12,2.19.86,2.69.29.15.61.22.91.22.73,0,1.42-.4,1.78-1.08,2.17-4.22,4.77-7.25,7.85-9.16-1.49,3.06-2.1,5.75-2.58,7.92l-.04.17c-.24,1.08.44,2.15,1.52,2.39.15.03.29.05.44.05.92,0,1.74-.63,1.95-1.57l.04-.17c.66-2.96,1.47-6.6,4.58-10.84,1.19.06,1.76.19,2.01.27.4.79,1.29,1.25,2.2,1.05,1.08-.23,1.77-1.29,1.54-2.37-.38-1.79-2.06-2.5-3.77-2.78l12.89-29.91c.23-.53.22-1.14-.04-1.66Z"/>
  <g>
    <path class="cls-85" d="M264.61,141.11c16.5-32.24,20.61-68.36,12.8-108.22-.52-2.66-.59-5.43.05-8.06,4.94-20.32,38.86,6.1,47.03,46.25,15.88-28.58,32.95-9.8,11.21,34.74,36.05-10.65,1.31,44.26-42.58,44.26"/>
    <path class="cls-27" d="M293.1,151.07c-.55,0-1-.45-1-1s.45-1,1-1c25.75,0,48.91-19.57,55.08-33.09,1.82-3.99,2-7.13.51-8.85-1.84-2.11-6.36-2.24-12.72-.36-.38.11-.79-.01-1.05-.31-.26-.3-.31-.73-.13-1.08,13.32-27.29,11.62-43.58,6.15-46.43-4.04-2.1-10.16,2.85-15.59,12.62-.2.37-.62.57-1.03.5-.41-.06-.74-.38-.83-.79-2.79-13.73-8.92-27.07-17.24-37.55-7.22-9.09-15.25-14.8-20.97-14.91-3.52-.04-5.84,2.03-6.87,6.25-.56,2.32-.58,4.89-.04,7.64,7.86,40.16,3.53,76.79-12.89,108.87-.25.49-.85.69-1.35.43-.49-.25-.69-.85-.43-1.35,16.21-31.67,20.48-67.86,12.71-107.57-.59-3.03-.57-5.89.06-8.49,1.24-5.1,4.34-7.87,8.85-7.77,12.87.24,32.91,23.06,39.58,51.53,6.8-11.15,13.15-13.17,16.96-11.18,7.04,3.67,7.79,21.34-4.34,47.11,6.21-1.51,10.47-1,12.67,1.54,2.06,2.38,2,6.18-.2,10.99-6.39,14-30.32,34.26-56.9,34.26Z"/>
  </g>
  <circle class="cls-50" cx="207.38" cy="130.27" r="23.22"/>
  <ellipse class="cls-35" cx="205.76" cy="134.38" rx="16.06" ry="17.43" transform="translate(17.66 292.54) rotate(-73.21)"/>
  <g>
    <g>
      <circle class="cls-76" cx="179.2" cy="203.95" r="18.43"/>
      <path class="cls-71" d="M179.2,222.79c-10.39,0-18.84-8.45-18.84-18.84s8.45-18.84,18.84-18.84,18.84,8.45,18.84,18.84-8.45,18.84-18.84,18.84ZM179.2,185.94c-9.93,0-18.01,8.08-18.01,18.01s8.08,18.01,18.01,18.01,18.01-8.08,18.01-18.01-8.08-18.01-18.01-18.01Z"/>
    </g>
    <path class="cls-71" d="M176.43,196.64l-.04-.69c-.04-.65.1-1.14.43-1.49.33-.35.8-.55,1.42-.61.66-.06,1.17,0,1.54.21.36.2.58.64.64,1.33l.08.88c1.25.13,2.3.46,3.15.99.84.53,1.29,1.1,1.35,1.72.02.21-.01.4-.09.56-.08.16-.18.28-.32.35-.13.08-.27.12-.43.14-.26.02-.66-.07-1.2-.29-.54-.22-1.14-.43-1.79-.64-.65-.21-1.25-.29-1.78-.24-.85.08-1.24.46-1.18,1.15.02.22.11.41.26.59s.39.36.71.54c.32.18.63.34.93.47s.71.31,1.24.53c.53.22.97.41,1.33.58,1.16.53,1.99,1.06,2.49,1.6s.78,1.17.85,1.92c.23,2.55-1.14,4.14-4.1,4.77l.06.71c.08.83-.04,1.42-.34,1.75-.3.34-.81.54-1.53.6s-1.21-.04-1.56-.31-.56-.77-.62-1.5l-.1-1.1c-.88-.14-1.68-.37-2.4-.69-.72-.33-1.28-.68-1.67-1.07-.39-.39-.6-.77-.63-1.15-.03-.31.05-.59.24-.83.19-.24.48-.38.88-.42.3-.03,1.04.1,2.22.37,1.18.28,2.12.38,2.82.32.64-.06.95-.31.91-.75-.01-.13-.05-.24-.11-.35-.06-.1-.16-.2-.29-.3s-.28-.18-.44-.26c-.16-.08-.38-.18-.66-.3l-.83-.36c-.28-.12-.64-.27-1.09-.46-.45-.19-.89-.38-1.31-.57-.81-.37-1.47-.89-1.96-1.55-.49-.66-.77-1.29-.82-1.89-.09-.96.19-1.82.83-2.58.64-.76,1.61-1.32,2.9-1.68Z"/>
  </g>
</svg>