<?xml version="1.0" encoding="UTF-8"?>
<svg id="Layer_4" data-name="Layer 4" xmlns="http://www.w3.org/2000/svg" viewBox="0 0 280 280">
  <defs>
    <style>
      .cls-1 {
        fill: #aac666;
      }

      .cls-2 {
        fill: #758936;
      }

      .cls-3 {
        fill: #51372a;
      }

      .cls-4 {
        fill: #e85656;
      }
    </style>
  </defs>
  <path class="cls-4" d="M128.88,93.48c4.36.92,8.91.22,12.79-1.96,10.89-6.13,35.49-16.39,60.95-2.5,60.48,32.99,27.19,122.73,2.33,142.15-17.4,13.59-52.04,2.33-52.04,2.33,0,0-20.98,14.87-35.73,13.98-64.47-3.88-89.33-97.87-64.47-132.05,21.64-29.76,60.42-25.28,76.17-21.95Z"/>
  <path class="cls-3" d="M137.38,108.05c-.27,0-.54-.02-.82-.05-3.62-.45-6.2-3.74-5.75-7.37,1.85-15.04-3.66-31.79-14.39-43.71-2.44-2.71-2.22-6.89.49-9.33,2.72-2.44,6.89-2.22,9.33.49,13.21,14.68,19.98,35.43,17.68,54.16-.41,3.35-3.26,5.8-6.55,5.8Z"/>
  <g>
    <path class="cls-1" d="M137.85,85.65c-2.3-43.36,46.61-65.03,79.76-46.52,2.49,1.39,3.23,4.66,1.61,7.01-17.68,25.63-41.85,42.09-76.22,44.14-2.7.16-5.01-1.93-5.15-4.63Z"/>
    <path class="cls-2" d="M140.92,88.62c-.52,0-1.04-.17-1.48-.51-1.04-.82-1.22-2.33-.41-3.37,13.49-17.18,25.32-25.49,42.2-29.62,1.29-.32,2.59.47,2.91,1.76.32,1.29-.47,2.59-1.76,2.91-15.71,3.85-26.8,11.68-39.56,27.92-.47.6-1.18.92-1.89.92Z"/>
  </g>
</svg>