<?xml version="1.0" encoding="UTF-8"?>
<svg id="Layer_6" data-name="Layer 6" xmlns="http://www.w3.org/2000/svg" viewBox="0 0 165.5 187.3">
  <defs>
    <style>
      .cls-1 {
        fill: #27232b;
      }

      .cls-2 {
        fill: #838091;
      }

      .cls-3 {
        fill: #1f1d21;
      }

      .cls-4 {
        fill: #423b49;
      }
    </style>
  </defs>
  <path class="cls-1" d="M27.55,100.66c-11.46,25.21-18.24,46.51,19.49,57.34l-19.49-57.34Z"/>
  <path class="cls-3" d="M75.7,163.37l-9.52-13.55c-.48-.68-1.42-.84-2.09-.37-.68.48-.84,1.41-.37,2.09l8.83,12.57-10.5,11.59c-4.6,1.53-8.37,6.51-9.37,9.63-.25.79.18,1.63.97,1.88.15.05.31.07.46.07.63,0,1.22-.41,1.43-1.04.55-1.73,2.25-4.19,4.39-5.93-.54,2.02-.61,3.94-.19,5.81.16.7.78,1.17,1.46,1.17.11,0,.22-.01.33-.04.81-.18,1.32-.98,1.14-1.79-.47-2.09-.11-4.33,1.08-6.85,1.8.23,2.32.58,2.42.67.31.73,1.14,1.1,1.89.83.78-.28,1.18-1.14.9-1.92-.44-1.21-1.67-1.86-3.1-2.23l9.71-10.73c.47-.52.52-1.3.12-1.87Z"/>
  <path class="cls-3" d="M105.84,161.11l-9.52-13.55c-.48-.68-1.42-.84-2.09-.37-.68.48-.84,1.41-.37,2.09l8.83,12.57-10.5,11.59c-4.6,1.53-8.37,6.51-9.37,9.63-.25.79.18,1.63.97,1.88.15.05.31.07.46.07.63,0,1.22-.41,1.43-1.04.55-1.73,2.25-4.19,4.39-5.93-.54,2.02-.61,3.94-.19,5.81.16.7.78,1.17,1.46,1.17.11,0,.22-.01.33-.04.81-.18,1.32-.98,1.14-1.79-.47-2.09-.11-4.33,1.08-6.85,1.8.23,2.32.58,2.42.67.31.73,1.14,1.1,1.89.83.78-.28,1.18-1.14.9-1.92-.44-1.21-1.67-1.86-3.1-2.23l9.71-10.73c.47-.52.52-1.3.12-1.87Z"/>
  <path class="cls-4" d="M60.72,65.69c-4.2-7.28-19.89-10.37-30.82-7.28S5.03,83.58,1.73,96.34c-.17.67.58,1.19,1.16.82,5.32-3.46,12.45-7.63,18.04-4.58l4.47,4.06c1.06.97,1.66,2.33,1.63,3.77-.17,9.33.27,45.27,16.31,55.48,23.37,14.87,72.63,1.03,96.51-26.19.96-1.1-.03-2.78-1.45-2.46l-13.84,3.11c-5.95,1.34-12.2.63-17.68-2.05-17.81-8.71-28.81-17.41-36.54-31.69-.44-.82-.79-1.68-1.06-2.57,0,0-4.36-21.08-8.56-28.36Z"/>
  <path class="cls-3" d="M54.71,82.96c-.83,0-1.61-.52-1.89-1.36-2-5.88-6.96-7.89-10.72-7.26-2.69.45-5.56,2.42-5.56,6.62,0,1.1-.9,2-2,2s-2-.9-2-2c0-5.52,3.49-9.67,8.9-10.56,5.37-.89,12.41,1.83,15.16,9.92.36,1.05-.2,2.18-1.25,2.54-.21.07-.43.11-.65.11Z"/>
  <path class="cls-3" d="M99.8,5.77C33.19-15.82,0,30.12,0,30.12c18.63.48,35.79,2.58,44.24,14.34,13.95-3.89,26.2.29,37.07,11.04l-19.39,70.05c-1.82,4.47-5.49,5.62-8.35,4.76-2.49-.75-5.06-3.27-4.09-7.94.28-1.35-.59-2.67-1.94-2.96-1.36-.29-2.68.59-2.96,1.94-1.55,7.43,2.83,12.33,7.55,13.75,1.02.3,2.11.47,3.22.47,4.27,0,8.91-2.38,11.26-8.3.03-.08.06-.17.08-.25l19.55-70.64c12.71-1.64,24.13,2.13,33.94,12.7,12.97-2.69,28.44,3.51,45.31,14.68,0,0,.9-56.4-65.7-77.99Z"/>
  <g>
    <path class="cls-4" d="M101.87,129.33c-12.7,7.66-19.12,1.49-14.57-3.08-19.7,1.21-26.3-16.65-4.55-10.83,0,0-31.85-19.24-18.46-22.79s34.1,5.45,41.81,11.21.77,24.47.77,24.47"/>
    <path class="cls-2" d="M91.21,133.97c-2.57,0-4.45-.85-5.5-2.19-1.02-1.3-1.13-2.93-.39-4.48-8.4-.03-14.57-3.52-16.49-7.23-.89-1.72-.81-3.44.21-4.71,1.45-1.8,4.47-2.46,8.72-1.96-1.99-1.33-4.42-3.01-6.82-4.83-7.78-5.92-11.34-10.3-10.9-13.39.24-1.7,1.59-2.88,3.99-3.52,7.73-2.05,17.1.03,23.6,2.13,7.16,2.31,14.65,5.94,19.07,9.24,8.22,6.13,1.4,24.83,1.11,25.62-.19.52-.77.79-1.29.59-.52-.19-.78-.77-.59-1.29.07-.18,6.6-18.08-.43-23.32-7.77-5.8-28.11-14.45-40.96-11.04-1.56.41-2.41,1.04-2.53,1.87-.6,4.2,12.71,13.94,21.24,19.09.43.26.6.79.4,1.25s-.7.71-1.18.57c-7.1-1.9-10.8-1.12-11.9.24-.65.81-.35,1.83.01,2.53,1.73,3.34,8.15,6.61,16.64,6.09.41-.02.8.21.97.59s.09.82-.2,1.12c-1.24,1.25-1.52,2.6-.73,3.6,1.37,1.75,6.25,2.64,14.07-2.08.47-.29,1.09-.13,1.37.34s.13,1.09-.34,1.37c-4.47,2.7-8.27,3.79-11.18,3.79Z"/>
  </g>
</svg>