<?xml version="1.0" encoding="UTF-8"?>
<svg id="Layer_4" data-name="Layer 4" xmlns="http://www.w3.org/2000/svg" viewBox="0 0 280 280">
  <defs>
    <style>
      .cls-1 {
        fill: #dbc0a1;
      }

      .cls-2 {
        fill: #9b816d;
      }

      .cls-3 {
        fill: #c6a88b;
      }
    </style>
  </defs>
  <g>
    <path class="cls-1" d="M86.19,240.23c38.87,2.15,80.66-3.93,118.43-14.99,1.66-.49,2.74-2.06,2.4-3.76l-1.91-9.67c-35.23,8.04-76.92,12.85-123.27,15.32l1.17,10.24c.18,1.62,1.55,2.77,3.17,2.86Z"/>
    <path class="cls-3" d="M102.21,242.66c-5.45,0-10.83-.15-16.13-.44h0c-2.63-.15-4.76-2.09-5.05-4.63l-1.17-10.24c-.06-.55.1-1.1.46-1.52.36-.42.87-.68,1.42-.71,49.17-2.62,89.39-7.61,122.93-15.27.53-.12,1.08-.02,1.53.27.45.29.77.76.87,1.29l1.91,9.67c.53,2.67-1.11,5.28-3.8,6.06-34.92,10.22-70.18,15.51-102.98,15.51ZM86.3,238.23c36.22,2.01,78.05-3.29,117.76-14.92.6-.18,1.14-.73,1-1.45l-1.51-7.65c-32.87,7.34-72,12.19-119.48,14.79l.93,8.13c.07.6.6,1.05,1.29,1.09h0Z"/>
  </g>
  <g>
    <path class="cls-1" d="M165.24,64.4s4.54-8.23,0-18.2c-5.74-12.6-85.01-6.06-89.4,5.35-3.42,8.91,2.68,22.48,2.68,22.48-19.96,8.51-32.52,25.93-41.75,47.34-10,15.78-15.86,31.77-16.59,48.02-8.52,15.4-12.36,30.37-11.24,44.89,12.81,11.57,25.83,19.6,39.08,23.02,14.85-9.9,23.57-24.26,29.44-40.68l126.87-6.42c6.33,14.8,17.88,26.25,34.8,34.26,11.9-4.7,23.35-10.01,33.72-19.81-1.18-21.59-7.99-41.76-22.48-60-5.41-16.32-14.99-30.91-30.51-43.02-13.4-19.49-31.45-32.12-54.6-37.23Z"/>
    <path class="cls-3" d="M48.01,239.3c-.17,0-.33-.02-.5-.06-12.93-3.33-26.37-11.23-39.92-23.47-.38-.34-.61-.82-.65-1.33-1.13-14.58,2.66-29.92,11.26-45.6.81-15.76,6.46-32.04,16.8-48.4,10.5-24.29,23.55-39.43,40.95-47.45-1.6-4.19-4.89-14.53-1.96-22.16.54-1.4,2.17-5.66,19.94-9.47,9.98-2.14,22.63-3.57,34.71-3.94,12.82-.39,34.88.13,38.43,7.94,3.45,7.59,2.1,14.23.94,17.62,22.04,5.43,39.96,17.95,53.32,37.26,14.84,11.65,24.93,25.86,30.83,43.44,14,17.72,21.42,37.63,22.69,60.85.03.59-.2,1.16-.62,1.56-10.05,9.49-21.01,14.94-34.36,20.21-.51.2-1.09.18-1.59-.05-16.73-7.92-28.57-19.36-35.21-34l-124.17,6.29c-6.86,18.61-16.34,31.48-29.76,40.42-.33.22-.72.34-1.11.34ZM10.87,213.34c12.56,11.22,24.92,18.55,36.77,21.8,12.57-8.62,21.46-21.1,27.92-39.19.27-.76.97-1.28,1.78-1.32l126.87-6.42c.83-.03,1.61.44,1.94,1.21,6.03,14.1,17.14,25.16,33.03,32.86,12.26-4.88,22.39-9.97,31.6-18.45-1.38-22.09-8.58-41.05-22-57.93-.15-.18-.26-.39-.33-.61-5.66-17.06-15.42-30.82-29.84-42.08-.16-.13-.3-.28-.42-.44-13.24-19.26-31.21-31.51-53.38-36.41-.62-.14-1.13-.55-1.39-1.13-.26-.57-.23-1.23.07-1.78h0c.16-.3,3.97-7.54-.07-16.41-1.49-3.26-12.78-6.26-34.67-5.6-27.14.82-49.33,6.4-51.04,10.84-3.08,8.01,2.58,20.82,2.63,20.95.22.49.23,1.05.04,1.55-.2.5-.58.9-1.08,1.11-17.33,7.38-30.26,22.09-40.7,46.29-.04.1-.09.19-.15.28-10.12,15.97-15.6,31.8-16.29,47.04-.01.31-.1.61-.25.88-8.21,14.84-11.93,29.29-11.05,42.97Z"/>
  </g>
  <g>
    <path class="cls-1" d="M157.77,68.72c-13.3,5.53-41.25,9.64-65.92,7.15"/>
    <path class="cls-3" d="M107.5,77.63c-5.24,0-10.54-.24-15.75-.76-.55-.06-.95-.55-.89-1.1.06-.55.54-.95,1.1-.89,24.37,2.46,52.4-1.66,65.43-7.08.51-.21,1.1.03,1.31.54.21.51-.03,1.1-.54,1.31-10.42,4.33-30.12,7.98-50.66,7.98Z"/>
  </g>
  <g>
    <path class="cls-1" d="M186.44,110.21c19.91,34.76,24.87,68.55,18.68,101.6-21.54,11.37-87.96,17.82-123.27,15.32-16.52-22.01-16.6-59.39-12.7-100.48"/>
    <path class="cls-3" d="M98.76,229.65c-6.22,0-11.99-.18-17.05-.53-.58-.04-1.11-.33-1.46-.79-17.8-23.72-16.61-64.81-13.09-101.87.1-1.1,1.08-1.9,2.18-1.8,1.1.1,1.91,1.08,1.8,2.18-3.41,35.92-4.65,75.61,11.77,98.36,35.71,2.35,99.24-4.27,120.42-14.72,6.17-34.14.08-66.62-18.62-99.28-.55-.96-.22-2.18.74-2.73.96-.55,2.18-.22,2.73.74,19.37,33.82,25.55,67.5,18.91,102.97-.11.6-.49,1.12-1.03,1.4-13.73,7.25-41.72,11.3-57.18,13.08-17.03,1.95-34.93,3-50.12,3ZM205.12,211.81h0,0Z"/>
  </g>
  <g>
    <path class="cls-1" d="M128.17,82.37c3.88,15.83,7.2,31.7,6.07,47.82,6.82,16.96,12.79,33.95,10.23,51.24,3.24,11.29,4.57,22.79,3.43,34.54"/>
    <path class="cls-2" d="M147.9,217.97c-.06,0-.13,0-.2,0-1.1-.11-1.9-1.08-1.8-2.18,1.08-11.1-.02-22.15-3.37-33.79-.08-.27-.1-.56-.06-.84,2.5-16.92-3.35-33.4-10.11-50.2-.11-.28-.16-.58-.14-.89,1.14-16.26-2.35-32.24-6.02-47.21-.26-1.07.39-2.16,1.47-2.42,1.07-.26,2.16.39,2.42,1.47,3.71,15.14,7.24,31.3,6.16,47.98,6.57,16.38,12.71,33.82,10.24,51.42,3.34,11.83,4.48,23.56,3.38,34.87-.1,1.03-.97,1.81-1.99,1.81Z"/>
  </g>
  <g>
    <path class="cls-1" d="M185.86,74.4c-11.28,9.11-24.81,15.77-43.27,17.08"/>
    <path class="cls-3" d="M142.59,92.48c-.52,0-.96-.4-1-.93-.04-.55.38-1.03.93-1.07,16.32-1.16,29.9-6.52,42.71-16.86.43-.35,1.06-.28,1.41.15.35.43.28,1.06-.15,1.41-13.15,10.61-27.07,16.11-43.83,17.3-.02,0-.05,0-.07,0Z"/>
  </g>
  <g>
    <path class="cls-1" d="M121.71,95.65c-18.87.33-37.21-.12-50.86-7.59"/>
    <path class="cls-3" d="M113.95,96.73c-15.77,0-31.5-1.18-43.57-7.79-.48-.27-.66-.87-.4-1.36s.87-.66,1.36-.4c13.64,7.46,32.35,7.78,50.36,7.47.58,0,1.01.43,1.02.98,0,.55-.43,1.01-.98,1.02-2.58.04-5.18.08-7.78.08Z"/>
  </g>
  <g>
    <path class="cls-1" d="M216.61,103.3c-8.23,6.42-17.1,10.94-26.82,13.01"/>
    <path class="cls-3" d="M189.79,117.3c-.46,0-.88-.32-.98-.79-.12-.54.23-1.07.77-1.19,9.25-1.97,17.89-6.17,26.41-12.82.44-.34,1.06-.26,1.4.17.34.44.26,1.06-.17,1.4-8.65,6.75-17.81,11.19-27.23,13.2-.07.02-.14.02-.21.02Z"/>
  </g>
  <g>
    <path class="cls-1" d="M246.86,147c-13.7,10.67-26.94,18.15-39.24,19.05"/>
    <path class="cls-3" d="M207.62,167.05c-.52,0-.96-.4-1-.93-.04-.55.37-1.03.92-1.07,10.77-.79,23.43-6.95,38.7-18.84.44-.34,1.06-.26,1.4.17.34.44.26,1.06-.17,1.4-15.8,12.31-28.44,18.43-39.78,19.26-.03,0-.05,0-.07,0Z"/>
  </g>
  <g>
    <path class="cls-1" d="M192.23,124.87c-14.35,3.86-31.21,6.44-52.67,6.72"/>
    <path class="cls-3" d="M139.56,132.59c-.55,0-.99-.44-1-.99,0-.55.43-1.01.99-1.01,19.5-.26,36.64-2.45,52.42-6.69.53-.14,1.08.17,1.23.71.14.53-.17,1.08-.71,1.23-15.94,4.29-33.25,6.5-52.92,6.76h-.01Z"/>
  </g>
  <g>
    <path class="cls-1" d="M130.6,131.59c-18.4,3.36-36.79,3.36-55.19,0"/>
    <path class="cls-3" d="M103,135.1c-9.28,0-18.56-.84-27.78-2.53-.54-.1-.9-.62-.8-1.16.1-.54.62-.9,1.16-.8,18.19,3.32,36.64,3.32,54.83,0,.54-.1,1.06.26,1.16.8.1.54-.26,1.06-.8,1.16-9.21,1.68-18.49,2.53-27.77,2.53Z"/>
  </g>
  <g>
    <path class="cls-1" d="M153.29,182.3c16.91-.03,33.02-2.04,48.19-6.44"/>
    <path class="cls-3" d="M153.29,183.3c-.55,0-1-.45-1-1,0-.55.45-1,1-1,17.26-.03,33.38-2.18,47.91-6.4.54-.15,1.08.15,1.24.68s-.15,1.08-.68,1.24c-14.72,4.27-31.02,6.45-48.46,6.48h0Z"/>
  </g>
  <g>
    <path class="cls-1" d="M137.33,183.98c-21.35,2.43-42.29,4.05-61.92,3.08"/>
    <path class="cls-3" d="M87.32,188.34c-4,0-8-.09-11.96-.28-.55-.03-.98-.5-.95-1.05s.5-.98,1.05-.95c21.5,1.06,44.3-1.09,61.76-3.08.55-.07,1.04.33,1.11.88.06.55-.33,1.04-.88,1.11-14.33,1.63-32.25,3.37-50.12,3.37Z"/>
  </g>
  <g>
    <path class="cls-1" d="M40.11,124.87c7.21,7.91,15.32,15.32,27.57,20.44"/>
    <path class="cls-3" d="M67.68,146.31c-.13,0-.26-.03-.39-.08-12.88-5.38-21.03-13.13-27.93-20.69-.37-.41-.34-1.04.07-1.41.41-.37,1.04-.34,1.41.07,6.74,7.39,14.7,14.96,27.22,20.19.51.21.75.8.54,1.31-.16.38-.53.61-.92.61Z"/>
  </g>
  <g>
    <path class="cls-1" d="M24.14,171.65c11.56,11.67,24.7,20.07,40.34,23.25"/>
    <path class="cls-3" d="M64.48,195.91c-.07,0-.13,0-.2-.02-14.79-3.01-28.16-10.71-40.85-23.53-.39-.39-.38-1.03,0-1.41.39-.39,1.03-.39,1.42,0,12.41,12.53,25.44,20.05,39.83,22.98.54.11.89.64.78,1.18-.1.47-.51.8-.98.8Z"/>
  </g>
  <g>
    <path class="cls-1" d="M157.68,49.69c-9.38,7.01-57.15,9.34-73.96,4.11"/>
    <path class="cls-3" d="M111.65,57.66c-11.92,0-22.2-1.02-28.23-2.9-.53-.16-.82-.72-.66-1.25.16-.53.72-.82,1.25-.66,17,5.29,64.11,2.74,73.07-3.96.44-.33,1.07-.24,1.4.2.33.44.24,1.07-.2,1.4-4.51,3.37-17.5,5.93-34.74,6.84-4.07.22-8.07.32-11.89.32Z"/>
  </g>
</svg>